<?xml version="1.0" standalone="no"?>
<!DOCTYPE svg PUBLIC "-//W3C//DTD SVG 1.1//EN" "http://www.w3.org/Graphics/SVG/1.1/DTD/svg11.dtd" >
<svg>
<metadata>
Created by FontForge 20090914 at Fri Dec 31 20:53:11 2021
 By www-data
</metadata>
<defs>
<font id="TensorFont" horiz-adv-x="1098" >
  <font-face 
    font-family="TensorFont"
    font-weight="400"
    font-stretch="normal"
    units-per-em="2048"
    panose-1="2 11 5 3 2 2 3 2 2 4"
    ascent="1577"
    descent="-471"
    x-height="1024"
    cap-height="1434"
    bbox="-727 -502.007 2238 2034"
    underline-thickness="102"
    underline-position="-103"
    unicode-range="U+001D-U+FEFF"
  />
<missing-glyph horiz-adv-x="1536" 
d="M102 1434h1332v-1434h-1332v1434zM1167 1270l-399 -445l-399 445l-103 -103l404 -450l-404 -451l103 -102l399 444l399 -444l103 102l-406 451l406 450z" />
    <glyph glyph-name=".notdef" horiz-adv-x="1536" 
d="M102 1434h1332v-1434h-1332v1434zM1167 1270l-399 -445l-399 445l-103 -103l404 -450l-404 -451l103 -102l399 444l399 -444l103 102l-406 451l406 450z" />
    <glyph glyph-name=".null" horiz-adv-x="0" 
 />
    <glyph glyph-name=".null" horiz-adv-x="0" 
 />
    <glyph glyph-name="space" unicode=" " horiz-adv-x="547" 
 />
    <glyph glyph-name="exclam" unicode="!" horiz-adv-x="480" 
d="M155 1434h170v-672l-35 -341h-100l-35 341v672zM120 100c0 37.333 10.833 66.666 32.5 87.999s50.167 32 85.5 32c36.667 0 66.167 -10.667 88.5 -32s33.5 -50.666 33.5 -87.999c0 -35.333 -11.167 -64.166 -33.5 -86.499s-51.833 -33.5 -88.5 -33.5
c-35.333 0 -63.833 11.167 -85.5 33.5s-32.5 51.166 -32.5 86.499z" />
    <glyph glyph-name="quotedbl" unicode="&#x22;" horiz-adv-x="686" 
d="M424 1434h160l-63 -396h-97v396zM184 1434h160l-63 -396h-97v396z" />
    <glyph glyph-name="numbersign" unicode="#" horiz-adv-x="1116" 
d="M573 342h-215l-79 -342h-142l80 342h-160l29 131h162l63 268h-151l28 131h154l78 324h141l-78 -324h215l78 324h142l-78 -324h157l-32 -131h-156l-64 -268h150l-33 -131h-147l-80 -342h-141zM389 473h215l64 268h-215z" />
    <glyph glyph-name="dollar" unicode="$" horiz-adv-x="1116" 
d="M496 -25c-75.333 1.33301 -142.003 7.83496 -200.003 19.502s-104.667 27.167 -140 46.5l55 149c27.333 -16 64.5 -30.833 111.5 -44.5s104.833 -21.167 173.5 -22.5v553c-41.333 20.667 -82.166 42.5 -122.499 65.5s-76.166 50.5 -107.499 82.5s-56.5 70 -75.5 114
s-28.5 96 -28.5 156c0 98 27.667 178.5 83 241.5s139 101.833 251 116.5v186h139v-180c69.333 -2.66699 126.166 -9.16699 170.499 -19.5s84.5 -23.5 120.5 -39.5l-49 -144c-27.333 14 -60.166 26.167 -98.499 36.5s-86.166 16.833 -143.499 19.5v-506
c42 -22 84.167 -45.667 126.5 -71s80.333 -54.333 114 -87s60.667 -70.834 81 -114.501s30.5 -94.834 30.5 -153.501c0 -106.667 -29.667 -194.5 -89 -263.5s-147 -112.833 -263 -131.5v-189h-139v180zM816.997 365.002c0 32.667 -5.83301 62.002 -17.5 88.002
s-27 49.167 -46 69.5s-41.5 38.666 -67.5 54.999s-54 32.166 -84 47.499v-498c62.667 9.33301 114.167 33.5 154.5 72.5s60.5 94.167 60.5 165.5zM331.997 1104c0 -58.667 18.667 -106.501 56 -143.501s84 -70.5 140 -100.5v449c-72 -8.66699 -122.667 -32.667 -152 -72
s-44 -83.666 -44 -132.999z" />
    <glyph glyph-name="percent" unicode="%" horiz-adv-x="1583" 
d="M143 1110c0 61.333 8.16699 113.83 24.5 157.497s38.5 79.834 66.5 108.501s61.5 49.5 100.5 62.5s81.167 19.5 126.5 19.5c44.667 0 86.5 -6.16699 125.5 -18.5s72.5 -32.166 100.5 -59.499s50.167 -63.166 66.5 -107.499s24.5 -98.5 24.5 -162.5
s-8.16699 -118.167 -24.5 -162.5s-38.5 -80.166 -66.5 -107.499s-61.5 -47.166 -100.5 -59.499s-80.833 -18.5 -125.5 -18.5c-45.333 0 -87.5 6.16699 -126.5 18.5s-72.5 32.166 -100.5 59.499s-50.167 63.166 -66.5 107.499s-24.5 98.5 -24.5 162.5zM295 1110
c0 -82 14.667 -140.665 44 -175.998s70 -53 122 -53c25.333 0 48.333 3.66699 69 11s38.167 19.5 52.5 36.5s25.166 40.167 32.499 69.5s11 66.666 11 111.999s-3.66699 82.666 -11 111.999s-18.166 52.5 -32.499 69.5s-31.833 29.167 -52.5 36.5s-43.667 11 -69 11
c-52 0 -92.667 -16 -122 -48s-44 -92.333 -44 -181zM874 349.999c0 61.333 8.16699 113.83 24.5 157.497s38.5 79.834 66.5 108.501s61.5 49.5 100.5 62.5s81.167 19.5 126.5 19.5c44.667 0 86.5 -6.16699 125.5 -18.5s72.5 -32.166 100.5 -59.499
s50.167 -63.166 66.5 -107.499s24.5 -98.5 24.5 -162.5s-8.16699 -118.167 -24.5 -162.5s-38.5 -80.166 -66.5 -107.499s-61.5 -47.166 -100.5 -59.499s-80.833 -18.5 -125.5 -18.5c-45.333 0 -87.5 6.16699 -126.5 18.5s-72.5 32.166 -100.5 59.499
s-50.167 63.166 -66.5 107.499s-24.5 98.5 -24.5 162.5zM1026 349.996c0 -82 14.667 -140.665 44 -175.998s70 -53 122 -53c25.333 0 48.333 3.66699 69 11s38.167 19.5 52.5 36.5s25.166 40.167 32.499 69.5s11 66.666 11 111.999s-3.66699 82.666 -11 111.999
s-18.166 52.5 -32.499 69.5s-31.833 29.167 -52.5 36.5s-43.667 11 -69 11c-52 0 -92.667 -16 -122 -48s-44 -92.333 -44 -181zM1305 1460l100 -78l-1051 -1407l-102 80z" />
    <glyph glyph-name="ampersand" unicode="&#x26;" horiz-adv-x="1667" 
d="M242 383c0 54.667 9.49805 106.835 28.498 156.502s44.833 95.667 77.5 138s69.834 81.333 111.501 117s85.167 67.167 130.5 94.5c-32.667 49.333 -61 98.5 -85 147.5s-36 102.167 -36 159.5c0 32.667 5.5 64.667 16.5 96s28.333 59.333 52 84s54.334 44.5 92.001 59.5
s83.167 22.5 136.5 22.5c56 0 103.167 -7.16699 141.5 -21.5s69 -33 92 -56s39.667 -48.833 50 -77.5s15.5 -58.334 15.5 -89.001c0 -57.333 -22.167 -116.333 -66.5 -177s-114.5 -119 -210.5 -175c22 -39.333 47.667 -79.833 77 -121.5s60.5 -83 93.5 -124l100.5 -122
c34 -40.333 68 -77.5 102 -111.5c15.333 16.667 30.5 37.5 45.5 62.5s29.667 51.5 44 79.5s27.333 57 39 87s22.167 58.667 31.5 86l127 -59c-8 -23.333 -19.5 -51 -34.5 -83s-31.833 -64.667 -50.5 -98l-56.5 -96.5c-19 -31 -36.833 -56.5 -53.5 -76.5
c28.667 -27.333 54.667 -51 78 -71s44.833 -37.167 64.5 -51.5s38.834 -27.333 57.501 -39l56 -33.5l-102 -115c-72.667 36 -155.334 99.667 -248.001 191c-24.667 -24.667 -51.667 -48.334 -81 -71.001s-62.333 -42.834 -99 -60.501s-77.167 -32 -121.5 -43
s-93.166 -16.5 -146.499 -16.5c-64.667 0 -125.334 9 -182.001 27s-106.167 44.333 -148.5 79s-76 77.334 -101 128.001s-37.5 108.667 -37.5 174zM1063 268.001c-39.333 40 -78.1709 83.166 -116.504 129.499l-110 139c-35 46.333 -67.167 91 -96.5 134
s-54 80.833 -74 113.5c-37.333 -27.333 -71.666 -55.333 -102.999 -84s-59 -59 -83 -91s-42.333 -66.333 -55 -103s-19 -76.334 -19 -119.001c0 -42 8.83301 -79.833 26.5 -113.5s41.834 -61.667 72.501 -84s65.834 -39.666 105.501 -51.999s81.167 -18.5 124.5 -18.5
c34 0 67.167 4.33301 99.5 13s62.833 19.834 91.5 33.501s54.834 29.5 78.501 47.5s43.167 36.333 58.5 55zM628.993 1196c0 -40.667 8.5 -81.166 25.5 -121.499s39.167 -80.5 66.5 -120.5c72 46.667 122 89.167 150 127.5s42 71.833 42 100.5
c0 43.333 -10.5 78.666 -31.5 105.999s-57.5 41 -109.5 41c-49.333 0 -85.5 -12.333 -108.5 -37s-34.5 -56.667 -34.5 -96z" />
    <glyph glyph-name="quotesingle" unicode="'" horiz-adv-x="446" 
d="M184 1434h160l-63 -396h-97v396z" />
    <glyph glyph-name="parenleft" unicode="(" horiz-adv-x="720" 
d="M120 660c20 760 200 1140 540 1140v-180c-173.333 0 -280.166 -160 -320.499 -480s-40.333 -639.667 0 -959s147.166 -478.666 320.499 -477.999v-183c-340 0 -520 380 -540 1140z" />
    <glyph glyph-name="parenright" unicode=")" horiz-adv-x="720" 
d="M60 -480v183.001c174 -0.666992 281 158.666 321 477.999s40 639 0 959s-147 480 -321 480v180c340 0 520 -380 540 -1140c-20 -760 -200 -1140 -540 -1140z" />
    <glyph glyph-name="asterisk" unicode="*" horiz-adv-x="719" 
d="M266 1464l51 -86l37 -114l43 116l49 82l99 -53l-53 -88l-95 -98l140 24h98v-114h-94l-131 24l94 -98l47 -80l-96 -57l-54 86l-47 125l-39 -119l-51 -86l-102 57l55 86l86 86l-119 -24h-102v114h102l127 -24l-92 90l-53 94z" />
    <glyph glyph-name="plus" unicode="+" horiz-adv-x="1144" 
d="M662 1080v-900h-180v900h180zM1020 720v-180h-900v180h900z" />
    <glyph glyph-name="comma" unicode="," horiz-adv-x="514" 
d="M251 220c42.667 0 77.1689 -14.999 103.502 -44.999s39.5 -73.667 39.5 -131c0 -49.333 -6.83301 -92.5 -20.5 -129.5s-31.334 -68.833 -53.001 -95.5s-45.5 -48.5 -71.5 -65.5s-52 -29.5 -78 -37.5l-51 80c49.333 18.667 86 48.334 110 89.001
c18.667 32 30 64.333 34 97c-8.66699 -1.33301 -17.334 -2 -26.001 -2c-35.333 0 -63.833 11.167 -85.5 33.5s-32.5 51.166 -32.5 86.499c0 37.333 10.833 66.666 32.5 87.999s50.167 32 85.5 32h13z" />
    <glyph glyph-name="hyphen" unicode="-" horiz-adv-x="900" 
d="M780 720v-180h-660v180h660z" />
    <glyph glyph-name="period" unicode="." horiz-adv-x="480" 
d="M120 100c0 37.333 10.833 66.666 32.5 87.999s50.167 32 85.5 32c36.667 0 66.167 -10.667 88.5 -32s33.5 -50.666 33.5 -87.999c0 -35.333 -11.167 -64.166 -33.5 -86.499s-51.833 -33.5 -88.5 -33.5c-35.333 0 -63.833 11.167 -85.5 33.5s-32.5 51.166 -32.5 86.499z
" />
    <glyph glyph-name="slash" unicode="/" horiz-adv-x="600" 
d="M540 1680l-600 -1920h180l600 1920h-180z" />
    <glyph glyph-name="zero" unicode="0" horiz-adv-x="1112" 
d="M1008 610c0 -215.333 -35.833 -374.165 -107.5 -476.498s-186.167 -153.5 -343.5 -153.5c-152.667 0 -265.5 50.167 -338.5 150.5s-111.167 252.166 -114.5 455.499v243c0 213.333 36.333 370.166 109 470.499s187.334 150.5 344.001 150.5
c152.667 0 265.667 -48.5 339 -145.5s110.666 -249.833 111.999 -458.5v-236zM826 860.001c0 153.333 -21.501 265.498 -64.501 336.498s-111.5 106.5 -205.5 106.5s-162.5 -34.5 -205.5 -103.5s-64.5 -178.167 -64.5 -327.5v-290c0 -157.333 22.5 -272.166 67.5 -344.499
s112.5 -108.5 202.5 -108.5s156.833 34.833 200.5 104.5s66.834 178.834 69.501 327.501v299z" />
    <glyph glyph-name="one" unicode="1" horiz-adv-x="1112" 
d="M483 159v1053l-350 -175v166l501 235h31v-1279h314v-159h-846v159h350z" />
    <glyph glyph-name="two" unicode="2" horiz-adv-x="1112" 
d="M1008 0l-879.997 0.000976562v131l464 551c35.333 42 65.166 79.833 89.499 113.5s43.333 64.167 57 91.5s23.167 53.666 28.5 78.999s8 52.333 8 81c0 73.333 -21.333 134.333 -64 183s-99.334 73 -170.001 73c-84.667 0 -150.834 -26 -198.501 -78
s-71.5 -123.667 -71.5 -215h-167c0 65.333 10.5 125.333 31.5 180s50.667 101 89 139s84.333 67.667 138 89s113.167 32 178.5 32c63.333 0 120 -9.16699 170 -27.5s92.5 -44.333 127.5 -78s61.833 -74 80.5 -121s28 -99.167 28 -156.5c0 -138 -84.667 -305.333 -254 -502
l-359 -418h674v-147z" />
    <glyph glyph-name="three" unicode="3" horiz-adv-x="1112" 
d="M394 805l136.998 -0.00292969c85.333 0 152.5 22.5 201.5 67.5s73.5 104.5 73.5 178.5c0 168 -83.667 252 -251 252c-77.333 0 -139.666 -22.667 -186.999 -68s-71 -104.666 -71 -177.999h-181c0 57.333 11.333 109.833 34 157.5s53.5 89 92.5 124
s85.167 62.333 138.5 82s111.333 29.5 174 29.5c136 0 242.167 -35.167 318.5 -105.5s114.5 -169.5 114.5 -297.5c0 -63.333 -20.167 -124 -60.5 -182s-95.166 -101.333 -164.499 -130c77.333 -26 137.5 -67.667 180.5 -125s64.5 -127.666 64.5 -210.999
c0 -64 -11.167 -122 -33.5 -174s-53.5 -96 -93.5 -132s-87.667 -63.833 -143 -83.5s-116.333 -29.5 -183 -29.5s-127.667 9.5 -183 28.5s-103 45.833 -143 80.5s-70.833 76.334 -92.5 125.001s-32.5 103 -32.5 163h181c0 -75.333 24.667 -135.5 74 -180.5
s115 -67.5 197 -67.5c88 0 155.167 22.833 201.5 68.5s69.5 111.5 69.5 197.5c0 82 -25.667 145.833 -77 191.5s-124.333 68.5 -219 68.5h-137v150z" />
    <glyph glyph-name="four" unicode="4" horiz-adv-x="1112" 
d="M870 481h154v-149h-154v-332h-177v332h-589v108l576 992h190v-951zM294 481h399v701l-19 -39z" />
    <glyph glyph-name="five" unicode="5" horiz-adv-x="1112" 
d="M155 717l73 715h737v-168h-579l-44 -392c68 41.333 147.333 62 238 62c65.333 0 124.5 -11 177.5 -33s98.167 -53.833 135.5 -95.5s65.833 -91.834 85.5 -150.501s29.5 -124.667 29.5 -198c0 -149.333 -39 -266.166 -117 -350.499s-190.333 -126.5 -337 -126.5
c-128.667 0 -232.834 35 -312.501 105s-125.5 167.333 -137.5 292h173c24.667 -165.333 117 -248 277 -248c86.667 0 153.5 28.667 200.5 86s70.5 137.333 70.5 240c0 95.333 -26.167 172 -78.5 230s-121.833 87 -208.5 87c-38 0 -73.167 -4 -105.5 -12
s-60.166 -21.667 -83.499 -41l-47 -39z" />
    <glyph glyph-name="six" unicode="6" horiz-adv-x="1112" 
d="M808 1432v-154.001h-35c-140.667 -2.66699 -252.834 -44.334 -336.501 -125.001s-132.5 -195.334 -146.5 -344.001c75.333 86 178.333 129 309 129c62.667 0 119.167 -11.667 169.5 -35s93.333 -56.166 129 -98.499s63 -92.166 82 -149.499s28.5 -120 28.5 -188
c0 -74 -10.5 -140.667 -31.5 -200s-50.667 -110.5 -89 -153.5s-85.166 -76 -140.499 -99s-116.333 -34.5 -183 -34.5c-67.333 0 -129.333 13.833 -186 41.5s-105.167 66.5 -145.5 116.5s-71.833 109.5 -94.5 178.5s-34 145.167 -34 228.5v69
c0 266.667 55.667 468.834 167 606.501s279.333 208.167 504 211.5h33zM569 785.999c-62.667 0 -120.001 -18.333 -172.001 -55s-88.333 -83.667 -109 -141v-66c0 -60 7.16699 -113.833 21.5 -161.5s33.833 -89 58.5 -124s53.834 -61.667 87.501 -80
s70.167 -27.5 109.5 -27.5c82 0 146.5 30 193.5 90s70.5 139.333 70.5 238c0 98 -23.5 177 -70.5 237s-110.167 90 -189.5 90z" />
    <glyph glyph-name="seven" unicode="7" horiz-adv-x="1112" 
d="M1008 1329l-554 -1329h-178l552 1282h-724v150h904v-103z" />
    <glyph glyph-name="eight" unicode="8" horiz-adv-x="1112" 
d="M976 1057c0 -71.333 -18.333 -134.67 -55 -190.003s-87.667 -98.666 -153 -129.999c73.333 -32.667 131.666 -79.667 174.999 -141s65 -131 65 -209c0 -61.333 -10.833 -117.333 -32.5 -168s-52.167 -93.667 -91.5 -129s-86.833 -62.5 -142.5 -81.5
s-117.5 -28.5 -185.5 -28.5s-129.5 9.5 -184.5 28.5s-102.333 45.833 -142 80.5s-70.5 77.334 -92.5 128.001s-33 107.334 -33 170.001c0 78 21 147.667 63 209s100 108.333 174 141c-63.333 31.333 -113.166 75 -149.499 131s-54.5 119 -54.5 189
c0 61.333 9.66699 116.166 29 164.499s47.5 89.333 84.5 123s81.167 59.667 132.5 78s109 27.5 173 27.5c62.667 0 119.667 -9.16699 171 -27.5s95.5 -44.333 132.5 -78s65.667 -74.667 86 -123s30.5 -103.166 30.5 -164.499zM831 390.996
c0 38.667 -6.83301 74.667 -20.5 108s-32.5 62 -56.5 86s-52.667 42.833 -86 56.5s-70.333 20.5 -111 20.5c-82 0 -147.667 -25 -197 -75s-74 -116 -74 -198s24 -145.833 72 -191.5s115 -68.5 201 -68.5s152.833 23.167 200.5 69.5s71.5 110.5 71.5 192.5zM559 1303
c-71.333 0 -129.166 -22 -173.499 -66s-66.5 -104.667 -66.5 -182c0 -74 21.5 -133.167 64.5 -177.5s101.5 -66.5 175.5 -66.5c73.333 0 131.5 22.167 174.5 66.5s64.5 103.5 64.5 177.5c0 36.667 -5.83301 70 -17.5 100s-28.334 56 -50.001 78s-47.167 39.167 -76.5 51.5
s-61 18.5 -95 18.5z" />
    <glyph glyph-name="nine" unicode="9" horiz-adv-x="1112" 
d="M823 629c-36.667 -45.333 -81.668 -81.668 -135.001 -109.001s-111.666 -41 -174.999 -41c-64 0 -121 12.333 -171 37s-92.833 58.5 -128.5 101.5s-62.834 94.167 -81.501 153.5s-28 124.666 -28 195.999c0 72 10.667 137.667 32 197s51.666 110.166 90.999 152.499
s86.166 75.166 140.499 98.499s114.5 35 180.5 35c70 0 133.333 -13.667 190 -41s105.334 -66.666 146.001 -117.999s71.5 -113.166 92.5 -185.499s31.5 -154.166 31.5 -245.499v-53c0 -278.667 -55.333 -482.167 -166 -610.5s-277 -193.833 -499 -196.5h-37v152h39
c150.667 2.66699 266.334 41.834 347.001 117.501s124.334 195.5 131.001 359.5zM542.999 628.998c61.333 0 117.167 18.6689 167.5 56.002s87.833 83.333 112.5 138v74c0 58.667 -6.83301 112.667 -20.5 162s-32.834 91.666 -57.501 126.999s-53.667 63.166 -87 83.499
s-69.666 30.5 -108.999 30.5c-82 0 -147 -30.333 -195 -91s-72 -142 -72 -244c0 -49.333 6.16699 -94.5 18.5 -135.5s29.833 -76.167 52.5 -105.5s50 -52.5 82 -69.5s68 -25.5 108 -25.5z" />
    <glyph glyph-name="colon" unicode=":" horiz-adv-x="540" 
d="M150 885c0 36.667 10.833 65.667 32.5 87s50.167 32 85.5 32c36.667 0 66.167 -10.667 88.5 -32s33.5 -50.333 33.5 -87s-11.167 -66 -33.5 -88s-51.833 -33 -88.5 -33c-35.333 0 -63.833 11 -85.5 33s-32.5 51.333 -32.5 88zM150 100
c0 37.333 10.833 66.666 32.5 87.999s50.167 32 85.5 32c36.667 0 66.167 -10.667 88.5 -32s33.5 -50.666 33.5 -87.999c0 -35.333 -11.167 -64.166 -33.5 -86.499s-51.833 -33.5 -88.5 -33.5c-35.333 0 -63.833 11.167 -85.5 33.5s-32.5 51.166 -32.5 86.499z" />
    <glyph glyph-name="semicolon" unicode=";" horiz-adv-x="514" 
d="M120 885c0 36.667 10.667 65.667 32 87s49.666 32 84.999 32c38 0 68 -10.667 90 -32s33 -50.333 33 -87s-11 -66 -33 -88s-52 -33 -90 -33c-35.333 0 -63.666 11 -84.999 33s-32 51.333 -32 88zM251 220c42.667 0 77.1689 -14.999 103.502 -44.999
s39.5 -73.667 39.5 -131c0 -49.333 -6.83301 -92.5 -20.5 -129.5s-31.334 -68.833 -53.001 -95.5s-45.5 -48.5 -71.5 -65.5s-52 -29.5 -78 -37.5l-51 80c49.333 18.667 86 48.334 110 89.001c18.667 32 30 64.333 34 97c-8.66699 -1.33301 -17.334 -2 -26.001 -2
c-35.333 0 -63.833 11.167 -85.5 33.5s-32.5 51.166 -32.5 86.499c0 37.333 10.833 66.666 32.5 87.999s50.167 32 85.5 32h13z" />
    <glyph glyph-name="less" unicode="&#x3c;" horiz-adv-x="1034" 
d="M86 625v59l774 473l78 -127l-485 -297l-187 -78l185 -65l497 -295l-78 -123z" />
    <glyph glyph-name="equal" unicode="=" horiz-adv-x="1034" 
d="M82 936h868v-148h-868v148zM82 596h868v-147h-868v147z" />
    <glyph glyph-name="greater" unicode="&#x3e;" horiz-adv-x="1034" 
d="M948 705v-60l-774 -473l-78 125l486 297l186 78l-184 65l-498 295l78 125z" />
    <glyph glyph-name="question" unicode="?" horiz-adv-x="861" 
d="M291 421c-1.33301 6.66699 -1.99805 13.833 -1.99805 21.5v22.5c0 54 8.5 101.667 25.5 143s38.167 79 63.5 113s52.666 65.833 81.999 95.5s56.666 59.834 81.999 90.501s46.5 63 63.5 97s25.5 73 25.5 117c0 59.333 -18 107.833 -54 145.5s-96.333 56.5 -181 56.5
c-49.333 0 -99.333 -8.16699 -150 -24.5s-94.334 -35.5 -131.001 -57.5l-55 120c52 30 106.667 53.667 164 71s128.333 26 213 26c60 0 112.833 -8 158.5 -24s83.834 -38.167 114.501 -66.5s53.5 -62 68.5 -101s22.5 -80.5 22.5 -124.5c0 -58 -9.16699 -108.667 -27.5 -152
s-41.5 -82.833 -69.5 -118.5s-58 -68.834 -90 -99.501s-62 -63.167 -90 -97.5s-51.333 -71.5 -70 -111.5s-28 -87.333 -28 -142h-135zM244.002 99.999c0 37.333 10.833 66.666 32.5 87.999s50.167 32 85.5 32c36.667 0 66.167 -10.667 88.5 -32s33.5 -50.666 33.5 -87.999
c0 -35.333 -11.167 -64.166 -33.5 -86.499s-51.833 -33.5 -88.5 -33.5c-35.333 0 -63.833 11.167 -85.5 33.5s-32.5 51.166 -32.5 86.499z" />
    <glyph glyph-name="at" unicode="@" horiz-adv-x="2179" 
d="M1448 1006h69.998l-105 -588c-6.66699 -35.333 -11.667 -67 -15 -95s-5 -53 -5 -75c0 -34 5.66699 -58.833 17 -74.5s31.333 -23.5 60 -23.5c46.667 0 92.834 12.167 138.501 36.5s86.334 59 122.001 104s64.667 99.333 87 163s33.5 135.167 33.5 214.5
c0 104.667 -17.667 197.334 -53 278.001s-85.166 148.667 -149.499 204s-140.833 97.333 -229.5 126s-186.334 43 -293.001 43c-110 0 -213.833 -20.5 -311.5 -61.5s-182.334 -97.667 -254.001 -170s-128.334 -159 -170.001 -260s-62.5 -210.833 -62.5 -329.5
c0 -122 18.667 -230.667 56 -326s90.833 -175.833 160.5 -241.5s153 -115.5 250 -149.5s204.833 -51 323.5 -51c40 0 85.167 4.33301 135.5 13s96.166 23.334 137.499 44.001l41 -131c-62 -26 -118.833 -43.5 -170.5 -52.5s-107.5 -13.5 -167.5 -13.5
c-127.333 0 -246.666 19.167 -357.999 57.5s-208.166 95 -290.499 170s-147.5 168.167 -195.5 279.5s-72 240 -72 386c0 149.333 25.667 284 77 404s120.666 222.333 207.999 307s189 149.834 305 195.501s239 68.5 369 68.5c122.667 0 236.5 -18 341.5 -54
s196.167 -87.833 273.5 -155.5s138.166 -150.334 182.499 -248.001s66.5 -208.5 66.5 -332.5c0 -87.333 -15 -171 -45 -251s-70.667 -150 -122 -210s-111.166 -108.167 -179.499 -144.5s-140.5 -54.5 -216.5 -54.5c-57.333 0 -103.166 12.333 -137.499 37
s-51.5 70.334 -51.5 137.001c0 12.667 0.666992 26.167 2 40.5s3.33301 29.5 6 45.5h-8c-18.667 -31.333 -41 -62.333 -67 -93s-55 -58.334 -87 -83.001s-66.167 -44.834 -102.5 -60.501s-74.166 -23.5 -113.499 -23.5c-33.333 0 -65 7.16699 -95 21.5
s-55.833 35.166 -77.5 62.499s-39 59.833 -52 97.5s-19.5 80.167 -19.5 127.5c0 88 14.333 174.167 43 258.5s67.167 159.333 115.5 225s105 118.667 170 159s133.5 60.5 205.5 60.5c50.667 0 91 -7.5 121 -22.5s59.333 -33.5 88 -55.5zM1331 805
c-23.333 27.333 -46.499 46.166 -69.499 56.499s-52.167 15.5 -87.5 15.5c-53.333 0 -103.333 -16.167 -150 -48.5s-86.667 -74 -120 -125s-59.833 -108.333 -79.5 -172s-29.5 -126.167 -29.5 -187.5c0 -53.333 10.833 -98.666 32.5 -135.999s61.167 -56 118.5 -56
c27.333 0 55.666 8.83301 84.999 26.5s58.333 41.834 87 72.501s56 65.167 82 103.5s49.333 77.166 70 116.499z" />
    <glyph glyph-name="A" unicode="A" horiz-adv-x="1198" 
d="M856 397h-528l-144 -397h-168l543 1456h78l545 -1456h-178zM383 545h422l-160 436l-51 217h-2l-51 -221z" />
    <glyph glyph-name="B" unicode="B" horiz-adv-x="1196" 
d="M1038 1106c0 -34 -5.33496 -68.8301 -16.002 -104.497s-27 -68.834 -49 -99.501s-50 -54.334 -84 -71.001s-74.333 -31 -121 -43v-8c40.667 -6.66699 79.834 -21.667 117.501 -45s70.834 -49.333 99.501 -78s51.834 -63.334 69.501 -104.001s26.5 -89 26.5 -145
c0 -74 -15.333 -138 -46 -192s-70.834 -98 -120.501 -132s-106.667 -59.167 -171 -75.5s-129.833 -24.5 -196.5 -24.5h-82c-31.333 0 -64.166 1 -98.499 3s-68.5 4.66699 -102.5 8s-64 8.33301 -90 15v1401c50.667 8.66699 109.5 15.667 176.5 21s139.833 8 218.5 8
c53.333 0 107.666 -4.5 162.999 -13.5s105.5 -26 150.5 -51s82.167 -58.5 111.5 -100.5s44 -98.333 44 -169zM562.998 131.003c44 0 86.5 5.16699 127.5 15.5s77.167 26.666 108.5 48.999s56.166 50 74.499 83s27.5 71.833 27.5 116.5c0 56 -11.167 104.5 -33.5 145.5
s-51.666 71 -87.999 90s-77 31.833 -122 38.5s-90.167 10 -135.5 10h-178v-534c9.33301 -2.66699 23 -4.66699 41 -6s37.167 -2.66602 57.5 -3.99902s41.5 -2.33301 63.5 -3s41 -1 57 -1zM450.998 823.003c22.667 0 50.498 0.666016 83.498 1.99902s60.167 3.33301 81.5 6
l93 29.5c28.667 9 54.167 24.167 76.5 45.5s40 46 53 74s19.5 58.333 19.5 91c0 45.333 -8.5 81 -25.5 107s-39.833 47.833 -68.5 65.5s-61.5 30.334 -98.5 38.001s-74.5 11.5 -112.5 11.5c-45.333 0 -86.666 -1.16699 -123.999 -3.5s-65.666 -5.5 -84.999 -9.5v-457h107z
" />
    <glyph glyph-name="C" unicode="C" horiz-adv-x="1169" 
d="M1092 59c-41.333 -31.333 -93.334 -53.1611 -156.001 -65.4941s-129.667 -18.5 -201 -18.5c-86 0 -166.5 14.667 -241.5 44s-140.5 74.166 -196.5 134.499s-100.333 137.166 -133 230.499s-49 204.333 -49 333c0 134 18 247.667 54 341s83.667 169.666 143 228.999
s126 102.666 200 129.999s149 41 225 41c82 0 149 -4.33301 201 -13s96.333 -20.667 133 -36l-41 -149c-65.333 31.333 -158.666 47 -279.999 47c-56 0 -111.333 -10.333 -166 -31s-103.5 -54.167 -146.5 -100.5s-77.5 -107 -103.5 -182s-39 -167.167 -39 -276.5
c0 -98.667 12.333 -184.834 37 -258.501s58.5 -135 101.5 -184s93.5 -85.833 151.5 -110.5s121 -37 189 -37c61.333 0 115 6.16699 161 18.5s84.667 28.166 116 47.499z" />
    <glyph glyph-name="D" unicode="D" horiz-adv-x="1339" 
d="M174 1434c26 4 54.999 7.00195 86.999 9.00195s65.5 3.33301 100.5 4l102.5 2c33.333 0.666992 64.333 1 93 1c114.667 0 214 -17.833 298 -53.5s153.333 -85.167 208 -148.5s95.334 -139.333 122.001 -228s40 -186.334 40 -293.001
c0 -96.667 -12.667 -189.834 -38 -279.501s-65.333 -169 -120 -238s-125.667 -124.167 -213 -165.5s-193 -62 -317 -62c-22 0 -50.5 0.333008 -85.5 1s-70.833 2 -107.5 4s-70.667 3.66699 -102 5s-54 3.33301 -68 6v1436zM560.999 1298l-58.0029 -0.00585938
c-21.333 0 -42.166 -0.666992 -62.499 -2s-39.166 -2.66602 -56.499 -3.99902s-30.666 -2.66602 -39.999 -3.99902v-1147c6.66699 -1.33301 19.667 -2.33301 39 -3l59.5 -2l59 -2c19 -0.666992 32.167 -1 39.5 -1c95.333 0 175.5 16.333 240.5 49s116.833 76.667 155.5 132
s66.167 118.833 82.5 190.5s24.5 145.834 24.5 222.501c0 66.667 -7.5 133.834 -22.5 201.501s-40.833 128.834 -77.5 183.501s-86.167 99.334 -148.5 134.001s-140.5 52 -234.5 52z" />
    <glyph glyph-name="E" unicode="E" 
d="M174 1434h780v-152h-610v-469h559v-151h-559v-510h621v-152h-791v1434z" />
    <glyph glyph-name="F" unicode="F" horiz-adv-x="1059" 
d="M174 1434h780v-152h-610v-489h569v-152h-569v-641h-170v1434z" />
    <glyph glyph-name="G" unicode="G" horiz-adv-x="1253" 
d="M657 715l482.001 0.00390625v-631c-22 -16.667 -48.333 -31.834 -79 -45.501s-63.5 -25.167 -98.5 -34.5s-71.167 -16.5 -108.5 -21.5s-74 -7.5 -110 -7.5c-91.333 0 -175.166 14.667 -251.499 44s-142.5 74.5 -198.5 135.5s-99.667 138.167 -131 231.5
s-47 203.666 -47 330.999c0 132 19 245.167 57 339.5s87.833 171.166 149.5 230.499s130.667 102.666 207 129.999s152.833 41 229.5 41c82 0 149.5 -4.33301 202.5 -13s98.167 -20.667 135.5 -36l-43 -149c-66 31.333 -159.667 47 -281 47c-57.333 0 -114.333 -10 -171 -30
s-107.5 -53.167 -152.5 -99.5s-81.833 -107 -110.5 -182s-43 -167.833 -43 -278.5c0 -101.333 11.667 -188.833 35 -262.5s55.666 -134.667 96.999 -183s91.5 -84.5 150.5 -108.5s123.167 -36 192.5 -36c87.333 0 161.666 17 222.999 51v400l-336 40v97z" />
    <glyph glyph-name="H" unicode="H" horiz-adv-x="1376" 
d="M1032 657h-688v-657h-170v1434h170v-625h688v625h170v-1434h-170v657z" />
    <glyph glyph-name="I" unicode="I" horiz-adv-x="596" 
d="M213 1434h170v-1434h-170v1434z" />
    <glyph glyph-name="J" unicode="J" horiz-adv-x="596" 
d="M229 1434l170 0.000976562v-1119c0 -108.667 -24.167 -191.667 -72.5 -249s-121.833 -86 -220.5 -86c-10.667 0 -24.167 0.666992 -40.5 2s-32.666 3.33301 -48.999 6s-32.333 6 -48 10s-28.5 8.66699 -38.5 14l33 146c38 -18 79.667 -27 125 -27
c57.333 0 95.166 20.167 113.499 60.5s27.5 95.166 27.5 164.499v1078z" />
    <glyph glyph-name="K" unicode="K" horiz-adv-x="1249" 
d="M440 664h-96v-664h-170v1434h170v-668l92 29l482 639h196l-479 -617l-86 -67l104 -82l525 -668h-215z" />
    <glyph glyph-name="L" unicode="L" horiz-adv-x="1059" 
d="M1022 0h-848v1434h170v-1282h678v-152z" />
    <glyph glyph-name="M" unicode="M" horiz-adv-x="1620" 
d="M1276 963l20 215h-10l-78 -197l-372 -647h-52l-395 649l-74 195h-10l29 -213v-965h-160v1434h127l449 -734l67 -159h4l64 164l428 729h133v-1434h-170v963z" />
    <glyph glyph-name="N" unicode="N" horiz-adv-x="1378" 
d="M432 938l-110 207h-9l21 -207v-938h-160v1456h90l686 -956l107 -197h10l-23 197v934h160v-1457h-90z" />
    <glyph glyph-name="O" unicode="O" horiz-adv-x="1401" 
d="M115 717c0 238.667 50.5 421.832 151.5 549.499s244.833 191.5 431.5 191.5c101.333 0 188.833 -17.667 262.5 -53s134.834 -85.5 183.501 -150.5s84.5 -142.833 107.5 -233.5s34.5 -192 34.5 -304c0 -239.333 -50.833 -422.833 -152.5 -550.5
s-246.834 -191.5 -435.501 -191.5c-99.333 0 -185.5 17.833 -258.5 53.5s-133.833 85.834 -182.5 150.501s-84.5 142.5 -107.5 233.5s-34.5 192.5 -34.5 304.5zM295 716.998c0 -79.333 7.83496 -154.501 23.502 -225.501s39.834 -133.5 72.501 -187.5s74.667 -97 126 -129
s111.666 -48 180.999 -48c127.333 0 227.166 48.167 299.499 144.5s108.5 244.833 108.5 445.5c0 78 -7.83301 152.833 -23.5 224.5s-40.334 134.334 -74.001 188.001s-76 96.667 -127 129s-112.167 48.5 -183.5 48.5c-125.333 0 -223.833 -48.167 -295.5 -144.5
s-107.5 -244.833 -107.5 -445.5z" />
    <glyph glyph-name="P" unicode="P" horiz-adv-x="1145" 
d="M174 1419c52 12.667 108 20.998 168 24.998s119.333 6 178 6c62.667 0 126.5 -6.16699 191.5 -18.5s124.167 -34.833 177.5 -67.5s96.666 -77.667 129.999 -135s50 -130.333 50 -219c0 -87.333 -15.667 -161.166 -47 -221.499s-73 -109.166 -125 -146.499
s-111.5 -64.166 -178.5 -80.499s-135.833 -24.5 -206.5 -24.5h-33.5c-15.667 0 -32.167 0.333008 -49.5 1s-34.166 1.66699 -50.499 3s-27.833 2.66602 -34.5 3.99902v-545h-170v1419zM524 1303c-35.333 0 -69.333 -0.832031 -102 -2.49902s-58.667 -5.16699 -78 -10.5v-594
c6.66699 -2.66699 17.5 -4.33398 32.5 -5.00098s30.833 -1.33398 47.5 -2.00098s32.5 -1 47.5 -1h32.5c46 0 92 4.5 138 13.5s87.333 25 124 48s66.334 55.667 89.001 98s34 96.5 34 162.5c0 56 -10.667 102.667 -32 140s-49.333 67.333 -84 90
s-73.834 38.834 -117.501 48.501s-87.5 14.5 -131.5 14.5z" />
    <glyph glyph-name="Q" unicode="Q" horiz-adv-x="1401" 
d="M1229 -241c-23.333 6.66699 -45.168 15.6689 -65.501 27.002s-40.166 23.666 -59.499 36.999c-41.333 29.333 -79.166 63.5 -113.499 102.5s-67 78 -98 117l-90 111c-29 35 -58.833 63.5 -89.5 85.5c-20 14 -40.333 24.333 -61 31l52 113
c13.333 -5.33301 25.833 -10.833 37.5 -16.5s23.5 -12.834 35.5 -21.501c34.667 -24.667 66.667 -54.667 96 -90l88.5 -110c29.667 -38 60.667 -75.667 93 -113s69.166 -71 110.499 -101c36.667 -26 75 -46.667 115 -62zM114.998 717.002
c0 238.667 50.5 421.832 151.5 549.499s244.833 191.5 431.5 191.5c101.333 0 188.833 -17.667 262.5 -53s134.834 -85.5 183.501 -150.5s84.5 -142.833 107.5 -233.5s34.5 -192 34.5 -304c0 -239.333 -50.833 -422.833 -152.5 -550.5s-246.834 -191.5 -435.501 -191.5
c-99.333 0 -185.5 17.833 -258.5 53.5s-133.833 85.834 -182.5 150.501s-84.5 142.5 -107.5 233.5s-34.5 192.5 -34.5 304.5zM294.998 717c0 -79.333 7.83496 -154.501 23.502 -225.501s39.834 -133.5 72.501 -187.5s74.667 -97 126 -129s111.666 -48 180.999 -48
c127.333 0 227.166 48.167 299.499 144.5s108.5 244.833 108.5 445.5c0 78 -7.83301 152.833 -23.5 224.5s-40.334 134.334 -74.001 188.001s-76 96.667 -127 129s-112.167 48.5 -183.5 48.5c-125.333 0 -223.833 -48.167 -295.5 -144.5s-107.5 -244.833 -107.5 -445.5z" />
    <glyph glyph-name="R" unicode="R" horiz-adv-x="1177" 
d="M163 1399c50.667 12.667 102.168 21.0029 154.501 25.0029s101.833 6 148.5 6c72 0 140.5 -7.16699 205.5 -21.5s121.667 -34.833 170 -61.5s86.5 -69.334 114.5 -128.001s42 -126.334 42 -203.001c0 -60 -8.5 -113.333 -25.5 -160s-40.833 -85.667 -71.5 -117
s-66.834 -58.333 -108.501 -81s-87.167 -39.334 -136.5 -50.001l125 -88l320 -520h-201l-356 590l-211 45v-635h-170v1399zM392.001 1289.5c-20.667 -2.33301 -40.332 -5.50098 -58.999 -9.50098v-547h139c48 0 92.833 5.5 134.5 16.5s78.167 28.333 109.5 52
s56.166 52.334 74.499 86.001s27.5 76.5 27.5 128.5c0 49.333 -9.5 92.333 -28.5 129s-44.5 66 -76.5 88s-68.5 37.5 -109.5 46.5s-84.167 13.5 -129.5 13.5c-34 0 -61.333 -1.16699 -82 -3.5z" />
    <glyph glyph-name="S" unicode="S" horiz-adv-x="1087" 
d="M821 365c0 57.333 -17 103.993 -51 139.993s-76.667 68 -128 96s-107 54.333 -167 79s-115.667 54.334 -167 89.001s-94 77.667 -128 129s-51 116.666 -51 195.999c0 112 38.833 200.667 116.5 266s188.5 98 332.5 98c82.667 0 158.167 -6.16699 226.5 -18.5
s121.833 -27.833 160.5 -46.5l-52 -150c-31.333 15.333 -77.333 29.833 -138 43.5s-129.334 20.5 -206.001 20.5c-90 0 -157.5 -20.167 -202.5 -60.5s-67.5 -87.833 -67.5 -142.5c0 -53.333 17 -97.666 51 -132.999s76.667 -67 128 -95s107 -55.667 167 -83
s115.667 -59.166 167 -95.499s94 -79.666 128 -129.999s51 -113.166 51 -188.499c0 -61.333 -10.833 -116.666 -32.5 -165.999s-53.667 -91.666 -96 -126.999s-93.666 -62.666 -153.999 -81.999s-128.5 -29 -204.5 -29c-102.667 0 -187.334 8 -254.001 24
s-118.667 33.333 -156 52l58 154c31.333 -18 77.666 -35.5 138.999 -52.5s130.333 -25.5 207 -25.5c44.667 0 86.834 4.5 126.501 13.5s73.834 23.333 102.501 43s51.5 44.5 68.5 74.5s25.5 65.667 25.5 107z" />
    <glyph glyph-name="T" unicode="T" horiz-adv-x="1137" 
d="M1100 1282h-447v-1282h-170v1282h-446v152h1063v-152z" />
    <glyph glyph-name="U" unicode="U" horiz-adv-x="1335" 
d="M997 1434l164 0.00195312v-957c0 -86 -11.167 -160.333 -33.5 -223s-54.333 -114.167 -96 -154.5s-91.834 -70 -150.501 -89s-123.667 -28.5 -195 -28.5c-169.333 0 -297 38.167 -383 114.5s-129 192.166 -129 347.499v990h170v-910c0 -72 7.16699 -133 21.5 -183
s35.833 -90.333 64.5 -121s64.5 -52.834 107.5 -66.501s93.167 -20.5 150.5 -20.5c110.667 0 189.834 30.333 237.501 91s71.5 160.667 71.5 300v910z" />
    <glyph glyph-name="V" unicode="V" horiz-adv-x="1163" 
d="M547 449l49 -218h2l53 222l346 981h170l-542 -1457h-76l-553 1457h186z" />
    <glyph glyph-name="W" unicode="W" horiz-adv-x="1696" 
d="M455 473l32 -237h2l35 241l295 957h82l297 -961l35 -237h2l37 241l241 957h166l-399 -1457h-94l-291 961l-37 217h-10l-37 -219l-291 -959h-94l-410 1457h181z" />
    <glyph glyph-name="X" unicode="X" horiz-adv-x="1266" 
d="M530 729l-436 705h205l291 -486l51 -117l49 117l307 486h189l-451 -691l471 -743h-198l-324 514l-55 123l-54 -123l-331 -514h-191z" />
    <glyph glyph-name="Y" unicode="Y" horiz-adv-x="1143" 
d="M489 569l-473 865h199l336 -627l35 -125h2l37 129l321 623h182l-469 -863v-571h-170v569z" />
    <glyph glyph-name="Z" unicode="Z" horiz-adv-x="1116" 
d="M78 154l723 1046l86 82h-809v152h962v-154l-727 -1053l-86 -75h813v-152h-962v154z" />
    <glyph glyph-name="bracketleft" unicode="[" horiz-adv-x="611" 
d="M120 1800h371v-160h-201v-1957h201v-163h-371v2280z" />
    <glyph glyph-name="backslash" unicode="\" horiz-adv-x="600" 
d="M-60 1680l600 -1920h180l-600 1920h-180z" />
    <glyph glyph-name="bracketright" unicode="]" horiz-adv-x="611" 
d="M491 -480h-371v163h201v1957h-201v160h371v-2280z" />
    <glyph glyph-name="asciicircum" unicode="^" horiz-adv-x="1024" 
d="M479 1456h60l346 -565h-168l-164 276l-47 142l-64 -144l-188 -274h-156z" />
    <glyph glyph-name="underscore" unicode="_" horiz-adv-x="1118" 
d="M1118 -152h-1116v152h1116v-152z" />
    <glyph glyph-name="grave" unicode="`" horiz-adv-x="573" 
d="M451 1169h-93l-235 263v43h194z" />
    <glyph glyph-name="a" unicode="a" horiz-adv-x="1016" 
d="M141 948c52 31.333 112.499 54.4971 181.499 69.4971s141.167 22.5 216.5 22.5c70.667 0 127.5 -9.5 170.5 -28.5s75.833 -43.833 98.5 -74.5s37.667 -64.5 45 -101.5s11 -73.833 11 -110.5c0 -82 -2 -161.833 -6 -239.5s-6 -151.5 -6 -221.5c0 -50.667 2 -98.5 6 -143.5
s11.667 -86.5 23 -124.5h-121l-43 143h-10c-12.667 -18.667 -28.167 -37.334 -46.5 -56.001s-40.5 -35.167 -66.5 -49.5s-56 -26.166 -90 -35.499s-73 -14 -117 -14c-43.333 0 -83.833 6.83301 -121.5 20.5s-70.167 33 -97.5 58s-48.833 55.333 -64.5 91
s-23.5 75.834 -23.5 120.501c0 60.667 12.333 111 37 151s59.167 72 103.5 96s97.5 41.167 159.5 51.5s130.667 15.5 206 15.5h56c18.667 0 37.334 -1.33301 56.001 -4c4.66699 40.667 7 77.334 7 110.001c0 75.333 -15.167 128 -45.5 158s-84.833 45 -163.5 45
c-23.333 0 -48.333 -1.66699 -75 -5s-54 -8.16602 -82 -14.499s-54.667 -13.833 -80 -22.5s-47.333 -18.667 -66 -30zM431.999 126.997c38 0 72.167 5.16699 102.5 15.5s56.333 23.333 78 39s39.667 33 54 52s24.833 37.5 31.5 55.5v170c-18.667 1.33301 -38 2.33301 -58 3
s-39.333 1 -58 1c-42.667 0 -84.167 -2.33301 -124.5 -7s-75.833 -13.5 -106.5 -26.5s-55.167 -30.833 -73.5 -53.5s-27.5 -51 -27.5 -85c0 -48 17 -87.333 51 -118s77.667 -46 131 -46z" />
    <glyph glyph-name="b" unicode="b" horiz-adv-x="1106" 
d="M158 1434l164.002 0.000976562v-510h8c31.333 39.333 71.166 70 119.499 92s101.166 33 158.499 33c132.667 0 232.167 -42.333 298.5 -127s99.5 -216 99.5 -394c0 -178.667 -43.833 -314.334 -131.5 -407.001s-210.5 -139 -368.5 -139c-76.667 0 -146 8.16699 -208 24.5
s-108.667 33.833 -140 52.5v1375zM580.002 905.001c-68.667 0 -124.165 -19.0029 -166.498 -57.0029s-72.833 -92 -91.5 -162v-516c25.333 -15.333 56.5 -26.666 93.5 -33.999s75.167 -11 114.5 -11c93.333 0 167.666 32.833 222.999 98.5s83 167.834 83 306.501
c0 53.333 -4.83301 103.333 -14.5 150s-24.834 86.334 -45.501 119.001s-47 58.5 -79 77.5s-71 28.5 -117 28.5z" />
    <glyph glyph-name="c" unicode="c" horiz-adv-x="924" 
d="M856 68c-40.667 -30 -89 -52.998 -145 -68.998s-114.667 -24 -176 -24c-79.333 0 -146.333 12.667 -201 38s-99.5 61.666 -134.5 108.999s-60.333 104 -76 170s-23.5 139.333 -23.5 220c0 173.333 38.333 306.166 115 398.499s186.667 138.5 330 138.5
c65.333 0 120.833 -5.16699 166.5 -15.5s87.167 -25.166 124.5 -44.499l-48 -141c-31.333 17.333 -66 31.166 -104 41.499s-79 15.5 -123 15.5c-194 0 -291 -131 -291 -393c0 -52 5.16699 -101.5 15.5 -148.5s27.5 -88.667 51.5 -125s55.333 -65.333 94 -87
s86.667 -32.5 144 -32.5c49.333 0 93.5 7.5 132.5 22.5s70.833 32.167 95.5 51.5z" />
    <glyph glyph-name="d" unicode="d" horiz-adv-x="1102" 
d="M944 352c0 -69.333 0.666992 -132.333 2 -189s7.66602 -112.334 18.999 -167.001h-111l-41 145h-8c-27.333 -47.333 -67 -86.833 -119 -118.5s-112.667 -47.5 -182 -47.5c-136.667 0 -238.167 43 -304.5 129s-99.5 220.667 -99.5 404
c0 174.667 41.333 307.334 124 398.001s196.334 136 341.001 136c50.667 0 90.667 -2.66699 120 -8s61 -14 95 -26v426h164v-1082zM530 119c70 0 125.5 18 166.5 54s68.833 91 83.5 165v508c-24.667 18.667 -52.667 32.167 -84 40.5s-73 12.5 -125 12.5
c-94 0 -167.667 -31 -221 -93s-80 -161.333 -80 -298c0 -56 4.5 -107.833 13.5 -155.5s23.667 -88.667 44 -123s47.333 -61.333 81 -81s74.167 -29.5 121.5 -29.5z" />
    <glyph glyph-name="e" unicode="e" horiz-adv-x="1040" 
d="M905 82c-40.667 -32.667 -92.167 -58.6641 -154.5 -77.9971s-128.166 -29 -197.499 -29c-78 0 -145.667 12.667 -203 38s-104.333 61.666 -141 108.999s-64 103.666 -82 168.999s-27 139 -27 221c0 174.667 39 307.834 117 399.501s189.333 137.5 334 137.5
c46.667 0 93.167 -5.16699 139.5 -15.5s87.833 -29.833 124.5 -58.5s66.667 -69.334 90 -122.001s35 -122 35 -208c0 -44.667 -4 -94.334 -12 -149.001h-658c0 -60 6.16699 -113.333 18.5 -160s31.5 -86 57.5 -118s59.833 -56.5 101.5 -73.5s92.5 -25.5 152.5 -25.5
c46.667 0 93.167 8.16699 139.5 24.5s81.166 35.5 104.499 57.5zM553 905.003c-80.667 0 -145.167 -21.167 -193.5 -63.5s-77.5 -114.5 -87.5 -216.5h508c0 103.333 -19.667 175.833 -59 217.5s-95.333 62.5 -168 62.5z" />
    <glyph glyph-name="f" unicode="f" horiz-adv-x="653" 
d="M45 1024l159.999 0.00390625v57c0 63.333 5.16699 118.166 15.5 164.499s27 84.166 50 113.499s53 51.166 90 65.499s82.833 21.5 137.5 21.5c43.333 0 81.833 -2.66699 115.5 -8s68.834 -15.666 105.501 -30.999l-37 -137c-31.333 13.333 -61 22.166 -89 26.499
s-54.333 6.5 -79 6.5c-35.333 0 -63 -5.5 -83 -16.5s-34.333 -27.167 -43 -48.5s-14 -47.333 -16 -78s-3 -66.334 -3 -107.001v-29h272v-143h-272v-881h-164v881h-160v143z" />
    <glyph glyph-name="g" unicode="g" horiz-adv-x="1100" 
d="M942 -47c0 -132.667 -35.167 -230.334 -105.5 -293.001s-174.5 -94 -312.5 -94c-82 0 -147.833 5.16699 -197.5 15.5s-92.167 23.5 -127.5 39.5l43 139c31.333 -12 66 -23.5 104 -34.5s88 -16.5 150 -16.5c57.333 0 104 5.16699 140 15.5s65 27.5 87 51.5
s37 54.667 45 92s12 82 12 134v98h-8c-27.333 -39.333 -62.166 -69.666 -104.499 -90.999s-97.5 -32 -165.5 -32c-138 0 -239.5 43.167 -304.5 129.5s-97.5 220.166 -97.5 401.499c0 174.667 41.667 307.334 125 398.001s206.333 136 369 136c78 0 144.667 -6 200 -18
s104.666 -26.333 147.999 -43v-1028zM530 121c70 0 124.834 17.333 164.501 52s67.5 89 83.5 163v524c-54.667 26 -124.334 39 -209.001 39c-92.667 0 -165.667 -31.333 -219 -94s-80 -161 -80 -295c0 -57.333 4.83301 -109.833 14.5 -157.5s24.667 -88.667 45 -123
s47 -61 80 -80s73.167 -28.5 120.5 -28.5z" />
    <glyph glyph-name="h" unicode="h" horiz-adv-x="1120" 
d="M815 0l0.000976562 583.999c0 53.333 -3 100 -9 140s-17.167 73.333 -33.5 100s-38.5 46.834 -66.5 60.501s-64.667 20.5 -110 20.5c-64 0 -122 -20.833 -174 -62.5s-85.333 -95.167 -100 -160.5v-682h-164v1434h164v-525h8c35.333 42.667 77.833 76.667 127.5 102
s111.5 38 185.5 38c57.333 0 107.166 -6.5 149.499 -19.5s77.5 -36 105.5 -69s48.5 -77.167 61.5 -132.5s19.5 -125.333 19.5 -210v-618h-164z" />
    <glyph glyph-name="i" unicode="i" horiz-adv-x="549" 
d="M193 1024h163v-1024h-163v1024zM158 1335c0 31.333 10.5 58.333 31.5 81s47.833 34 80.5 34s60.667 -11.333 84 -34s35 -49.667 35 -81s-11.667 -57.166 -35 -77.499s-51.333 -30.5 -84 -30.5s-59.5 10.167 -80.5 30.5s-31.5 46.166 -31.5 77.499z" />
    <glyph glyph-name="j" unicode="j" horiz-adv-x="547" 
d="M190 1024l164 -0.000976562v-1079c0 -127.333 -21.833 -222.333 -65.5 -285s-113.167 -94 -208.5 -94c-11.333 0 -21.666 0.333008 -30.999 1s-19.666 1.66699 -30.999 3v139c38.667 0 69.167 5.83301 91.5 17.5s39.666 29.834 51.999 54.501s20.166 55.667 23.499 93
s5 81.333 5 132v1018zM156 1335c0 31.333 10.5 58.333 31.5 81s47.833 34 80.5 34s60.667 -11.333 84 -34s35 -49.667 35 -81s-11.667 -57.166 -35 -77.499s-51.333 -30.5 -84 -30.5s-59.5 10.167 -80.5 30.5s-31.5 46.166 -31.5 77.499z" />
    <glyph glyph-name="k" unicode="k" horiz-adv-x="981" 
d="M416 461h-94v-461h-164v1434h164v-873l84 29l317 434h190l-313 -412l-84 -67l102 -82l343 -463h-203z" />
    <glyph glyph-name="l" unicode="l" horiz-adv-x="598" 
d="M340 252c0 -48 8.16699 -82.167 24.5 -102.5s39.5 -30.5 69.5 -30.5c18 0 37.167 1.33301 57.5 4s43.5 8.66699 69.5 18l19 -129c-22 -10.667 -52.5 -19.5 -91.5 -26.5s-72.833 -10.5 -101.5 -10.5c-61.333 0 -111.833 17.5 -151.5 52.5s-59.5 94.167 -59.5 177.5v1229
h164v-1182z" />
    <glyph glyph-name="m" unicode="m" horiz-adv-x="1663" 
d="M758 0l0.00390625 580c0 54.667 -2.5 102 -7.5 142s-14.333 73.667 -28 101s-33 47.833 -58 61.5s-58.167 20.5 -99.5 20.5c-62.667 0 -114.834 -19 -156.501 -57s-70.5 -85.667 -86.5 -143v-705h-164v1024h114l31 -125h8c37.333 44 80.166 80 128.499 108
s111.5 42 189.5 42c65.333 0 118.833 -12.667 160.5 -38s74.167 -69.333 97.5 -132c31.333 52.667 74.666 94.167 129.999 124.5s117.666 45.5 186.999 45.5c57.333 0 105.833 -6.5 145.5 -19.5s72.5 -36 98.5 -69s44.833 -77.5 56.5 -133.5s17.5 -127 17.5 -213v-614h-164
v616c0 49.333 -2.5 92.166 -7.5 128.499s-14.667 66.333 -29 90s-34 41.334 -59 53.001s-58.167 17.5 -99.5 17.5c-68 0 -121.167 -19 -159.5 -57s-65.5 -92.667 -81.5 -164v-684h-164z" />
    <glyph glyph-name="n" unicode="n" horiz-adv-x="1120" 
d="M815 0v584c0 106 -15.333 186 -46 240s-87 81 -169 81c-72 0 -131.667 -19.5 -179 -58.5s-80.333 -87.833 -99 -146.5v-700h-164v1024h114l31 -125h8c32.667 44 76.667 80 132 108s121.333 42 198 42c56 0 105.167 -6.5 147.5 -19.5s77.5 -36 105.5 -69
s49.167 -77.167 63.5 -132.5s21.5 -125.333 21.5 -210v-618h-164z" />
    <glyph glyph-name="o" unicode="o" 
d="M100 512c0 173.333 38.666 306.166 115.999 398.499s188.333 138.5 333 138.5c76.667 0 143.334 -12.667 200.001 -38s103.334 -61.666 140.001 -108.999s63.834 -104 81.501 -170s26.5 -139.333 26.5 -220c0 -173.333 -38.5 -306.166 -115.5 -398.499
s-187.833 -138.5 -332.5 -138.5c-76.667 0 -143.334 12.667 -200.001 38s-103.334 61.666 -140.001 108.999s-64 104 -82 170s-27 139.333 -27 220zM269.999 512c0 -52 5.16699 -101.832 15.5 -149.499s26.5 -89.334 48.5 -125.001s50.667 -64.334 86 -86.001
s78.333 -32.5 129 -32.5c185.333 -1.33301 278 129.667 278 393c0 53.333 -5 103.833 -15 151.5s-26 89.334 -48 125.001s-50.667 64 -86 85s-78.333 31.5 -129 31.5c-186 1.33301 -279 -129.667 -279 -393z" />
    <glyph glyph-name="p" unicode="p" horiz-adv-x="1108" 
d="M158 1024h112l31 -123h8c31.333 48 72 84.667 122 110s107 38 171 38c136.667 0 238.5 -40.333 305.5 -121s100.5 -212.667 100.5 -396c0 -86 -11.333 -163.333 -34 -232s-54.5 -127 -95.5 -175s-90.5 -85 -148.5 -111s-122.333 -39 -193 -39
c-50.667 0 -90.667 3.16699 -120 9.5s-61 16.833 -95 31.5v-426h-164v1434zM571 905c-69.333 0 -124.169 -18 -164.502 -54s-68.5 -91 -84.5 -165v-508c24 -18.667 51.833 -33.167 83.5 -43.5s73.167 -15.5 124.5 -15.5c94.667 0 169.667 35.167 225 105.5
s83 173.833 83 310.5c0 55.333 -4.83301 106 -14.5 152s-25.167 85 -46.5 117s-48.666 56.833 -81.999 74.5s-74.666 26.5 -123.999 26.5z" />
    <glyph glyph-name="q" unicode="q" horiz-adv-x="1100" 
d="M942 -410l-164 0.000976562v512h-8c-27.333 -40.667 -61.833 -72 -103.5 -94s-96.5 -33 -164.5 -33c-136.667 0 -237.834 43.5 -303.501 130.5s-98.5 221.167 -98.5 402.5c0 176 42.333 309 127 399s208.334 135 371.001 135c72.667 0 140.667 -6.83301 204 -20.5
s110 -27.834 140 -42.501v-1389zM530 119.001c70 0 124.834 17.665 164.501 52.998s67.5 90 83.5 164v524c-50.667 26 -120.334 39 -209.001 39c-94 0 -167.333 -31.667 -220 -95s-79 -161.333 -79 -294c0 -57.333 4.83301 -110.166 14.5 -158.499
s24.667 -89.666 45 -123.999s47 -61 80 -80s73.167 -28.5 120.5 -28.5z" />
    <glyph glyph-name="r" unicode="r" horiz-adv-x="696" 
d="M641 866c-40.667 14 -79.666 21 -116.999 21c-58.667 0 -105 -16 -139 -48s-55 -72.667 -63 -122v-717h-164v1024h114l31 -125h8c26 46.667 57.167 82.5 93.5 107.5s82.5 37.5 138.5 37.5c39.333 0 83.666 -6.66699 132.999 -20z" />
    <glyph glyph-name="s" unicode="s" horiz-adv-x="862" 
d="M608 279c0 40.667 -12.166 72.666 -36.499 95.999s-54.666 42.833 -90.999 58.5s-76 30.667 -119 45s-82.667 32.666 -119 54.999s-66.666 51.333 -90.999 87s-36.5 83.5 -36.5 143.5c0 98 28 170 84 216s133.667 69 233 69c74 0 135.833 -6.5 185.5 -19.5
s93.167 -28.5 130.5 -46.5l-39 -135c-31.333 14.667 -69.333 27.834 -114 39.501s-92 17.5 -142 17.5c-60.667 0 -104.834 -10.167 -132.501 -30.5s-41.5 -55.833 -41.5 -106.5c0 -35.333 12.167 -63 36.5 -83s54.666 -37.833 90.999 -53.5s76 -31 119 -46
s82.5 -34.833 118.5 -59.5s66.333 -55.667 91 -93s37 -86.666 37 -147.999c0 -44 -7.16699 -85.167 -21.5 -123.5s-36.5 -71 -66.5 -98s-67.167 -48.5 -111.5 -64.5s-96.5 -24 -156.5 -24c-78 0 -144.333 7.5 -199 22.5s-100.334 32.833 -137.001 53.5l49 139
c31.333 -17.333 72.333 -33.5 123 -48.5s102 -22.5 154 -22.5c58.667 0 107 11.5 145 34.5s57 64.833 57 125.5z" />
    <glyph glyph-name="t" unicode="t" horiz-adv-x="694" 
d="M23 1024h158.998v203l164 47v-250h279v-143h-279v-568c0 -70.667 8.83301 -120.667 26.5 -150s47.834 -44 90.501 -44c35.333 0 65.333 3.66699 90 11s52 17.333 82 30l37 -125c-37.333 -18 -77.833 -32.5 -121.5 -43.5s-90.5 -16.5 -140.5 -16.5
c-83.333 0 -142.166 23.667 -176.499 71s-51.5 126.333 -51.5 237v598h-159v143z" />
    <glyph glyph-name="u" unicode="u" horiz-adv-x="1104" 
d="M305 1024l-0.00195312 -583.999c0 -53.333 3.16699 -100 9.5 -140s17 -73.333 32 -100s35.333 -46.834 61 -60.501s58.5 -20.5 98.5 -20.5c36.667 0 69.334 5.83301 98.001 17.5s54.334 27.667 77.001 48s42.5 43.833 59.5 70.5s30.833 55 41.5 85v684h164v-733
c0 -49.333 1.66699 -100.333 5 -153s9.33301 -98.667 18 -138h-113l-41 162h-10c-31.333 -53.333 -73.666 -97.833 -126.999 -133.5s-121 -53.5 -203 -53.5c-54.667 0 -102.834 6.5 -144.501 19.5s-76.5 36 -104.5 69s-49.167 77.167 -63.5 132.5s-21.5 125.333 -21.5 210
v618h164z" />
    <glyph glyph-name="v" unicode="v" horiz-adv-x="987" 
d="M453 424l57 -195h2l51 199l230 596h176l-437 -1047h-69l-445 1047h189z" />
    <glyph glyph-name="w" unicode="w" horiz-adv-x="1505" 
d="M821 1024l236 -598l51 -197h4l39 201l182 594h156l-344 -1047h-80l-268 676l-39 168h-6l-41 -170l-258 -674h-80l-357 1047h179l202 -596l35 -199h2l49 203l219 592h119z" />
    <glyph glyph-name="x" unicode="x" horiz-adv-x="1055" 
d="M426 524l-344 500h201l194 -283l58 -116l59 116l199 283h184l-346 -492l366 -532h-194l-217 311l-62 123l-63 -123l-221 -311h-183z" />
    <glyph glyph-name="y" unicode="y" horiz-adv-x="954" 
d="M459 360l57 -196.001h10l45 198l199 662h166l-303 -920l-69 -194c-22.667 -62.667 -47.5 -118.667 -74.5 -168s-57.667 -88.666 -92 -117.999s-73.833 -44 -118.5 -44c-49.333 0 -89.666 7 -120.999 21l28 141c18 -6.66699 35.333 -10 52 -10
c38 0 74.667 20.167 110 60.5s64.666 109.5 87.999 207.5l-411 1024h188z" />
    <glyph glyph-name="z" unicode="z" horiz-adv-x="915" 
d="M86 143l473 652l86 86h-559v143h729v-143l-477 -658l-84 -80h561v-143h-729v143z" />
    <glyph glyph-name="braceleft" unicode="{" horiz-adv-x="712" 
d="M284 357c0 83.333 -14.333 140.168 -43 170.501s-69 45.5 -121 45.5v171c52 0 92.333 16.333 121 49s43 85 43 157v593c0 76.667 16 138.667 48 186s80.667 71 146 71h174v-172h-102c-36.667 0 -63.667 -11 -81 -33s-26 -59.333 -26 -112v-580
c0 -71.333 -14.333 -125.833 -43 -163.5s-62 -60.5 -100 -68.5v-15c36.667 -6.66699 69.667 -31.667 99 -75s44 -99.333 44 -168v-577c0 -50.667 8.16699 -87.5 24.5 -110.5s44.5 -34.5 84.5 -34.5h100v-171h-174c-61.333 0 -109 21.667 -143 65s-51 106.666 -51 189.999
v582z" />
    <glyph glyph-name="bar" unicode="|" horiz-adv-x="487" 
d="M174 1434h139v-1700h-139v1700z" />
    <glyph glyph-name="braceright" unicode="}" horiz-adv-x="712" 
d="M428 -225c0 -83.333 -17 -146.668 -51 -190.001s-81.667 -65 -143 -65h-174v171h100c40 0 68.167 11.5 84.5 34.5s24.5 59.833 24.5 110.5v577c0 68.667 14.667 124.667 44 168s62.333 68.333 99 75v15c-38 8 -71.333 30.833 -100 68.5s-43 92.167 -43 163.5v580
c0 52.667 -8.66699 90 -26 112s-44.333 33 -81 33h-102v172h174c65.333 0 114 -23.667 146 -71s48 -109.333 48 -186v-593c0 -72 14.333 -124.333 43 -157s69 -49 121 -49v-171c-52 0 -92.333 -15.167 -121 -45.5s-43 -87.166 -43 -170.499v-582z" />
    <glyph glyph-name="asciitilde" unicode="~" horiz-adv-x="1034" 
d="M63 739c59.333 45.333 112.832 76.8311 160.499 94.498s91.167 26.5 130.5 26.5c38.667 0 74.334 -5.83301 107.001 -17.5s64 -24.667 94 -39s59.333 -27.166 88 -38.499s58.667 -17 90 -17c26 0 52.667 5.33301 80 16s56.666 29.667 87.999 57l70 -125
c-52 -35.333 -98.833 -60.166 -140.5 -74.499s-79.5 -21.5 -113.5 -21.5c-36.667 0 -70.5 5.83301 -101.5 17.5s-60.5 24.667 -88.5 39s-56 27.333 -84 39s-58.333 17.5 -91 17.5c-31.333 0 -64.666 -7.16699 -99.999 -21.5s-75 -39.5 -119 -75.5z" />
    <glyph glyph-name="nonbreakingspace" unicode="&#xa0;" horiz-adv-x="547" 
 />
    <glyph glyph-name="exclamdown" unicode="&#xa1;" horiz-adv-x="623" 
d="M360 -410h-170v711l35 361h101l34 -361v-711zM158 928c0 36.667 10.5 65.667 31.5 87s49.167 32 84.5 32c37.333 0 66.833 -10.667 88.5 -32s32.5 -50.333 32.5 -87c0 -36 -10.833 -64.833 -32.5 -86.5s-51.167 -32.5 -88.5 -32.5c-35.333 0 -63.5 10.833 -84.5 32.5
s-31.5 50.5 -31.5 86.5z" />
    <glyph glyph-name="cent" unicode="&#xa2;" horiz-adv-x="1116" 
d="M944 68c-32.667 -23.333 -69.832 -42.1709 -111.499 -56.5039s-86.5 -24.166 -134.5 -29.499v-187h-145v185c-68 6.66699 -125.667 24 -173 52s-86 64.833 -116 110.5s-51.833 99.834 -65.5 162.501s-20.5 131.667 -20.5 207c0 157.333 32.5 281.333 97.5 372
s157.5 143.334 277.5 158.001v187h145v-182c48 -3.33301 90.5 -10 127.5 -20s70.5 -22.667 100.5 -38l-47 -139c-27.333 13.333 -57.833 24.833 -91.5 34.5s-68.167 15.834 -103.5 18.501v-784c44 2.66699 83.667 11.167 119 25.5s64.666 30.5 87.999 48.5zM348.002 511.995
c0 -45.333 3.83105 -88.8311 11.498 -130.498s20.334 -79.834 38.001 -114.501s40.834 -64.334 69.501 -89.001s64 -41.667 106 -51v772c-150 -28.667 -225 -157.667 -225 -387z" />
    <glyph glyph-name="sterling" unicode="&#xa3;" horiz-adv-x="1116" 
d="M102 784l135.998 0.000976562c-16.667 36 -30.5 75.167 -41.5 117.5s-16.5 92.166 -16.5 149.499c0 133.333 38.333 234.5 115 303.5s181 103.5 313 103.5c83.333 0 155.833 -6.16699 217.5 -18.5s112.167 -27.833 151.5 -46.5l-53 -146
c-31.333 15.333 -73.333 29.166 -126 41.499s-116.667 18.5 -192 18.5c-82 0 -145.167 -22.167 -189.5 -66.5s-66.5 -104.166 -66.5 -179.499c0 -57.333 6.83301 -107.833 20.5 -151.5s30.167 -85.5 49.5 -125.5h330v-143h-269c11.333 -31.333 20.333 -64 27 -98
s10 -71.667 10 -113c0 -40.667 -6.16699 -82.5 -18.5 -125.5s-30.833 -78.167 -55.5 -105.5l-79 -68v-8l127 29h524v-152h-914v147c44 0 81.333 8 112 24s55.834 36.5 75.501 61.5s34.334 53.667 44.001 86s14.5 64.833 14.5 97.5c0 44.667 -4.33301 85.167 -13 121.5
s-20 70.833 -34 103.5h-199v143z" />
    <glyph glyph-name="currency" unicode="&#xa4;" horiz-adv-x="1116" 
d="M143 1221l160 -157.999l43 -72c57.333 45.333 127.666 68 210.999 68c80.667 0 151 -22.667 211 -68l45 72l160 158l100 -101l-158 -159l-71 -46c43.333 -58.667 65 -128 65 -208c0 -82 -21.667 -152.333 -65 -211l71 -43l158 -160l-100 -98l-160 157l-43 68
c-58.667 -42.667 -129.667 -64 -213 -64c-84.667 0 -155 21.333 -211 64l-43 -68l-160 -157l-100 98l158 160l69 45c-42 57.333 -63 127 -63 209c0 39.333 5.83301 76.666 17.5 111.999s26.834 68.333 45.501 99l-69 43l-158 159zM348 707.001
c0 -62 19.5 -113.333 58.5 -154s89.167 -61 150.5 -61s111.833 20.333 151.5 61s59.5 92 59.5 154c0 61.333 -19.833 112.833 -59.5 154.5s-90.167 62.5 -151.5 62.5s-111.5 -20.833 -150.5 -62.5s-58.5 -93.167 -58.5 -154.5z" />
    <glyph glyph-name="yen" unicode="&#xa5;" horiz-adv-x="1116" 
d="M227 672h193l-416 762h199l336 -627l34 -125h2l37 129l322 623h182l-416 -762h197v-123h-250v-146h250v-122h-250v-281h-170v281h-250v122h250v146h-250v123z" />
    <glyph glyph-name="brokenbar" unicode="&#xa6;" horiz-adv-x="487" 
d="M174 422h139v-688h-139v688zM313 745h-139v689h139v-689z" />
    <glyph glyph-name="section" unicode="&#xa7;" horiz-adv-x="1018" 
d="M117 723c0 42 10.5039 83.1699 31.5039 123.503s49.167 76.166 84.5 107.499l84 29c-35.333 22 -64.833 49.667 -88.5 83s-35.5 78 -35.5 134c0 76.667 28.167 138.834 84.5 186.501s135.166 71.5 236.499 71.5c74 0 136.5 -6.16699 187.5 -18.5
s95.167 -27.166 132.5 -44.499l-39 -138c-33.333 15.333 -72.5 28.833 -117.5 40.5s-91.833 17.5 -140.5 17.5c-62 0 -107.667 -11 -137 -33s-44 -51.333 -44 -88c0 -35.333 13.333 -63 40 -83s60.5 -37.5 101.5 -52.5s84.667 -30 131 -45s90 -34.333 131 -58
s74.833 -55 101.5 -94s40 -89.167 40 -150.5c0 -42.667 -10.167 -83.834 -30.5 -123.501s-48.5 -75.167 -84.5 -106.5l-92 -28c37.333 -22 68.5 -50.167 93.5 -84.5s37.5 -79.5 37.5 -135.5c0 -42 -8.16699 -79 -24.5 -111s-39.166 -59 -68.499 -81
s-63.833 -38.5 -103.5 -49.5s-81.834 -16.5 -126.501 -16.5c-76.667 0 -139.5 6.5 -188.5 19.5s-92.833 29.167 -131.5 48.5l41 133c31.333 -14.667 69.166 -27.834 113.499 -39.501s92.5 -17.5 144.5 -17.5c57.333 0 101.833 9.16699 133.5 27.5s47.5 49.5 47.5 93.5
c0 35.333 -13.333 63.166 -40 83.499s-60.5 38 -101.5 53s-84.833 30 -131.5 45s-90.334 34.5 -131.001 58.5s-74.334 55.167 -101.001 93.5s-40 88.166 -40 149.499zM737.004 707.003c0 34 -8.83398 61.8311 -26.501 83.498s-41.167 40.334 -70.5 56.001
s-62.5 29.334 -99.5 41.001s-73.833 24.5 -110.5 38.5c-39.333 -18 -74 -43.333 -104 -76s-45 -73.667 -45 -123c0 -34 8.83301 -62 26.5 -84s40.5 -40.833 68.5 -56.5s60 -29 96 -40s72.667 -23.167 110 -36.5c18.667 8 37.334 18.833 56.001 32.5s35.5 29 50.5 46
s26.833 35.5 35.5 55.5s13 41 13 63z" />
    <glyph glyph-name="dieresis" unicode="&#xa8;" horiz-adv-x="842" 
d="M123 1337c0 31.333 9.16699 56.666 27.5 75.999s42.5 29 72.5 29s54.333 -9.66699 73 -29s28 -44.666 28 -75.999c0 -28.667 -9.33301 -52.5 -28 -71.5s-43 -28.5 -73 -28.5s-54.167 9.5 -72.5 28.5s-27.5 42.833 -27.5 71.5zM516 1337
c0 31.333 9.16699 56.666 27.5 75.999s42.5 29 72.5 29c32 0 57.167 -9.66699 75.5 -29s27.5 -44.666 27.5 -75.999c0 -28.667 -9.16699 -52.5 -27.5 -71.5s-43.5 -28.5 -75.5 -28.5c-30 0 -54.167 9.5 -72.5 28.5s-27.5 42.833 -27.5 71.5z" />
    <glyph glyph-name="copyright" unicode="&#xa9;" horiz-adv-x="1651" 
d="M104 594c0 113.333 19.167 214.666 57.5 303.999s90.333 164.833 156 226.5s142.167 108.834 229.5 141.501s180 49 278 49c98.667 0 191.667 -16.333 279 -49s163.833 -79.834 229.5 -141.501s117.5 -137.167 155.5 -226.5s57 -190.666 57 -303.999
s-19 -214.666 -57 -303.999s-89.833 -164.833 -155.5 -226.5s-142.167 -108.834 -229.5 -141.501s-180.333 -49 -279 -49c-108.667 0 -207.5 16.333 -296.5 49s-164.833 79.834 -227.5 141.501s-111.167 137.167 -145.5 226.5s-51.5 190.666 -51.5 303.999zM248 594
c0 -94 15 -177.667 45 -251s71 -134.5 123 -183.5s113.167 -86.5 183.5 -112.5s145.5 -39 225.5 -39c80.667 0 156.167 13 226.5 39s131.5 63.5 183.5 112.5s93 110.167 123 183.5s45 157 45 251s-15 177.5 -45 250.5s-71 134.167 -123 183.5s-113.167 87 -183.5 113
s-145.833 39 -226.5 39c-80 0 -155.167 -13 -225.5 -39s-131.5 -63.667 -183.5 -113s-93 -110.5 -123 -183.5s-45 -156.5 -45 -250.5zM1063 260c-31.333 -18 -66.501 -31.667 -105.501 -41s-84.5 -14 -136.5 -14c-110.667 0 -195 34.833 -253 104.5s-87 164.5 -87 284.5
c0 124 31.167 219.833 93.5 287.5s144.5 101.5 246.5 101.5c24.667 0 47 -1.33301 67 -4s38.5 -6.33398 55.5 -11.001s33.667 -10.5 50 -17.5s34.833 -14.5 55.5 -22.5l-54 -125c-30 14.667 -58.667 24.834 -86 30.501s-50.333 8.5 -69 8.5
c-57.333 0 -104.166 -17.833 -140.499 -53.5s-54.5 -100.5 -54.5 -194.5c0 -79.333 17.833 -140.5 53.5 -183.5s88.167 -65.167 157.5 -66.5c64 0 118.667 12.333 164 37z" />
    <glyph glyph-name="ordfeminine" unicode="&#xaa;" horiz-adv-x="791" 
d="M139 1386c34 18 78.999 33.167 134.999 45.5s118.333 18.5 187 18.5c84.667 0 142.667 -17.833 174 -53.5s47 -86.834 47 -153.501c0 -52 -1 -101.833 -3 -149.5s-3 -93.5 -3 -137.5c0 -32.667 1 -64 3 -94s6.33301 -58 13 -84h-112l-27 94h-8
c-18 -22.667 -43.333 -45.334 -76 -68.001s-78.334 -34 -137.001 -34c-71.333 0 -128.166 17.333 -170.499 52s-63.5 82.334 -63.5 143.001c0 42 10.333 77.333 31 106s48.334 51.834 83.001 69.501s75.667 30.667 123 39s98 12.5 152 12.5c10 0 19.333 -0.333008 28 -1
s18 -1 28 -1c1.33301 8 2 15.833 2 23.5v21.5c0 36.667 -8.16699 62.5 -24.5 77.5s-47.833 22.5 -94.5 22.5c-54.667 0 -104.5 -5 -149.5 -15s-80.5 -22 -106.5 -36zM353.999 885c28.667 0 53.667 3.33008 75 9.99707s39.5 15.834 54.5 27.501s27.333 24 37 37
s17.167 25.5 22.5 37.5v86c-15.333 1.33301 -29.833 2 -43.5 2h-42.5c-28.667 0 -56 -1.33301 -82 -4s-49 -8 -69 -16s-35.667 -19.167 -47 -33.5s-17 -33.166 -17 -56.499c0 -27.333 9.83301 -49.166 29.5 -65.499s47.167 -24.5 82.5 -24.5z" />
    <glyph glyph-name="guillemotleft" unicode="&#xab;" horiz-adv-x="979" 
d="M455 530l323 467l109 -86l-199 -295l-98 -84l98 -73l211 -289l-106 -88zM80 530l328 471l110 -88l-201 -297l-98 -84l98 -73l213 -291l-110 -90z" />
    <glyph glyph-name="logicalnot" unicode="&#xac;" horiz-adv-x="1034" 
d="M84 803h868v-393h-147v245h-721v148z" />
    <glyph glyph-name="softhyphen" unicode="&#xad;" horiz-adv-x="737" 
d="M119 666h499v-152h-499v152z" />
    <glyph glyph-name="registered" unicode="&#xae;" horiz-adv-x="1434" 
d="M174 924c0 87.333 14.333 164.666 43 231.999s68 124 118 170s107.667 80.833 173 104.5s135 35.5 209 35.5c74.667 0 145.167 -11.833 211.5 -35.5s124.166 -58.5 173.499 -104.5s88 -102.667 116 -170s42 -144.666 42 -231.999s-14.333 -164.833 -43 -232.5
s-68 -124.334 -118 -170.001s-107.833 -80.5 -173.5 -104.5s-135.167 -36 -208.5 -36c-76.667 0 -147.667 12 -213 36s-122.666 58.833 -171.999 104.5s-88 102.334 -116 170.001s-42 145.167 -42 232.5zM303 924c0 -71.333 11.0039 -133.333 33.0039 -186
s51.667 -96.334 89 -131.001s81.333 -60.834 132 -78.501s104 -26.5 160 -26.5c58.667 0 113.167 8.5 163.5 25.5s94 42.833 131 77.5s66 78.334 87 131.001s31.5 115.334 31.5 188.001c0 70.667 -10.833 132.334 -32.5 185.001s-51.334 96.334 -89.001 131.001
s-81.334 61 -131.001 79s-103.167 27 -160.5 27c-60 0 -115.333 -9 -166 -27s-94.334 -44.333 -131.001 -79s-65.334 -78.334 -86.001 -131.001s-31 -114.334 -31 -185.001zM506.004 1190c22 6.66699 52.667 11.668 92 15.001s77 5 113 5
c57.333 0 106.5 -11.833 147.5 -35.5s61.5 -64.834 61.5 -123.501c0 -44 -14 -77.667 -42 -101s-62.667 -36.333 -104 -39l57 -28l152 -224h-125l-147 213l-99 31v-244h-106v531zM688.004 1118c-14.667 0 -28.832 -0.333008 -42.499 -1s-24.834 -3 -33.501 -7v-145h70
c39.333 0 70 6 92 18s33 33.333 33 64c0 47.333 -39.667 71 -119 71z" />
    <glyph glyph-name="macron" unicode="&#xaf;" horiz-adv-x="852" 
d="M123 1317h606v-127h-606v127z" />
    <glyph glyph-name="degree" unicode="&#xb0;" horiz-adv-x="870" 
d="M174 1169c0 42.667 7.5 81.667 22.5 117s35.5 65.666 61.5 90.999s56.667 45.166 92 59.499s73 21.5 113 21.5c39.333 0 76.833 -6.5 112.5 -19.5s66.5 -32.167 92.5 -57.5s46.5 -55.666 61.5 -90.999s22.5 -75.666 22.5 -120.999c0 -44.667 -7.5 -84.834 -22.5 -120.501
s-35.5 -66 -61.5 -91s-56.833 -44 -92.5 -57s-73.167 -19.5 -112.5 -19.5c-40 0 -77.667 6.5 -113 19.5s-66 32 -92 57s-46.5 55.333 -61.5 91s-22.5 75.834 -22.5 120.501zM303 1169c0 -51.333 16 -91.666 48 -120.999s69.333 -44 112 -44c42 0 79.167 14.667 111.5 44
s48.5 69.666 48.5 120.999c0 52 -16.167 92.667 -48.5 122s-69.5 44 -111.5 44c-42.667 0 -80 -14.667 -112 -44s-48 -70 -48 -122z" />
    <glyph glyph-name="plusminus" unicode="&#xb1;" horiz-adv-x="1034" 
d="M82 1010h360v370h148v-370h360v-148h-360v-246h-148v246h-360v148zM82 512h868v-147h-868v147z" />
    <glyph glyph-name="twosuperior" unicode="&#xb2;" horiz-adv-x="807" 
d="M653 1413c0 -42 -7.16797 -82.833 -21.501 -122.5s-33.333 -78.667 -57 -117s-52 -76.333 -85 -114s-67.833 -75.5 -104.5 -113.5l-94 -65v-4l117 30h286v-129h-596v68c31.333 26 70.666 60.833 117.999 104.5s92.833 90.667 136.5 141s80.834 102.166 111.501 155.499
s46 102.666 46 147.999c0 42 -13.667 73.667 -41 95s-60.666 32 -99.999 32c-37.333 0 -73.333 -6.5 -108 -19.5s-65 -27.833 -91 -44.5l-45 117c35.333 24.667 76.5 43.834 123.5 57.501s95.167 20.5 144.5 20.5c86 0 150.833 -21.167 194.5 -63.5
s65.5 -101.166 65.5 -176.499z" />
    <glyph glyph-name="threesuperior" unicode="&#xb3;" horiz-adv-x="807" 
d="M346 887c65.333 0 115.5 12.998 150.5 38.998s52.5 64 52.5 114c0 44 -15.667 79.667 -47 107s-82 41 -152 41h-112v47l198 237l70 56l-100 -13h-267v123h525v-67l-211 -252l-52 -37v-4l48 6c74.667 -1.33301 133.834 -23.833 177.501 -67.5s65.5 -102.5 65.5 -176.5
c0 -83.333 -30.333 -150.166 -91 -200.499s-141.667 -75.5 -243 -75.5c-48.667 0 -90.834 4 -126.501 12s-67.167 17 -94.5 27l31 123c23.333 -11.333 50 -20.666 80 -27.999s62.667 -11 98 -11z" />
    <glyph glyph-name="acute" unicode="&#xb4;" horiz-adv-x="549" 
d="M244 1475h182v-43l-207 -263h-96z" />
    <glyph glyph-name="mu" unicode="&#xb5;" horiz-adv-x="1130" 
d="M303 1024l0.000976562 -580c0 -107.333 16.667 -188.333 50 -243s91.666 -82 174.999 -82c75.333 0 139 22.167 191 66.5s88 102.5 108 174.5v664h164v-690c0 -56 1.66699 -112.333 5 -169s12 -111.667 26 -165h-113l-57 152h-8c-27.333 -48 -69.333 -89.5 -126 -124.5
s-126 -52.5 -208 -52.5c-65.333 0 -115.5 9.66699 -150.5 29s-64.833 44 -89.5 74h-10l43 -215v-273h-164v1434h164z" />
    <glyph glyph-name="mu" unicode="&#x3bc;" horiz-adv-x="1130" 
d="M303 1024l0.000976562 -580c0 -107.333 16.667 -188.333 50 -243s91.666 -82 174.999 -82c75.333 0 139 22.167 191 66.5s88 102.5 108 174.5v664h164v-690c0 -56 1.66699 -112.333 5 -169s12 -111.667 26 -165h-113l-57 152h-8c-27.333 -48 -69.333 -89.5 -126 -124.5
s-126 -52.5 -208 -52.5c-65.333 0 -115.5 9.66699 -150.5 29s-64.833 44 -89.5 74h-10l43 -215v-273h-164v1434h164z" />
    <glyph glyph-name="paragraph" unicode="&#xb6;" horiz-adv-x="1012" 
d="M698 1434h140v-1700h-140v1700zM379 635c-44 0 -84.332 11.165 -120.999 33.498s-68.334 52.333 -95.001 90s-47.834 80.834 -63.501 129.501s-23.5 98 -23.5 148c0 50.667 7.83301 99.834 23.5 147.501s38.5 90 68.5 127s66.833 66.833 110.5 89.5s92.834 34 147.501 34
h92v-1700h-139v901z" />
    <glyph glyph-name="periodcentered" unicode="&#xb7;" horiz-adv-x="547" 
d="M155 612c0 37.333 10.833 66.666 32.5 87.999s50.167 32 85.5 32c36.667 0 66.167 -10.667 88.5 -32s33.5 -50.666 33.5 -87.999c0 -35.333 -11.167 -64.166 -33.5 -86.499s-51.833 -33.5 -88.5 -33.5c-35.333 0 -63.833 11.167 -85.5 33.5s-32.5 51.166 -32.5 86.499z
" />
    <glyph glyph-name="cedilla" unicode="&#xb8;" horiz-adv-x="588" 
d="M352 0l-49 -87.999c57.333 -10.667 98.666 -28.334 123.999 -53.001s38 -58.334 38 -101.001c0 -53.333 -21.833 -97.333 -65.5 -132s-105.167 -52 -184.5 -52c-14.667 0 -29.667 0.666992 -45 2s-31 3.33301 -47 6l18 80c8.66699 -1.33301 16.334 -2 23.001 -2h20
c30 0 53.667 2.66699 71 8s30.333 11.833 39 19.5s14 16.334 16 26.001s3 18.5 3 26.5c0 38 -58.667 63.333 -176 76l99 184h116z" />
    <glyph glyph-name="onesuperior" unicode="&#xb9;" horiz-adv-x="807" 
d="M147 903h218v520l14 74l-55 -57l-160 -97l-55 101l315 209h84v-750h194v-125h-555v125z" />
    <glyph glyph-name="ordmasculine" unicode="&#xba;" horiz-adv-x="815" 
d="M90 1110c0 61.333 8.16699 113.83 24.5 157.497s38.5 79.834 66.5 108.501s61.5 49.5 100.5 62.5s81.167 19.5 126.5 19.5c44.667 0 86.5 -6.16699 125.5 -18.5s72.5 -32.166 100.5 -59.499s50.167 -63.166 66.5 -107.499s24.5 -98.5 24.5 -162.5
s-8.16699 -118.167 -24.5 -162.5s-38.5 -80.166 -66.5 -107.499s-61.5 -47.166 -100.5 -59.499s-80.833 -18.5 -125.5 -18.5c-45.333 0 -87.5 6.16699 -126.5 18.5s-72.5 32.166 -100.5 59.499s-50.167 63.166 -66.5 107.499s-24.5 98.5 -24.5 162.5zM242 1110
c0 -82 14.667 -140.665 44 -175.998s70 -53 122 -53c25.333 0 48.333 3.66699 69 11s38.167 19.5 52.5 36.5s25.166 40.167 32.499 69.5s11 66.666 11 111.999s-3.66699 82.666 -11 111.999s-18.166 52.5 -32.499 69.5s-31.833 29.167 -52.5 36.5s-43.667 11 -69 11
c-52 0 -92.667 -16 -122 -48s-44 -92.333 -44 -181z" />
    <glyph glyph-name="guillemotright" unicode="&#xbb;" horiz-adv-x="979" 
d="M526 549l-327 -467l-107 86l197 295l100 84l-100 74l-209 288l106 88zM899 549l-328 -471l-110 88l201 297l98 84l-98 74l-213 290l108 90z" />
    <glyph glyph-name="onequarter" unicode="&#xbc;" horiz-adv-x="1714" 
d="M1286 1460l106 -71l-997 -1414l-106 74zM1632 197h-170v-197h-137v197h-418v76l463 618h92v-573h170v-121zM1325 580l12 100h-4l-45 -94l-160 -215l-67 -64l102 11h162v262zM367 1219l14 73l-57 -57l-160 -96l-55 100l315 209h86v-875h-143v646z" />
    <glyph glyph-name="onehalf" unicode="&#xbd;" horiz-adv-x="1741" 
d="M1286 1460l106 -71l-997 -1414l-106 74zM1618 635c0 -42 -7.16797 -82.833 -21.501 -122.5s-33.333 -78.667 -57 -117s-52 -76.333 -85 -114s-67.833 -75.5 -104.5 -113.5l-94 -65v-4l117 30h286v-129h-596v68c31.333 26 70.666 60.833 117.999 104.5
s92.833 90.667 136.5 141s80.834 102.166 111.501 155.499s46 102.666 46 147.999c0 42 -13.667 73.667 -41 95s-60.666 32 -99.999 32c-37.333 0 -73.333 -6.5 -108 -19.5s-65 -27.833 -91 -44.5l-45 117c35.333 24.667 76.5 43.834 123.5 57.501s95.167 20.5 144.5 20.5
c86 0 150.833 -21.167 194.5 -63.5s65.5 -101.166 65.5 -176.499zM366.999 1219l14 73l-57 -57l-160 -96l-55 100l315 209h86v-875h-143v646z" />
    <glyph glyph-name="threequarters" unicode="&#xbe;" horiz-adv-x="1794" 
d="M1366 1460l106 -71l-997 -1414l-106 74zM1712 197h-170v-197h-137v197h-418v76l463 618h92v-573h170v-121zM1405 580l12 100h-4l-45 -94l-160 -215l-67 -64l102 11h162v262zM364 682c65.333 0 115.5 12.998 150.5 38.998s52.5 64 52.5 114c0 44 -15.667 79.667 -47 107
s-82 41 -152 41h-112v47l198 237l70 56l-100 -13h-267v123h525v-67l-211 -252l-52 -37v-4l48 6c74.667 -1.33301 133.834 -23.833 177.501 -67.5s65.5 -102.5 65.5 -176.5c0 -83.333 -30.333 -150.166 -91 -200.499s-141.667 -75.5 -243 -75.5
c-48.667 0 -90.834 4 -126.501 12s-67.167 17 -94.5 27l31 123c23.333 -11.333 50 -20.666 80 -27.999s62.667 -11 98 -11z" />
    <glyph glyph-name="questiondown" unicode="&#xbf;" horiz-adv-x="893" 
d="M586 662c1.33301 -7.33301 1.99805 -15.0029 1.99805 -23.0029v-23c0 -57.333 -8.5 -107.833 -25.5 -151.5s-38.167 -83.5 -63.5 -119.5s-52.666 -69.667 -81.999 -101s-56.666 -63.166 -81.999 -95.499s-46.5 -66.5 -63.5 -102.5s-25.5 -77.333 -25.5 -124
c0 -62.667 18 -113.834 54 -153.501s96.333 -59.5 181 -59.5c49.333 0 99.333 8.5 150 25.5s94.334 37.167 131.001 60.5l55 -127c-52 -31.333 -106.667 -56.166 -164 -74.499s-128.333 -27.5 -213 -27.5c-60 0 -112.833 8.5 -158.5 25.5s-83.834 40.5 -114.501 70.5
s-53.5 65.167 -68.5 105.5s-22.5 84.5 -22.5 132.5c0 61.333 9.16699 114.833 27.5 160.5s41.5 87.334 69.5 125.001s58 72.834 90 105.501s62 67.167 90 103.5s51.333 75.5 70 117.5s28 92 28 150h135zM390.998 929.997c0 36.667 10.667 65.667 32 87s49.666 32 84.999 32
c36.667 0 66 -10.667 88 -32s33 -50.333 33 -87c0 -35.333 -11 -64 -33 -86s-51.333 -33 -88 -33c-35.333 0 -63.666 11 -84.999 33s-32 50.667 -32 86z" />
    <glyph glyph-name="Agrave" unicode="&#xc0;" horiz-adv-x="1198" 
d="M856 397h-528l-144 -397h-168l543 1456h78l545 -1456h-178zM383 545h422l-160 436l-51 217h-2l-51 -221zM752 1540h-152l-323 199v43h233z" />
    <glyph glyph-name="Aacute" unicode="&#xc1;" horiz-adv-x="1198" 
d="M856 397h-528l-144 -397h-168l543 1456h78l545 -1456h-178zM383 545h422l-160 436l-51 217h-2l-51 -221zM678 1782h233v-43l-334 -199h-141z" />
    <glyph glyph-name="Acircumflex" unicode="&#xc2;" horiz-adv-x="1198" 
d="M856 397h-528l-144 -397h-168l543 1456h78l545 -1456h-178zM383 545h422l-160 436l-51 217h-2l-51 -221zM542 1782h123l260 -209v-43h-166l-123 100l-34 72l-39 -70l-131 -102h-162v45z" />
    <glyph glyph-name="Atilde" unicode="&#xc3;" horiz-adv-x="1198" 
d="M856 397h-528l-144 -397h-168l543 1456h78l545 -1456h-178zM383 545h422l-160 436l-51 217h-2l-51 -221zM277 1608c42 43.333 81.1699 72.834 117.503 88.501s70.833 23.5 103.5 23.5c26 0 51.333 -3.33301 76 -10s48.167 -14.5 70.5 -23.5s44.5 -16.833 66.5 -23.5
s43.333 -10 64 -10c35.333 0 69.333 14.333 102 43l51 -88c-36.667 -34.667 -71.334 -58.334 -104.001 -71.001s-63.334 -19 -92.001 -19c-26 0 -50.667 3.33301 -74 10s-46.333 14.5 -69 23.5s-44.834 16.833 -66.501 23.5s-43.5 10 -65.5 10s-43.5 -4.33301 -64.5 -13
s-43.167 -24.667 -66.5 -48z" />
    <glyph glyph-name="Adieresis" unicode="&#xc4;" horiz-adv-x="1198" 
d="M856 397h-528l-144 -397h-168l543 1456h78l545 -1456h-178zM383 545h422l-160 436l-51 217h-2l-51 -221zM295 1626c0 28.667 10.167 51.834 30.5 69.501s46.833 26.5 79.5 26.5c32 0 57.833 -8.83301 77.5 -26.5s29.5 -40.834 29.5 -69.501
c0 -27.333 -9.83301 -49.833 -29.5 -67.5s-45.5 -26.5 -77.5 -26.5c-32.667 0 -59.167 8.83301 -79.5 26.5s-30.5 40.167 -30.5 67.5zM688 1626c0 28.667 9.83301 51.834 29.5 69.501s45.5 26.5 77.5 26.5c32.667 0 59.167 -8.83301 79.5 -26.5s30.5 -40.834 30.5 -69.501
c0 -27.333 -10.167 -49.833 -30.5 -67.5s-46.833 -26.5 -79.5 -26.5c-32 0 -57.833 8.83301 -77.5 26.5s-29.5 40.167 -29.5 67.5z" />
    <glyph glyph-name="Aring" unicode="&#xc5;" horiz-adv-x="1198" 
d="M385 1573c0 50.667 16.999 92.332 50.999 124.999s88.667 49 164 49c68 0 121.167 -14.667 159.5 -44s57.5 -72.666 57.5 -129.999c0 -44 -13.667 -80.667 -41 -110s-67.666 -48 -120.999 -56l527 -1407h-178l-148 397h-528l-144 -397h-168l525 1407
c-52 8 -91 26.667 -117 56s-39 66 -39 110zM382.999 544.998h422l-160 436l-51 217h-2l-51 -221zM509.999 1573c0 -23.333 7.16797 -42.833 21.501 -58.5s37.166 -23.5 68.499 -23.5c30 0 52.833 7.5 68.5 22.5s23.5 34.833 23.5 59.5c0 26 -7.5 46.833 -22.5 62.5
s-38.167 23.5 -69.5 23.5c-30 0 -52.5 -7.83301 -67.5 -23.5s-22.5 -36.5 -22.5 -62.5z" />
    <glyph glyph-name="AE" unicode="&#xc6;" horiz-adv-x="1733" 
d="M801 1229l-70 -211l-272 -469h350v680h-8zM809 406h-438l-230 -406h-186l850 1434h784v-152h-610v-469h559v-151h-559v-510h620v-152h-790v406z" />
    <glyph glyph-name="Ccedilla" unicode="&#xc7;" horiz-adv-x="1169" 
d="M1092 59c-36 -27.333 -79.835 -46.9941 -131.502 -58.9941s-108.167 -19.667 -169.5 -23l-35 -65c57.333 -10.667 98.666 -28.334 123.999 -53.001s38 -58.334 38 -101.001c0 -53.333 -22 -97.333 -66 -132s-105.333 -52 -184 -52c-15.333 0 -30.5 0.666992 -45.5 2
s-30.833 3.33301 -47.5 6l19 80c8 -1.33301 15.5 -2 22.5 -2h20.5c30 0 53.5 2.66699 70.5 8s30 11.833 39 19.5s14.5 16.334 16.5 26.001s3 18.5 3 26.5c0 38 -58.667 63.333 -176 76l86 164c-79.333 5.33301 -153.166 24 -221.499 56s-127.666 78 -177.999 138
s-89.833 135.167 -118.5 225.5s-43 196.166 -43 317.499c0 134 18 247.667 54 341s83.667 169.666 143 228.999s126 102.666 200 129.999s149 41 225 41c82 0 149 -4.33301 201 -13s96.333 -20.667 133 -36l-41 -149c-65.333 31.333 -158.666 47 -279.999 47
c-56 0 -111.333 -10.333 -166 -31s-103.5 -54.167 -146.5 -100.5s-77.5 -107 -103.5 -182s-39 -167.167 -39 -276.5c0 -98.667 12.333 -184.834 37 -258.501s58.5 -135 101.5 -184s93.5 -85.833 151.5 -110.5s121 -37 189 -37c61.333 0 115 6.16699 161 18.5
s84.667 28.166 116 47.499z" />
    <glyph glyph-name="Egrave" unicode="&#xc8;" 
d="M174 1434h780v-152h-610v-469h559v-151h-559v-510h621v-152h-791v1434zM668 1540h-152l-323 199v43h233z" />
    <glyph glyph-name="Eacute" unicode="&#xc9;" 
d="M174 1434h780v-152h-610v-469h559v-151h-559v-510h621v-152h-791v1434zM676 1782h233v-43l-334 -199h-141z" />
    <glyph glyph-name="Ecircumflex" unicode="&#xca;" 
d="M174 1434h780v-152h-610v-469h559v-151h-559v-510h621v-152h-791v1434zM495 1782h123l260 -209v-43h-166l-123 100l-34 72l-39 -70l-131 -102h-162v45z" />
    <glyph glyph-name="Edieresis" unicode="&#xcb;" 
d="M174 1434h780v-152h-610v-469h559v-151h-559v-510h621v-152h-791v1434zM246 1646c0 28.667 10.167 51.834 30.5 69.501s46.833 26.5 79.5 26.5c32 0 57.833 -8.83301 77.5 -26.5s29.5 -40.834 29.5 -69.501c0 -27.333 -9.83301 -49.833 -29.5 -67.5
s-45.5 -26.5 -77.5 -26.5c-32.667 0 -59.167 8.83301 -79.5 26.5s-30.5 40.167 -30.5 67.5zM639 1646c0 28.667 9.83301 51.834 29.5 69.501s45.5 26.5 77.5 26.5c32.667 0 59.167 -8.83301 79.5 -26.5s30.5 -40.834 30.5 -69.501c0 -27.333 -10.167 -49.833 -30.5 -67.5
s-46.833 -26.5 -79.5 -26.5c-32 0 -57.833 8.83301 -77.5 26.5s-29.5 40.167 -29.5 67.5z" />
    <glyph glyph-name="Igrave" unicode="&#xcc;" horiz-adv-x="596" 
d="M213 1434h170v-1434h-170v1434zM477 1540h-152l-323 199v43h233z" />
    <glyph glyph-name="Iacute" unicode="&#xcd;" horiz-adv-x="596" 
d="M213 1434h170v-1434h-170v1434zM369 1782h233v-43l-334 -199h-141z" />
    <glyph glyph-name="Icircumflex" unicode="&#xce;" horiz-adv-x="596" 
d="M213 1434h170v-1434h-170v1434zM241 1782h123l260 -209v-43h-166l-123 100l-34 72l-39 -70l-131 -102h-162v45z" />
    <glyph glyph-name="Idieresis" unicode="&#xcf;" horiz-adv-x="596" 
d="M213 1434h170v-1434h-170v1434zM-4 1626c0 28.667 10.167 51.834 30.5 69.501s46.833 26.5 79.5 26.5c32 0 57.833 -8.83301 77.5 -26.5s29.5 -40.834 29.5 -69.501c0 -27.333 -9.83301 -49.833 -29.5 -67.5s-45.5 -26.5 -77.5 -26.5
c-32.667 0 -59.167 8.83301 -79.5 26.5s-30.5 40.167 -30.5 67.5zM389 1626c0 28.667 9.83301 51.834 29.5 69.501s45.5 26.5 77.5 26.5c32.667 0 59.167 -8.83301 79.5 -26.5s30.5 -40.834 30.5 -69.501c0 -27.333 -10.167 -49.833 -30.5 -67.5s-46.833 -26.5 -79.5 -26.5
c-32 0 -57.833 8.83301 -77.5 26.5s-29.5 40.167 -29.5 67.5z" />
    <glyph glyph-name="Eth" unicode="&#xd0;" horiz-adv-x="1348" 
d="M-2 803l183.999 0.00195312v631c26 4 55 7 87 9s65.5 3.33301 100.5 4l102.5 2c33.333 0.666992 64.333 1 93 1c114.667 0 214 -17.833 298 -53.5s153.333 -85.167 208 -148.5s95.334 -139.333 122.001 -228s40 -186.334 40 -293.001
c0 -96.667 -12.667 -189.834 -38 -279.501s-65.333 -169 -120 -238s-125.667 -124.167 -213 -165.5s-193 -62 -317 -62c-22 0 -50.333 0.333008 -85 1s-70.5 2 -107.5 4s-71.167 3.66699 -102.5 5s-54 3.33301 -68 6v682h-184v123zM568.999 1298l-58.001 -0.00585938
c-21.333 0 -42.166 -0.666992 -62.499 -2s-39 -2.66602 -56 -3.99902s-30.5 -2.66602 -40.5 -3.99902v-485h301v-123h-301v-539c6.66699 -1.33301 19.667 -2.33301 39 -3l59.5 -2l59.5 -2c19.333 -0.666992 32.333 -1 39 -1c95.333 0 175.5 16.333 240.5 49
s117 76.667 156 132s66.667 118.833 83 190.5s24.5 145.834 24.5 222.501c0 66.667 -7.5 133.834 -22.5 201.501s-41 128.834 -78 183.501s-86.5 99.334 -148.5 134.001s-140.333 52 -235 52z" />
    <glyph glyph-name="Ntilde" unicode="&#xd1;" horiz-adv-x="1378" 
d="M432 938l-110 207h-9l21 -207v-938h-160v1456h90l686 -956l107 -197h10l-23 197v934h160v-1457h-90zM367 1608c42 43.333 81.1699 72.834 117.503 88.501s70.833 23.5 103.5 23.5c26 0 51.333 -3.33301 76 -10s48.167 -14.5 70.5 -23.5s44.5 -16.833 66.5 -23.5
s43.333 -10 64 -10c35.333 0 69.333 14.333 102 43l51 -88c-36.667 -34.667 -71.334 -58.334 -104.001 -71.001s-63.334 -19 -92.001 -19c-26 0 -50.667 3.33301 -74 10s-46.333 14.5 -69 23.5s-44.834 16.833 -66.501 23.5s-43.5 10 -65.5 10s-43.5 -4.33301 -64.5 -13
s-43.167 -24.667 -66.5 -48z" />
    <glyph glyph-name="Ograve" unicode="&#xd2;" horiz-adv-x="1401" 
d="M115 717c0 238.667 50.5 421.832 151.5 549.499s244.833 191.5 431.5 191.5c101.333 0 188.833 -17.667 262.5 -53s134.834 -85.5 183.501 -150.5s84.5 -142.833 107.5 -233.5s34.5 -192 34.5 -304c0 -239.333 -50.833 -422.833 -152.5 -550.5
s-246.834 -191.5 -435.501 -191.5c-99.333 0 -185.5 17.833 -258.5 53.5s-133.833 85.834 -182.5 150.501s-84.5 142.5 -107.5 233.5s-34.5 192.5 -34.5 304.5zM295 716.998c0 -79.333 7.83496 -154.501 23.502 -225.501s39.834 -133.5 72.501 -187.5s74.667 -97 126 -129
s111.666 -48 180.999 -48c127.333 0 227.166 48.167 299.499 144.5s108.5 244.833 108.5 445.5c0 78 -7.83301 152.833 -23.5 224.5s-40.334 134.334 -74.001 188.001s-76 96.667 -127 129s-112.167 48.5 -183.5 48.5c-125.333 0 -223.833 -48.167 -295.5 -144.5
s-107.5 -244.833 -107.5 -445.5zM840.002 1540h-152l-323 199v43h233z" />
    <glyph glyph-name="Oacute" unicode="&#xd3;" horiz-adv-x="1401" 
d="M115 717c0 238.667 50.5 421.832 151.5 549.499s244.833 191.5 431.5 191.5c101.333 0 188.833 -17.667 262.5 -53s134.834 -85.5 183.501 -150.5s84.5 -142.833 107.5 -233.5s34.5 -192 34.5 -304c0 -239.333 -50.833 -422.833 -152.5 -550.5
s-246.834 -191.5 -435.501 -191.5c-99.333 0 -185.5 17.833 -258.5 53.5s-133.833 85.834 -182.5 150.501s-84.5 142.5 -107.5 233.5s-34.5 192.5 -34.5 304.5zM295 716.998c0 -79.333 7.83496 -154.501 23.502 -225.501s39.834 -133.5 72.501 -187.5s74.667 -97 126 -129
s111.666 -48 180.999 -48c127.333 0 227.166 48.167 299.499 144.5s108.5 244.833 108.5 445.5c0 78 -7.83301 152.833 -23.5 224.5s-40.334 134.334 -74.001 188.001s-76 96.667 -127 129s-112.167 48.5 -183.5 48.5c-125.333 0 -223.833 -48.167 -295.5 -144.5
s-107.5 -244.833 -107.5 -445.5zM850.002 1782h233v-43l-334 -199h-141z" />
    <glyph glyph-name="Ocircumflex" unicode="&#xd4;" horiz-adv-x="1401" 
d="M115 717c0 238.667 50.5 421.832 151.5 549.499s244.833 191.5 431.5 191.5c101.333 0 188.833 -17.667 262.5 -53s134.834 -85.5 183.501 -150.5s84.5 -142.833 107.5 -233.5s34.5 -192 34.5 -304c0 -239.333 -50.833 -422.833 -152.5 -550.5
s-246.834 -191.5 -435.501 -191.5c-99.333 0 -185.5 17.833 -258.5 53.5s-133.833 85.834 -182.5 150.501s-84.5 142.5 -107.5 233.5s-34.5 192.5 -34.5 304.5zM295 716.998c0 -79.333 7.83496 -154.501 23.502 -225.501s39.834 -133.5 72.501 -187.5s74.667 -97 126 -129
s111.666 -48 180.999 -48c127.333 0 227.166 48.167 299.499 144.5s108.5 244.833 108.5 445.5c0 78 -7.83301 152.833 -23.5 224.5s-40.334 134.334 -74.001 188.001s-76 96.667 -127 129s-112.167 48.5 -183.5 48.5c-125.333 0 -223.833 -48.167 -295.5 -144.5
s-107.5 -244.833 -107.5 -445.5zM639.002 1782h123l260 -209v-43h-166l-123 100l-34 72l-39 -70l-131 -102h-162v45z" />
    <glyph glyph-name="Otilde" unicode="&#xd5;" horiz-adv-x="1401" 
d="M115 717c0 238.667 50.5 421.832 151.5 549.499s244.833 191.5 431.5 191.5c101.333 0 188.833 -17.667 262.5 -53s134.834 -85.5 183.501 -150.5s84.5 -142.833 107.5 -233.5s34.5 -192 34.5 -304c0 -239.333 -50.833 -422.833 -152.5 -550.5
s-246.834 -191.5 -435.501 -191.5c-99.333 0 -185.5 17.833 -258.5 53.5s-133.833 85.834 -182.5 150.501s-84.5 142.5 -107.5 233.5s-34.5 192.5 -34.5 304.5zM295 716.998c0 -79.333 7.83496 -154.501 23.502 -225.501s39.834 -133.5 72.501 -187.5s74.667 -97 126 -129
s111.666 -48 180.999 -48c127.333 0 227.166 48.167 299.499 144.5s108.5 244.833 108.5 445.5c0 78 -7.83301 152.833 -23.5 224.5s-40.334 134.334 -74.001 188.001s-76 96.667 -127 129s-112.167 48.5 -183.5 48.5c-125.333 0 -223.833 -48.167 -295.5 -144.5
s-107.5 -244.833 -107.5 -445.5zM373.002 1608c42 43.333 81.1699 72.834 117.503 88.501s70.833 23.5 103.5 23.5c26 0 51.333 -3.33301 76 -10s48.167 -14.5 70.5 -23.5s44.5 -16.833 66.5 -23.5s43.333 -10 64 -10c35.333 0 69.333 14.333 102 43l51 -88
c-36.667 -34.667 -71.334 -58.334 -104.001 -71.001s-63.334 -19 -92.001 -19c-26 0 -50.667 3.33301 -74 10s-46.333 14.5 -69 23.5s-44.834 16.833 -66.501 23.5s-43.5 10 -65.5 10s-43.5 -4.33301 -64.5 -13s-43.167 -24.667 -66.5 -48z" />
    <glyph glyph-name="Odieresis" unicode="&#xd6;" horiz-adv-x="1401" 
d="M115 717c0 238.667 50.5 421.832 151.5 549.499s244.833 191.5 431.5 191.5c101.333 0 188.833 -17.667 262.5 -53s134.834 -85.5 183.501 -150.5s84.5 -142.833 107.5 -233.5s34.5 -192 34.5 -304c0 -239.333 -50.833 -422.833 -152.5 -550.5
s-246.834 -191.5 -435.501 -191.5c-99.333 0 -185.5 17.833 -258.5 53.5s-133.833 85.834 -182.5 150.501s-84.5 142.5 -107.5 233.5s-34.5 192.5 -34.5 304.5zM295 716.998c0 -79.333 7.83496 -154.501 23.502 -225.501s39.834 -133.5 72.501 -187.5s74.667 -97 126 -129
s111.666 -48 180.999 -48c127.333 0 227.166 48.167 299.499 144.5s108.5 244.833 108.5 445.5c0 78 -7.83301 152.833 -23.5 224.5s-40.334 134.334 -74.001 188.001s-76 96.667 -127 129s-112.167 48.5 -183.5 48.5c-125.333 0 -223.833 -48.167 -295.5 -144.5
s-107.5 -244.833 -107.5 -445.5zM389.002 1626c0 28.667 10.167 51.834 30.5 69.501s46.833 26.5 79.5 26.5c32 0 57.833 -8.83301 77.5 -26.5s29.5 -40.834 29.5 -69.501c0 -27.333 -9.83301 -49.833 -29.5 -67.5s-45.5 -26.5 -77.5 -26.5
c-32.667 0 -59.167 8.83301 -79.5 26.5s-30.5 40.167 -30.5 67.5zM782.002 1626c0 28.667 9.83301 51.834 29.5 69.501s45.5 26.5 77.5 26.5c32.667 0 59.167 -8.83301 79.5 -26.5s30.5 -40.834 30.5 -69.501c0 -27.333 -10.167 -49.833 -30.5 -67.5
s-46.833 -26.5 -79.5 -26.5c-32 0 -57.833 8.83301 -77.5 26.5s-29.5 40.167 -29.5 67.5z" />
    <glyph glyph-name="multiply" unicode="&#xd7;" horiz-adv-x="1034" 
d="M260 1059l258 -260l260 260l105 -109l-258 -258l258 -260l-105 -106l-260 262l-260 -262l-106 104l262 264l-258 256z" />
    <glyph glyph-name="Oslash" unicode="&#xd8;" horiz-adv-x="1401" 
d="M250 186c-46.667 66 -80.832 143.331 -102.499 231.998s-32.5 188.334 -32.5 299.001c0 238.667 50.5 421.834 151.5 549.501s244.833 191.5 431.5 191.5c78 0 147 -10.167 207 -30.5s113.333 -50.5 160 -90.5l86 123l106 -71l-104 -148
c45.333 -65.333 78.833 -142 100.5 -230s32.5 -186 32.5 -294c0 -239.333 -50.833 -422.833 -152.5 -550.5s-246.834 -191.5 -435.501 -191.5c-146 0 -265.333 38.333 -358 115l-80 -115l-106 74zM295.002 716.998c0 -70 5.83203 -135.667 17.499 -197
s29.834 -118 54.501 -170l594 842c-32 35.333 -69.5 63.333 -112.5 84s-93.167 31 -150.5 31c-125.333 0 -223.833 -48.167 -295.5 -144.5s-107.5 -244.833 -107.5 -445.5zM1106 716.998c0 65.333 -5.83105 128.667 -17.498 190s-29.167 117.333 -52.5 168l-594 -842
c31.333 -34 68.166 -60.167 110.499 -78.5s90.833 -27.5 145.5 -27.5c127.333 0 227.166 48.167 299.499 144.5s108.5 244.833 108.5 445.5z" />
    <glyph glyph-name="Ugrave" unicode="&#xd9;" horiz-adv-x="1335" 
d="M997 1434l164 0.00195312v-957c0 -86 -11.167 -160.333 -33.5 -223s-54.333 -114.167 -96 -154.5s-91.834 -70 -150.501 -89s-123.667 -28.5 -195 -28.5c-169.333 0 -297 38.167 -383 114.5s-129 192.166 -129 347.499v990h170v-910c0 -72 7.16699 -133 21.5 -183
s35.833 -90.333 64.5 -121s64.5 -52.834 107.5 -66.501s93.167 -20.5 150.5 -20.5c110.667 0 189.834 30.333 237.501 91s71.5 160.667 71.5 300v910zM834 1540h-152l-323 199v43h233z" />
    <glyph glyph-name="Uacute" unicode="&#xda;" horiz-adv-x="1335" 
d="M997 1434l164 0.00195312v-957c0 -86 -11.167 -160.333 -33.5 -223s-54.333 -114.167 -96 -154.5s-91.834 -70 -150.501 -89s-123.667 -28.5 -195 -28.5c-169.333 0 -297 38.167 -383 114.5s-129 192.166 -129 347.499v990h170v-910c0 -72 7.16699 -133 21.5 -183
s35.833 -90.333 64.5 -121s64.5 -52.834 107.5 -66.501s93.167 -20.5 150.5 -20.5c110.667 0 189.834 30.333 237.501 91s71.5 160.667 71.5 300v910zM799 1782h233v-43l-334 -199h-141z" />
    <glyph glyph-name="Ucircumflex" unicode="&#xdb;" horiz-adv-x="1335" 
d="M997 1434l164 0.00195312v-957c0 -86 -11.167 -160.333 -33.5 -223s-54.333 -114.167 -96 -154.5s-91.834 -70 -150.501 -89s-123.667 -28.5 -195 -28.5c-169.333 0 -297 38.167 -383 114.5s-129 192.166 -129 347.499v990h170v-910c0 -72 7.16699 -133 21.5 -183
s35.833 -90.333 64.5 -121s64.5 -52.834 107.5 -66.501s93.167 -20.5 150.5 -20.5c110.667 0 189.834 30.333 237.501 91s71.5 160.667 71.5 300v910zM616 1782h123l260 -209v-43h-166l-123 100l-34 72l-39 -70l-131 -102h-162v45z" />
    <glyph glyph-name="Udieresis" unicode="&#xdc;" horiz-adv-x="1335" 
d="M997 1434l164 0.00195312v-957c0 -86 -11.167 -160.333 -33.5 -223s-54.333 -114.167 -96 -154.5s-91.834 -70 -150.501 -89s-123.667 -28.5 -195 -28.5c-169.333 0 -297 38.167 -383 114.5s-129 192.166 -129 347.499v990h170v-910c0 -72 7.16699 -133 21.5 -183
s35.833 -90.333 64.5 -121s64.5 -52.834 107.5 -66.501s93.167 -20.5 150.5 -20.5c110.667 0 189.834 30.333 237.501 91s71.5 160.667 71.5 300v910zM365 1626c0 28.667 10.167 51.834 30.5 69.501s46.833 26.5 79.5 26.5c32 0 57.833 -8.83301 77.5 -26.5
s29.5 -40.834 29.5 -69.501c0 -27.333 -9.83301 -49.833 -29.5 -67.5s-45.5 -26.5 -77.5 -26.5c-32.667 0 -59.167 8.83301 -79.5 26.5s-30.5 40.167 -30.5 67.5zM758 1626c0 28.667 9.83301 51.834 29.5 69.501s45.5 26.5 77.5 26.5c32.667 0 59.167 -8.83301 79.5 -26.5
s30.5 -40.834 30.5 -69.501c0 -27.333 -10.167 -49.833 -30.5 -67.5s-46.833 -26.5 -79.5 -26.5c-32 0 -57.833 8.83301 -77.5 26.5s-29.5 40.167 -29.5 67.5z" />
    <glyph glyph-name="Yacute" unicode="&#xdd;" horiz-adv-x="1143" 
d="M489 569l-473 865h199l336 -627l35 -125h2l37 129l321 623h182l-469 -863v-571h-170v569zM727 1782h233v-43l-334 -199h-141z" />
    <glyph glyph-name="Thorn" unicode="&#xde;" horiz-adv-x="1145" 
d="M174 1434l170 0.000976562v-154c57.333 4 116 6 176 6c62.667 0 126.5 -6.16699 191.5 -18.5s124.167 -34.833 177.5 -67.5s96.666 -77.667 129.999 -135s50 -130.333 50 -219c0 -87.333 -15.667 -161 -47 -221s-73 -108.833 -125 -146.5s-111.5 -65 -178.5 -82
s-135.833 -25.5 -206.5 -25.5h-33.5c-15.667 0 -32.167 0.333008 -49.5 1s-34.166 1.66699 -50.499 3s-27.833 2.66602 -34.5 3.99902v-379h-170v1434zM524 1139c-35.333 0 -69.333 -0.666016 -102 -1.99902s-58.667 -5 -78 -11v-594
c6.66699 -2.66699 17.5 -4.33398 32.5 -5.00098s30.833 -1.66699 47.5 -3s32.5 -2 47.5 -2h32.5c46 0 92 4.5 138 13.5s87.333 25.5 124 49.5s66.334 57.167 89.001 99.5s34 96.166 34 161.499c0 56 -10.667 102.667 -32 140s-49.333 67.333 -84 90
s-73.834 38.834 -117.501 48.501s-87.5 14.5 -131.5 14.5z" />
    <glyph glyph-name="germandbls" unicode="&#xdf;" horiz-adv-x="1212" 
d="M786 1145c0 23.333 -6.33203 44.8311 -18.999 64.498s-29.334 36.334 -50.001 50.001s-43.334 24.334 -68.001 32.001s-48.334 11.5 -71.001 11.5c-38.667 0 -71.334 -4.83301 -98.001 -14.5s-48.167 -25.5 -64.5 -47.5s-28.166 -51 -35.499 -87s-11 -80.667 -11 -134
v-1020h-164v881h-160v143h160v47c0 132.667 32.333 228.334 97 287.001s154.334 88 269.001 88c56 0 107.333 -7.16699 154 -21.5s86.667 -34.833 120 -61.5s59.166 -58.167 77.499 -94.5s27.5 -76.833 27.5 -121.5c0 -52 -13 -93.667 -39 -125s-54.333 -59.333 -85 -84
s-59 -48.667 -85 -72s-39 -52 -39 -86c0 -30 10.333 -53.833 31 -71.5s46.667 -33.334 78 -47.001l100.5 -42c35.667 -14.333 69.167 -33.166 100.5 -56.499s57.166 -53.666 77.499 -90.999s30.5 -86 30.5 -146c0 -44 -8.16699 -86.833 -24.5 -128.5
s-39.833 -78.834 -70.5 -111.501s-69.167 -59.334 -115.5 -80.001s-98.833 -31 -157.5 -31c-31.333 0 -59 1.16699 -83 3.5s-46 5.83301 -66 10.5s-38.833 10.334 -56.5 17.001s-35.167 15.667 -52.5 27l47 133c16 -8 30.167 -15.5 42.5 -22.5s25.666 -12.5 39.999 -16.5
s30.333 -7 48 -9s39.5 -3 65.5 -3c28.667 0 56.334 5 83.001 15s50.334 24 71.001 42s36.667 39.5 48 64.5s17 52.5 17 82.5c0 41.333 -10.167 74 -30.5 98s-46.166 44.167 -77.499 60.5s-64.833 31 -100.5 44s-69.167 29.333 -100.5 49s-57.166 44.834 -77.499 75.501
s-30.5 72 -30.5 124c0 53.333 12.833 96 38.5 128s54 60.667 85 86s59.333 49.666 85 72.999s38.5 52.666 38.5 87.999z" />
    <glyph glyph-name="agrave" unicode="&#xe0;" horiz-adv-x="1016" 
d="M141 948c52 31.333 112.499 54.4971 181.499 69.4971s141.167 22.5 216.5 22.5c70.667 0 127.5 -9.5 170.5 -28.5s75.833 -43.833 98.5 -74.5s37.667 -64.5 45 -101.5s11 -73.833 11 -110.5c0 -82 -2 -161.833 -6 -239.5s-6 -151.5 -6 -221.5c0 -50.667 2 -98.5 6 -143.5
s11.667 -86.5 23 -124.5h-121l-43 143h-10c-12.667 -18.667 -28.167 -37.334 -46.5 -56.001s-40.5 -35.167 -66.5 -49.5s-56 -26.166 -90 -35.499s-73 -14 -117 -14c-43.333 0 -83.833 6.83301 -121.5 20.5s-70.167 33 -97.5 58s-48.833 55.333 -64.5 91
s-23.5 75.834 -23.5 120.501c0 60.667 12.333 111 37 151s59.167 72 103.5 96s97.5 41.167 159.5 51.5s130.667 15.5 206 15.5h56c18.667 0 37.334 -1.33301 56.001 -4c4.66699 40.667 7 77.334 7 110.001c0 75.333 -15.167 128 -45.5 158s-84.833 45 -163.5 45
c-23.333 0 -48.333 -1.66699 -75 -5s-54 -8.16602 -82 -14.499s-54.667 -13.833 -80 -22.5s-47.333 -18.667 -66 -30zM431.999 126.997c38 0 72.167 5.16699 102.5 15.5s56.333 23.333 78 39s39.667 33 54 52s24.833 37.5 31.5 55.5v170c-18.667 1.33301 -38 2.33301 -58 3
s-39.333 1 -58 1c-42.667 0 -84.167 -2.33301 -124.5 -7s-75.833 -13.5 -106.5 -26.5s-55.167 -30.833 -73.5 -53.5s-27.5 -51 -27.5 -85c0 -48 17 -87.333 51 -118s77.667 -46 131 -46zM624.999 1169h-93l-235 263v43h194z" />
    <glyph glyph-name="aacute" unicode="&#xe1;" horiz-adv-x="1016" 
d="M141 948c52 31.333 112.499 54.4971 181.499 69.4971s141.167 22.5 216.5 22.5c70.667 0 127.5 -9.5 170.5 -28.5s75.833 -43.833 98.5 -74.5s37.667 -64.5 45 -101.5s11 -73.833 11 -110.5c0 -82 -2 -161.833 -6 -239.5s-6 -151.5 -6 -221.5c0 -50.667 2 -98.5 6 -143.5
s11.667 -86.5 23 -124.5h-121l-43 143h-10c-12.667 -18.667 -28.167 -37.334 -46.5 -56.001s-40.5 -35.167 -66.5 -49.5s-56 -26.166 -90 -35.499s-73 -14 -117 -14c-43.333 0 -83.833 6.83301 -121.5 20.5s-70.167 33 -97.5 58s-48.833 55.333 -64.5 91
s-23.5 75.834 -23.5 120.501c0 60.667 12.333 111 37 151s59.167 72 103.5 96s97.5 41.167 159.5 51.5s130.667 15.5 206 15.5h56c18.667 0 37.334 -1.33301 56.001 -4c4.66699 40.667 7 77.334 7 110.001c0 75.333 -15.167 128 -45.5 158s-84.833 45 -163.5 45
c-23.333 0 -48.333 -1.66699 -75 -5s-54 -8.16602 -82 -14.499s-54.667 -13.833 -80 -22.5s-47.333 -18.667 -66 -30zM431.999 126.997c38 0 72.167 5.16699 102.5 15.5s56.333 23.333 78 39s39.667 33 54 52s24.833 37.5 31.5 55.5v170c-18.667 1.33301 -38 2.33301 -58 3
s-39.333 1 -58 1c-42.667 0 -84.167 -2.33301 -124.5 -7s-75.833 -13.5 -106.5 -26.5s-55.167 -30.833 -73.5 -53.5s-27.5 -51 -27.5 -85c0 -48 17 -87.333 51 -118s77.667 -46 131 -46zM487.999 1475h182v-43l-207 -263h-96z" />
    <glyph glyph-name="acircumflex" unicode="&#xe2;" horiz-adv-x="1016" 
d="M141 948c52 31.333 112.499 54.4971 181.499 69.4971s141.167 22.5 216.5 22.5c70.667 0 127.5 -9.5 170.5 -28.5s75.833 -43.833 98.5 -74.5s37.667 -64.5 45 -101.5s11 -73.833 11 -110.5c0 -82 -2 -161.833 -6 -239.5s-6 -151.5 -6 -221.5c0 -50.667 2 -98.5 6 -143.5
s11.667 -86.5 23 -124.5h-121l-43 143h-10c-12.667 -18.667 -28.167 -37.334 -46.5 -56.001s-40.5 -35.167 -66.5 -49.5s-56 -26.166 -90 -35.499s-73 -14 -117 -14c-43.333 0 -83.833 6.83301 -121.5 20.5s-70.167 33 -97.5 58s-48.833 55.333 -64.5 91
s-23.5 75.834 -23.5 120.501c0 60.667 12.333 111 37 151s59.167 72 103.5 96s97.5 41.167 159.5 51.5s130.667 15.5 206 15.5h56c18.667 0 37.334 -1.33301 56.001 -4c4.66699 40.667 7 77.334 7 110.001c0 75.333 -15.167 128 -45.5 158s-84.833 45 -163.5 45
c-23.333 0 -48.333 -1.66699 -75 -5s-54 -8.16602 -82 -14.499s-54.667 -13.833 -80 -22.5s-47.333 -18.667 -66 -30zM431.999 126.997c38 0 72.167 5.16699 102.5 15.5s56.333 23.333 78 39s39.667 33 54 52s24.833 37.5 31.5 55.5v170c-18.667 1.33301 -38 2.33301 -58 3
s-39.333 1 -58 1c-42.667 0 -84.167 -2.33301 -124.5 -7s-75.833 -13.5 -106.5 -26.5s-55.167 -30.833 -73.5 -53.5s-27.5 -51 -27.5 -85c0 -48 17 -87.333 51 -118s77.667 -46 131 -46zM489.999 1499h65l228 -373h-148l-80 136l-43 118l-45 -118l-92 -136h-137z" />
    <glyph glyph-name="atilde" unicode="&#xe3;" horiz-adv-x="1016" 
d="M141 948c52 31.333 112.499 54.4971 181.499 69.4971s141.167 22.5 216.5 22.5c70.667 0 127.5 -9.5 170.5 -28.5s75.833 -43.833 98.5 -74.5s37.667 -64.5 45 -101.5s11 -73.833 11 -110.5c0 -82 -2 -161.833 -6 -239.5s-6 -151.5 -6 -221.5c0 -50.667 2 -98.5 6 -143.5
s11.667 -86.5 23 -124.5h-121l-43 143h-10c-12.667 -18.667 -28.167 -37.334 -46.5 -56.001s-40.5 -35.167 -66.5 -49.5s-56 -26.166 -90 -35.499s-73 -14 -117 -14c-43.333 0 -83.833 6.83301 -121.5 20.5s-70.167 33 -97.5 58s-48.833 55.333 -64.5 91
s-23.5 75.834 -23.5 120.501c0 60.667 12.333 111 37 151s59.167 72 103.5 96s97.5 41.167 159.5 51.5s130.667 15.5 206 15.5h56c18.667 0 37.334 -1.33301 56.001 -4c4.66699 40.667 7 77.334 7 110.001c0 75.333 -15.167 128 -45.5 158s-84.833 45 -163.5 45
c-23.333 0 -48.333 -1.66699 -75 -5s-54 -8.16602 -82 -14.499s-54.667 -13.833 -80 -22.5s-47.333 -18.667 -66 -30zM431.999 126.997c38 0 72.167 5.16699 102.5 15.5s56.333 23.333 78 39s39.667 33 54 52s24.833 37.5 31.5 55.5v170c-18.667 1.33301 -38 2.33301 -58 3
s-39.333 1 -58 1c-42.667 0 -84.167 -2.33301 -124.5 -7s-75.833 -13.5 -106.5 -26.5s-55.167 -30.833 -73.5 -53.5s-27.5 -51 -27.5 -85c0 -48 17 -87.333 51 -118s77.667 -46 131 -46zM222.999 1343c39.333 45.333 75.499 76.498 108.499 93.498s63.167 25.5 90.5 25.5
c22.667 0 44 -4.33301 64 -13s39.167 -18.167 57.5 -28.5s36 -19.666 53 -27.999s35.167 -12.5 54.5 -12.5c30 0 61.333 16.667 94 50l49 -89c-35.333 -39.333 -67.666 -66.166 -96.999 -80.499s-56.333 -21.5 -81 -21.5c-22 0 -42.5 4.16699 -61.5 12.5
s-37.667 17.5 -56 27.5s-36.833 19.5 -55.5 28.5s-37.334 13.5 -56.001 13.5c-18 0 -36.167 -4.83301 -54.5 -14.5s-39.166 -26.167 -62.499 -49.5z" />
    <glyph glyph-name="adieresis" unicode="&#xe4;" horiz-adv-x="1016" 
d="M141 948c52 31.333 112.499 54.4971 181.499 69.4971s141.167 22.5 216.5 22.5c70.667 0 127.5 -9.5 170.5 -28.5s75.833 -43.833 98.5 -74.5s37.667 -64.5 45 -101.5s11 -73.833 11 -110.5c0 -82 -2 -161.833 -6 -239.5s-6 -151.5 -6 -221.5c0 -50.667 2 -98.5 6 -143.5
s11.667 -86.5 23 -124.5h-121l-43 143h-10c-12.667 -18.667 -28.167 -37.334 -46.5 -56.001s-40.5 -35.167 -66.5 -49.5s-56 -26.166 -90 -35.499s-73 -14 -117 -14c-43.333 0 -83.833 6.83301 -121.5 20.5s-70.167 33 -97.5 58s-48.833 55.333 -64.5 91
s-23.5 75.834 -23.5 120.501c0 60.667 12.333 111 37 151s59.167 72 103.5 96s97.5 41.167 159.5 51.5s130.667 15.5 206 15.5h56c18.667 0 37.334 -1.33301 56.001 -4c4.66699 40.667 7 77.334 7 110.001c0 75.333 -15.167 128 -45.5 158s-84.833 45 -163.5 45
c-23.333 0 -48.333 -1.66699 -75 -5s-54 -8.16602 -82 -14.499s-54.667 -13.833 -80 -22.5s-47.333 -18.667 -66 -30zM431.999 126.997c38 0 72.167 5.16699 102.5 15.5s56.333 23.333 78 39s39.667 33 54 52s24.833 37.5 31.5 55.5v170c-18.667 1.33301 -38 2.33301 -58 3
s-39.333 1 -58 1c-42.667 0 -84.167 -2.33301 -124.5 -7s-75.833 -13.5 -106.5 -26.5s-55.167 -30.833 -73.5 -53.5s-27.5 -51 -27.5 -85c0 -48 17 -87.333 51 -118s77.667 -46 131 -46zM214.999 1337c0 31.333 9.16699 56.666 27.5 75.999s42.5 29 72.5 29
s54.333 -9.66699 73 -29s28 -44.666 28 -75.999c0 -28.667 -9.33301 -52.5 -28 -71.5s-43 -28.5 -73 -28.5s-54.167 9.5 -72.5 28.5s-27.5 42.833 -27.5 71.5zM607.999 1337c0 31.333 9.16699 56.666 27.5 75.999s42.5 29 72.5 29c32 0 57.167 -9.66699 75.5 -29
s27.5 -44.666 27.5 -75.999c0 -28.667 -9.16699 -52.5 -27.5 -71.5s-43.5 -28.5 -75.5 -28.5c-30 0 -54.167 9.5 -72.5 28.5s-27.5 42.833 -27.5 71.5z" />
    <glyph glyph-name="aring" unicode="&#xe5;" horiz-adv-x="1016" 
d="M141 948c52 31.333 112.499 54.4971 181.499 69.4971s141.167 22.5 216.5 22.5c70.667 0 127.5 -9.5 170.5 -28.5s75.833 -43.833 98.5 -74.5s37.667 -64.5 45 -101.5s11 -73.833 11 -110.5c0 -82 -2 -161.833 -6 -239.5s-6 -151.5 -6 -221.5c0 -50.667 2 -98.5 6 -143.5
s11.667 -86.5 23 -124.5h-121l-43 143h-10c-12.667 -18.667 -28.167 -37.334 -46.5 -56.001s-40.5 -35.167 -66.5 -49.5s-56 -26.166 -90 -35.499s-73 -14 -117 -14c-43.333 0 -83.833 6.83301 -121.5 20.5s-70.167 33 -97.5 58s-48.833 55.333 -64.5 91
s-23.5 75.834 -23.5 120.501c0 60.667 12.333 111 37 151s59.167 72 103.5 96s97.5 41.167 159.5 51.5s130.667 15.5 206 15.5h56c18.667 0 37.334 -1.33301 56.001 -4c4.66699 40.667 7 77.334 7 110.001c0 75.333 -15.167 128 -45.5 158s-84.833 45 -163.5 45
c-23.333 0 -48.333 -1.66699 -75 -5s-54 -8.16602 -82 -14.499s-54.667 -13.833 -80 -22.5s-47.333 -18.667 -66 -30zM431.999 126.997c38 0 72.167 5.16699 102.5 15.5s56.333 23.333 78 39s39.667 33 54 52s24.833 37.5 31.5 55.5v170c-18.667 1.33301 -38 2.33301 -58 3
s-39.333 1 -58 1c-42.667 0 -84.167 -2.33301 -124.5 -7s-75.833 -13.5 -106.5 -26.5s-55.167 -30.833 -73.5 -53.5s-27.5 -51 -27.5 -85c0 -48 17 -87.333 51 -118s77.667 -46 131 -46zM310.999 1317c0 57.333 18 102.667 54 136s84.333 50 145 50
c57.333 0 105 -15 143 -45s57 -77 57 -141c0 -53.333 -19 -97.333 -57 -132s-85.667 -52 -143 -52s-104.833 16 -142.5 48s-56.5 77.333 -56.5 136zM420.999 1317c0 -27.333 9.00195 -48.5 27.002 -63.5s38.667 -22.5 62 -22.5c25.333 0 46.666 6.83301 63.999 20.5
s26 35.5 26 65.5s-9.33301 52.167 -28 66.5s-39.334 21.5 -62.001 21.5c-23.333 0 -44 -6.83301 -62 -20.5s-27 -36.167 -27 -67.5z" />
    <glyph glyph-name="ae" unicode="&#xe6;" horiz-adv-x="1630" 
d="M432 127c38 0 72.167 5.16699 102.5 15.5s56.333 23.333 78 39s39.667 33 54 52s24.833 37.5 31.5 55.5v170c-18.667 1.33301 -38 2.33301 -58 3s-39.333 1 -58 1c-42.667 0 -84.167 -2.33301 -124.5 -7s-75.833 -13.5 -106.5 -26.5s-55.167 -30.833 -73.5 -53.5
s-27.5 -51 -27.5 -85c0 -48 17 -87.333 51 -118s77.667 -46 131 -46zM752 172c-18 -24.667 -38.6719 -48.1729 -62.0049 -70.5059s-49.666 -42.166 -78.999 -59.499s-62.666 -31.333 -99.999 -42s-78.666 -16 -123.999 -16c-43.333 0 -83.833 6.83301 -121.5 20.5
s-70.167 33 -97.5 58s-48.833 55.333 -64.5 91s-23.5 75.834 -23.5 120.501c0 60.667 12.333 111 37 151s59.167 72 103.5 96s97.5 41.167 159.5 51.5s130.667 15.5 206 15.5h56c18.667 0 37.334 -1.33301 56.001 -4c1.33301 20 2.83301 39.333 4.5 58s2.5 36 2.5 52
c0 75.333 -15.167 128.333 -45.5 159s-84.833 45.334 -163.5 44.001c-23.333 0 -48.333 -1.66699 -75 -5s-54 -8.16602 -82 -14.499s-54.667 -13.833 -80 -22.5s-47.333 -18.667 -66 -30l-52 123c52 31.333 112.5 54.5 181.5 69.5s141.167 22.5 216.5 22.5
c143.333 0 236 -44.333 278 -133c35.333 49.333 83.166 85.333 143.499 108s120.5 34 180.5 34c46 0 92.333 -5.16699 139 -15.5s88.334 -30.166 125.001 -59.499s66.667 -70.666 90 -123.999s35 -123 35 -209c0 -22 -1 -44.833 -3 -68.5s-4.33301 -49.167 -7 -76.5h-662
c0 -119.333 25 -212 75 -278s135 -99 255 -99c48 0 94.833 8.5 140.5 25.5s80.834 35.833 105.501 56.5l61 -119c-40.667 -32.667 -92.167 -58.667 -154.5 -78s-128.166 -29 -197.499 -29c-83.333 0 -158.833 17.167 -226.5 51.5s-117.834 82.833 -150.501 145.5h-14z
M1143 904.994c-80.667 0 -145.667 -21.167 -195 -63.5s-78 -114.5 -86 -216.5h508v24c0 92.667 -20.833 158.5 -62.5 197.5s-96.5 58.5 -164.5 58.5z" />
    <glyph glyph-name="ccedilla" unicode="&#xe7;" horiz-adv-x="924" 
d="M856 68c-66.667 -48 -149.332 -77.3281 -247.999 -87.9951l-37 -68c57.333 -10.667 98.666 -28.334 123.999 -53.001s38 -58.334 38 -101.001c0 -53.333 -21.833 -97.333 -65.5 -132s-105.167 -52 -184.5 -52c-14.667 0 -29.5 0.666992 -44.5 2s-30.833 3.33301 -47.5 6
l19 80c8 -1.33301 15.333 -2 22 -2h21c30 0 53.5 2.66699 70.5 8s29.833 11.833 38.5 19.5s14.167 16.334 16.5 26.001s3.5 18.5 3.5 26.5c0 38 -58.667 63.333 -176 76l86 161c-71.333 4.66699 -131.5 20.667 -180.5 48s-89.333 64.166 -121 110.499
s-54.667 101.166 -69 164.499s-21.5 134 -21.5 212c0 173.333 38.333 306.166 115 398.499s186.667 138.5 330 138.5c65.333 0 120.833 -5.16699 166.5 -15.5s87.167 -25.166 124.5 -44.499l-48 -141c-31.333 17.333 -66 31.166 -104 41.499s-79 15.5 -123 15.5
c-194 0 -291 -131 -291 -393c0 -52 5.16699 -101.5 15.5 -148.5s27.5 -88.667 51.5 -125s55.333 -65 94 -86s86.667 -31.5 144 -31.5c49.333 0 93.5 7.16699 132.5 21.5s70.833 31.166 95.5 50.499z" />
    <glyph glyph-name="egrave" unicode="&#xe8;" horiz-adv-x="1040" 
d="M905 82c-40.667 -32.667 -92.167 -58.6641 -154.5 -77.9971s-128.166 -29 -197.499 -29c-78 0 -145.667 12.667 -203 38s-104.333 61.666 -141 108.999s-64 103.666 -82 168.999s-27 139 -27 221c0 174.667 39 307.834 117 399.501s189.333 137.5 334 137.5
c46.667 0 93.167 -5.16699 139.5 -15.5s87.833 -29.833 124.5 -58.5s66.667 -69.334 90 -122.001s35 -122 35 -208c0 -44.667 -4 -94.334 -12 -149.001h-658c0 -60 6.16699 -113.333 18.5 -160s31.5 -86 57.5 -118s59.833 -56.5 101.5 -73.5s92.5 -25.5 152.5 -25.5
c46.667 0 93.167 8.16699 139.5 24.5s81.166 35.5 104.499 57.5zM553 905.003c-80.667 0 -145.167 -21.167 -193.5 -63.5s-77.5 -114.5 -87.5 -216.5h508c0 103.333 -19.667 175.833 -59 217.5s-95.333 62.5 -168 62.5zM676 1169h-93l-235 263v43h194z" />
    <glyph glyph-name="eacute" unicode="&#xe9;" horiz-adv-x="1040" 
d="M905 82c-40.667 -32.667 -92.167 -58.6641 -154.5 -77.9971s-128.166 -29 -197.499 -29c-78 0 -145.667 12.667 -203 38s-104.333 61.666 -141 108.999s-64 103.666 -82 168.999s-27 139 -27 221c0 174.667 39 307.834 117 399.501s189.333 137.5 334 137.5
c46.667 0 93.167 -5.16699 139.5 -15.5s87.833 -29.833 124.5 -58.5s66.667 -69.334 90 -122.001s35 -122 35 -208c0 -44.667 -4 -94.334 -12 -149.001h-658c0 -60 6.16699 -113.333 18.5 -160s31.5 -86 57.5 -118s59.833 -56.5 101.5 -73.5s92.5 -25.5 152.5 -25.5
c46.667 0 93.167 8.16699 139.5 24.5s81.166 35.5 104.499 57.5zM553 905.003c-80.667 0 -145.167 -21.167 -193.5 -63.5s-77.5 -114.5 -87.5 -216.5h508c0 103.333 -19.667 175.833 -59 217.5s-95.333 62.5 -168 62.5zM596 1475h182v-43l-207 -263h-96z" />
    <glyph glyph-name="ecircumflex" unicode="&#xea;" horiz-adv-x="1040" 
d="M905 82c-40.667 -32.667 -92.167 -58.6641 -154.5 -77.9971s-128.166 -29 -197.499 -29c-78 0 -145.667 12.667 -203 38s-104.333 61.666 -141 108.999s-64 103.666 -82 168.999s-27 139 -27 221c0 174.667 39 307.834 117 399.501s189.333 137.5 334 137.5
c46.667 0 93.167 -5.16699 139.5 -15.5s87.833 -29.833 124.5 -58.5s66.667 -69.334 90 -122.001s35 -122 35 -208c0 -44.667 -4 -94.334 -12 -149.001h-658c0 -60 6.16699 -113.333 18.5 -160s31.5 -86 57.5 -118s59.833 -56.5 101.5 -73.5s92.5 -25.5 152.5 -25.5
c46.667 0 93.167 8.16699 139.5 24.5s81.166 35.5 104.499 57.5zM553 905.003c-80.667 0 -145.167 -21.167 -193.5 -63.5s-77.5 -114.5 -87.5 -216.5h508c0 103.333 -19.667 175.833 -59 217.5s-95.333 62.5 -168 62.5zM502 1499h65l228 -373h-148l-80 136l-43 118l-45 -118
l-92 -136h-137z" />
    <glyph glyph-name="edieresis" unicode="&#xeb;" horiz-adv-x="1040" 
d="M905 82c-40.667 -32.667 -92.167 -58.6641 -154.5 -77.9971s-128.166 -29 -197.499 -29c-78 0 -145.667 12.667 -203 38s-104.333 61.666 -141 108.999s-64 103.666 -82 168.999s-27 139 -27 221c0 174.667 39 307.834 117 399.501s189.333 137.5 334 137.5
c46.667 0 93.167 -5.16699 139.5 -15.5s87.833 -29.833 124.5 -58.5s66.667 -69.334 90 -122.001s35 -122 35 -208c0 -44.667 -4 -94.334 -12 -149.001h-658c0 -60 6.16699 -113.333 18.5 -160s31.5 -86 57.5 -118s59.833 -56.5 101.5 -73.5s92.5 -25.5 152.5 -25.5
c46.667 0 93.167 8.16699 139.5 24.5s81.166 35.5 104.499 57.5zM553 905.003c-80.667 0 -145.167 -21.167 -193.5 -63.5s-77.5 -114.5 -87.5 -216.5h508c0 103.333 -19.667 175.833 -59 217.5s-95.333 62.5 -168 62.5zM244 1337c0 31.333 9.16699 56.666 27.5 75.999
s42.5 29 72.5 29s54.333 -9.66699 73 -29s28 -44.666 28 -75.999c0 -28.667 -9.33301 -52.5 -28 -71.5s-43 -28.5 -73 -28.5s-54.167 9.5 -72.5 28.5s-27.5 42.833 -27.5 71.5zM637 1337c0 31.333 9.16699 56.666 27.5 75.999s42.5 29 72.5 29
c32 0 57.167 -9.66699 75.5 -29s27.5 -44.666 27.5 -75.999c0 -28.667 -9.16699 -52.5 -27.5 -71.5s-43.5 -28.5 -75.5 -28.5c-30 0 -54.167 9.5 -72.5 28.5s-27.5 42.833 -27.5 71.5z" />
    <glyph glyph-name="igrave" unicode="&#xec;" horiz-adv-x="549" 
d="M193 1024h163v-1024h-163v1024zM353 1169h-93l-235 263v43h194z" />
    <glyph glyph-name="iacute" unicode="&#xed;" horiz-adv-x="549" 
d="M193 1024h163v-1024h-163v1024zM316 1475h182v-43l-207 -263h-96z" />
    <glyph glyph-name="icircumflex" unicode="&#xee;" horiz-adv-x="549" 
d="M193 1024h163v-1024h-163v1024zM248 1499h65l228 -373h-148l-80 136l-43 118l-45 -118l-92 -136h-137z" />
    <glyph glyph-name="idieresis" unicode="&#xef;" horiz-adv-x="549" 
d="M193 1024h163v-1024h-163v1024zM-24 1337c0 31.333 9.16699 56.666 27.5 75.999s42.5 29 72.5 29s54.333 -9.66699 73 -29s28 -44.666 28 -75.999c0 -28.667 -9.33301 -52.5 -28 -71.5s-43 -28.5 -73 -28.5s-54.167 9.5 -72.5 28.5s-27.5 42.833 -27.5 71.5zM369 1337
c0 31.333 9.16699 56.666 27.5 75.999s42.5 29 72.5 29c32 0 57.167 -9.66699 75.5 -29s27.5 -44.666 27.5 -75.999c0 -28.667 -9.16699 -52.5 -27.5 -71.5s-43.5 -28.5 -75.5 -28.5c-30 0 -54.167 9.5 -72.5 28.5s-27.5 42.833 -27.5 71.5z" />
    <glyph glyph-name="eth" unicode="&#xf0;" horiz-adv-x="1149" 
d="M451 1221l116 62.999c-52 31.333 -103.667 53.333 -155 66l71 110c24.667 -9.33301 56.167 -22.166 94.5 -38.499s77.833 -38.833 118.5 -67.5l140 76l53 -93l-103 -55c33.333 -31.333 65 -67.833 95 -109.5s56.5 -90.167 79.5 -145.5s41.333 -117.833 55 -187.5
s20.5 -148.167 20.5 -235.5c0 -110.667 -12.167 -205.5 -36.5 -284.5s-57.333 -144.167 -99 -195.5s-90.167 -89 -145.5 -113s-114.333 -36 -177 -36c-83.333 0 -154.5 14.333 -213.5 43s-106.833 67.667 -143.5 117s-63.5 106.333 -80.5 171s-25.5 134 -25.5 208
c0 71.333 9.83301 139 29.5 203s49 120.167 88 168.5s86.833 86.833 143.5 115.5s122.334 43 197.001 43c62 0 116.167 -9.5 162.5 -28.5s79.166 -40.833 98.499 -65.5c-15.333 50.667 -38 98.5 -68 143.5s-64.667 85.167 -104 120.5l-156 -84zM285 511.999
c0 -134 28 -232.999 84 -296.999s128.333 -96 217 -96c40.667 0 78.5 8.83301 113.5 26.5s65 45.667 90 84s45 87.5 60 147.5s22.5 132.333 22.5 217c0 13.333 -0.333008 28.666 -1 45.999l-2 51.5c-0.666992 17 -2 33.333 -4 49s-4.33301 28.834 -7 39.501
c-10.667 19.333 -26 36.5 -46 51.5s-41.833 27.667 -65.5 38s-49.167 18.166 -76.5 23.499s-54 8 -80 8c-53.333 0 -99.5 -10.167 -138.5 -30.5s-70.833 -48 -95.5 -83s-42.667 -76 -54 -123s-17 -97.833 -17 -152.5z" />
    <glyph glyph-name="ntilde" unicode="&#xf1;" horiz-adv-x="1120" 
d="M815 0v584c0 106 -15.333 186 -46 240s-87 81 -169 81c-72 0 -131.667 -19.5 -179 -58.5s-80.333 -87.833 -99 -146.5v-700h-164v1024h114l31 -125h8c32.667 44 76.667 80 132 108s121.333 42 198 42c56 0 105.167 -6.5 147.5 -19.5s77.5 -36 105.5 -69
s49.167 -77.167 63.5 -132.5s21.5 -125.333 21.5 -210v-618h-164zM275 1343c39.333 45.333 75.499 76.498 108.499 93.498s63.167 25.5 90.5 25.5c22.667 0 44 -4.33301 64 -13s39.167 -18.167 57.5 -28.5s36 -19.666 53 -27.999s35.167 -12.5 54.5 -12.5
c30 0 61.333 16.667 94 50l49 -89c-35.333 -39.333 -67.666 -66.166 -96.999 -80.499s-56.333 -21.5 -81 -21.5c-22 0 -42.5 4.16699 -61.5 12.5s-37.667 17.5 -56 27.5s-36.833 19.5 -55.5 28.5s-37.334 13.5 -56.001 13.5c-18 0 -36.167 -4.83301 -54.5 -14.5
s-39.166 -26.167 -62.499 -49.5z" />
    <glyph glyph-name="ograve" unicode="&#xf2;" 
d="M100 512c0 173.333 38.666 306.166 115.999 398.499s188.333 138.5 333 138.5c76.667 0 143.334 -12.667 200.001 -38s103.334 -61.666 140.001 -108.999s63.834 -104 81.501 -170s26.5 -139.333 26.5 -220c0 -173.333 -38.5 -306.166 -115.5 -398.499
s-187.833 -138.5 -332.5 -138.5c-76.667 0 -143.334 12.667 -200.001 38s-103.334 61.666 -140.001 108.999s-64 104 -82 170s-27 139.333 -27 220zM269.999 512c0 -52 5.16699 -101.832 15.5 -149.499s26.5 -89.334 48.5 -125.001s50.667 -64.334 86 -86.001
s78.333 -32.5 129 -32.5c185.333 -1.33301 278 129.667 278 393c0 53.333 -5 103.833 -15 151.5s-26 89.334 -48 125.001s-50.667 64 -86 85s-78.333 31.5 -129 31.5c-186 1.33301 -279 -129.667 -279 -393zM649.999 1169h-93l-235 263v43h194z" />
    <glyph glyph-name="oacute" unicode="&#xf3;" 
d="M100 512c0 173.333 38.666 306.166 115.999 398.499s188.333 138.5 333 138.5c76.667 0 143.334 -12.667 200.001 -38s103.334 -61.666 140.001 -108.999s63.834 -104 81.501 -170s26.5 -139.333 26.5 -220c0 -173.333 -38.5 -306.166 -115.5 -398.499
s-187.833 -138.5 -332.5 -138.5c-76.667 0 -143.334 12.667 -200.001 38s-103.334 61.666 -140.001 108.999s-64 104 -82 170s-27 139.333 -27 220zM269.999 512c0 -52 5.16699 -101.832 15.5 -149.499s26.5 -89.334 48.5 -125.001s50.667 -64.334 86 -86.001
s78.333 -32.5 129 -32.5c185.333 -1.33301 278 129.667 278 393c0 53.333 -5 103.833 -15 151.5s-26 89.334 -48 125.001s-50.667 64 -86 85s-78.333 31.5 -129 31.5c-186 1.33301 -279 -129.667 -279 -393zM585.999 1475h182v-43l-207 -263h-96z" />
    <glyph glyph-name="ocircumflex" unicode="&#xf4;" 
d="M100 512c0 173.333 38.666 306.166 115.999 398.499s188.333 138.5 333 138.5c76.667 0 143.334 -12.667 200.001 -38s103.334 -61.666 140.001 -108.999s63.834 -104 81.501 -170s26.5 -139.333 26.5 -220c0 -173.333 -38.5 -306.166 -115.5 -398.499
s-187.833 -138.5 -332.5 -138.5c-76.667 0 -143.334 12.667 -200.001 38s-103.334 61.666 -140.001 108.999s-64 104 -82 170s-27 139.333 -27 220zM269.999 512c0 -52 5.16699 -101.832 15.5 -149.499s26.5 -89.334 48.5 -125.001s50.667 -64.334 86 -86.001
s78.333 -32.5 129 -32.5c185.333 -1.33301 278 129.667 278 393c0 53.333 -5 103.833 -15 151.5s-26 89.334 -48 125.001s-50.667 64 -86 85s-78.333 31.5 -129 31.5c-186 1.33301 -279 -129.667 -279 -393zM528.999 1499h65l228 -373h-148l-80 136l-43 118l-45 -118
l-92 -136h-137z" />
    <glyph glyph-name="otilde" unicode="&#xf5;" 
d="M100 512c0 173.333 38.666 306.166 115.999 398.499s188.333 138.5 333 138.5c76.667 0 143.334 -12.667 200.001 -38s103.334 -61.666 140.001 -108.999s63.834 -104 81.501 -170s26.5 -139.333 26.5 -220c0 -173.333 -38.5 -306.166 -115.5 -398.499
s-187.833 -138.5 -332.5 -138.5c-76.667 0 -143.334 12.667 -200.001 38s-103.334 61.666 -140.001 108.999s-64 104 -82 170s-27 139.333 -27 220zM269.999 512c0 -52 5.16699 -101.832 15.5 -149.499s26.5 -89.334 48.5 -125.001s50.667 -64.334 86 -86.001
s78.333 -32.5 129 -32.5c185.333 -1.33301 278 129.667 278 393c0 53.333 -5 103.833 -15 151.5s-26 89.334 -48 125.001s-50.667 64 -86 85s-78.333 31.5 -129 31.5c-186 1.33301 -279 -129.667 -279 -393zM263.999 1343c39.333 45.333 75.499 76.498 108.499 93.498
s63.167 25.5 90.5 25.5c22.667 0 44 -4.33301 64 -13s39.167 -18.167 57.5 -28.5s36 -19.666 53 -27.999s35.167 -12.5 54.5 -12.5c30 0 61.333 16.667 94 50l49 -89c-35.333 -39.333 -67.666 -66.166 -96.999 -80.499s-56.333 -21.5 -81 -21.5
c-22 0 -42.5 4.16699 -61.5 12.5s-37.667 17.5 -56 27.5s-36.833 19.5 -55.5 28.5s-37.334 13.5 -56.001 13.5c-18 0 -36.167 -4.83301 -54.5 -14.5s-39.166 -26.167 -62.499 -49.5z" />
    <glyph glyph-name="odieresis" unicode="&#xf6;" 
d="M100 512c0 173.333 38.666 306.166 115.999 398.499s188.333 138.5 333 138.5c76.667 0 143.334 -12.667 200.001 -38s103.334 -61.666 140.001 -108.999s63.834 -104 81.501 -170s26.5 -139.333 26.5 -220c0 -173.333 -38.5 -306.166 -115.5 -398.499
s-187.833 -138.5 -332.5 -138.5c-76.667 0 -143.334 12.667 -200.001 38s-103.334 61.666 -140.001 108.999s-64 104 -82 170s-27 139.333 -27 220zM269.999 512c0 -52 5.16699 -101.832 15.5 -149.499s26.5 -89.334 48.5 -125.001s50.667 -64.334 86 -86.001
s78.333 -32.5 129 -32.5c185.333 -1.33301 278 129.667 278 393c0 53.333 -5 103.833 -15 151.5s-26 89.334 -48 125.001s-50.667 64 -86 85s-78.333 31.5 -129 31.5c-186 1.33301 -279 -129.667 -279 -393zM253.999 1337c0 31.333 9.16699 56.666 27.5 75.999
s42.5 29 72.5 29s54.333 -9.66699 73 -29s28 -44.666 28 -75.999c0 -28.667 -9.33301 -52.5 -28 -71.5s-43 -28.5 -73 -28.5s-54.167 9.5 -72.5 28.5s-27.5 42.833 -27.5 71.5zM646.999 1337c0 31.333 9.16699 56.666 27.5 75.999s42.5 29 72.5 29
c32 0 57.167 -9.66699 75.5 -29s27.5 -44.666 27.5 -75.999c0 -28.667 -9.16699 -52.5 -27.5 -71.5s-43.5 -28.5 -75.5 -28.5c-30 0 -54.167 9.5 -72.5 28.5s-27.5 42.833 -27.5 71.5z" />
    <glyph glyph-name="divide" unicode="&#xf7;" horiz-adv-x="1034" 
d="M82 766h868v-148h-868v148zM397 1075c0 36.667 10.667 65.667 32 87s49.666 32 84.999 32c36.667 0 66 -10.667 88 -32s33 -50.333 33 -87c0 -35.333 -11 -64 -33 -86s-51.333 -33 -88 -33c-35.333 0 -63.666 11 -84.999 33s-32 50.667 -32 86zM397 307
c0 36.667 10.667 65.667 32 87s49.666 32 84.999 32c36.667 0 66 -10.667 88 -32s33 -50.333 33 -87c0 -35.333 -11 -64 -33 -86s-51.333 -33 -88 -33c-35.333 0 -63.666 11 -84.999 33s-32 50.667 -32 86z" />
    <glyph glyph-name="oslash" unicode="&#xf8;" 
d="M100 512c0 173.333 38.6689 306.166 116.002 398.499s188.333 138.5 333 138.5c99.333 0 182.666 -22 249.999 -66l53 72l102 -76l-59 -86c35.333 -46.667 61.166 -102 77.499 -166s24.5 -135.667 24.5 -215c0 -173.333 -38.5 -306.166 -115.5 -398.499
s-187.833 -138.5 -332.5 -138.5c-106.667 0 -194 24 -262 72l-56 -76l-106 78l68 94c-32 46.667 -55.5 101 -70.5 163s-22.5 130.667 -22.5 206zM827.002 512c0 44 -3.33301 86 -10 126s-17.667 76.667 -33 110l-407 -568c22 -17.333 47 -31.833 75 -43.5
s60.333 -17.5 97 -17.5c185.333 -1.33301 278 129.667 278 393zM270.002 512c0 -40.667 3.16797 -80.168 9.50098 -118.501s15.5 -73.166 27.5 -104.499l404 561c-20.667 16 -44.334 29.167 -71.001 39.5s-57 15.5 -91 15.5c-186 1.33301 -279 -129.667 -279 -393z" />
    <glyph glyph-name="ugrave" unicode="&#xf9;" horiz-adv-x="1104" 
d="M305 1024l-0.00195312 -583.999c0 -53.333 3.16699 -100 9.5 -140s17 -73.333 32 -100s35.333 -46.834 61 -60.501s58.5 -20.5 98.5 -20.5c36.667 0 69.334 5.83301 98.001 17.5s54.334 27.667 77.001 48s42.5 43.833 59.5 70.5s30.833 55 41.5 85v684h164v-733
c0 -49.333 1.66699 -100.333 5 -153s9.33301 -98.667 18 -138h-113l-41 162h-10c-31.333 -53.333 -73.666 -97.833 -126.999 -133.5s-121 -53.5 -203 -53.5c-54.667 0 -102.834 6.5 -144.501 19.5s-76.5 36 -104.5 69s-49.167 77.167 -63.5 132.5s-21.5 125.333 -21.5 210
v618h164zM630.998 1169h-93l-235 263v43h194z" />
    <glyph glyph-name="uacute" unicode="&#xfa;" horiz-adv-x="1104" 
d="M305 1024l-0.00195312 -583.999c0 -53.333 3.16699 -100 9.5 -140s17 -73.333 32 -100s35.333 -46.834 61 -60.501s58.5 -20.5 98.5 -20.5c36.667 0 69.334 5.83301 98.001 17.5s54.334 27.667 77.001 48s42.5 43.833 59.5 70.5s30.833 55 41.5 85v684h164v-733
c0 -49.333 1.66699 -100.333 5 -153s9.33301 -98.667 18 -138h-113l-41 162h-10c-31.333 -53.333 -73.666 -97.833 -126.999 -133.5s-121 -53.5 -203 -53.5c-54.667 0 -102.834 6.5 -144.501 19.5s-76.5 36 -104.5 69s-49.167 77.167 -63.5 132.5s-21.5 125.333 -21.5 210
v618h164zM583.998 1475h182v-43l-207 -263h-96z" />
    <glyph glyph-name="ucircumflex" unicode="&#xfb;" horiz-adv-x="1104" 
d="M305 1024l-0.00195312 -583.999c0 -53.333 3.16699 -100 9.5 -140s17 -73.333 32 -100s35.333 -46.834 61 -60.501s58.5 -20.5 98.5 -20.5c36.667 0 69.334 5.83301 98.001 17.5s54.334 27.667 77.001 48s42.5 43.833 59.5 70.5s30.833 55 41.5 85v684h164v-733
c0 -49.333 1.66699 -100.333 5 -153s9.33301 -98.667 18 -138h-113l-41 162h-10c-31.333 -53.333 -73.666 -97.833 -126.999 -133.5s-121 -53.5 -203 -53.5c-54.667 0 -102.834 6.5 -144.501 19.5s-76.5 36 -104.5 69s-49.167 77.167 -63.5 132.5s-21.5 125.333 -21.5 210
v618h164zM532.998 1499h65l228 -373h-148l-80 136l-43 118l-45 -118l-92 -136h-137z" />
    <glyph glyph-name="udieresis" unicode="&#xfc;" horiz-adv-x="1104" 
d="M305 1024l-0.00195312 -583.999c0 -53.333 3.16699 -100 9.5 -140s17 -73.333 32 -100s35.333 -46.834 61 -60.501s58.5 -20.5 98.5 -20.5c36.667 0 69.334 5.83301 98.001 17.5s54.334 27.667 77.001 48s42.5 43.833 59.5 70.5s30.833 55 41.5 85v684h164v-733
c0 -49.333 1.66699 -100.333 5 -153s9.33301 -98.667 18 -138h-113l-41 162h-10c-31.333 -53.333 -73.666 -97.833 -126.999 -133.5s-121 -53.5 -203 -53.5c-54.667 0 -102.834 6.5 -144.501 19.5s-76.5 36 -104.5 69s-49.167 77.167 -63.5 132.5s-21.5 125.333 -21.5 210
v618h164zM255.998 1337c0 31.333 9.16699 56.666 27.5 75.999s42.5 29 72.5 29s54.333 -9.66699 73 -29s28 -44.666 28 -75.999c0 -28.667 -9.33301 -52.5 -28 -71.5s-43 -28.5 -73 -28.5s-54.167 9.5 -72.5 28.5s-27.5 42.833 -27.5 71.5zM648.998 1337
c0 31.333 9.16699 56.666 27.5 75.999s42.5 29 72.5 29c32 0 57.167 -9.66699 75.5 -29s27.5 -44.666 27.5 -75.999c0 -28.667 -9.16699 -52.5 -27.5 -71.5s-43.5 -28.5 -75.5 -28.5c-30 0 -54.167 9.5 -72.5 28.5s-27.5 42.833 -27.5 71.5z" />
    <glyph glyph-name="yacute" unicode="&#xfd;" horiz-adv-x="954" 
d="M459 360l57 -196.001h10l45 198l199 662h166l-303 -920l-69 -194c-22.667 -62.667 -47.5 -118.667 -74.5 -168s-57.667 -88.666 -92 -117.999s-73.833 -44 -118.5 -44c-49.333 0 -89.666 7 -120.999 21l28 141c18 -6.66699 35.333 -10 52 -10
c38 0 74.667 20.167 110 60.5s64.666 109.5 87.999 207.5l-411 1024h188zM568 1475h182v-43l-207 -263h-96z" />
    <glyph glyph-name="thorn" unicode="&#xfe;" horiz-adv-x="1108" 
d="M158 1434h164v-512h8c27.333 39.333 63.5 70.333 108.5 93s99.5 34 163.5 34c136.667 0 238.5 -40.333 305.5 -121s100.5 -212.667 100.5 -396c0 -86 -11.333 -163.333 -34 -232s-54.5 -127 -95.5 -175s-90.5 -85 -148.5 -111s-122.333 -39 -193 -39
c-50.667 0 -90.667 3.16699 -120 9.5s-61 16.833 -95 31.5v-426h-164v1844zM571 905c-133.333 1.33301 -216.335 -71.668 -249.002 -219.001v-510c24 -19.333 51.833 -33.666 83.5 -42.999s73.167 -14 124.5 -14c94.667 0 169.667 35.167 225 105.5s83 173.833 83 310.5
c0 55.333 -4.83301 106 -14.5 152s-25.167 85 -46.5 117s-48.666 56.833 -81.999 74.5s-74.666 26.5 -123.999 26.5z" />
    <glyph glyph-name="ydieresis" unicode="&#xff;" horiz-adv-x="954" 
d="M459 360l57 -196.001h10l45 198l199 662h166l-303 -920l-69 -194c-22.667 -62.667 -47.5 -118.667 -74.5 -168s-57.667 -88.666 -92 -117.999s-73.833 -44 -118.5 -44c-49.333 0 -89.666 7 -120.999 21l28 141c18 -6.66699 35.333 -10 52 -10
c38 0 74.667 20.167 110 60.5s64.666 109.5 87.999 207.5l-411 1024h188zM182 1337c0 31.333 9.16699 56.666 27.5 75.999s42.5 29 72.5 29s54.333 -9.66699 73 -29s28 -44.666 28 -75.999c0 -28.667 -9.33301 -52.5 -28 -71.5s-43 -28.5 -73 -28.5s-54.167 9.5 -72.5 28.5
s-27.5 42.833 -27.5 71.5zM575 1337c0 31.333 9.16699 56.666 27.5 75.999s42.5 29 72.5 29c32 0 57.167 -9.66699 75.5 -29s27.5 -44.666 27.5 -75.999c0 -28.667 -9.16699 -52.5 -27.5 -71.5s-43.5 -28.5 -75.5 -28.5c-30 0 -54.167 9.5 -72.5 28.5
s-27.5 42.833 -27.5 71.5z" />
    <glyph glyph-name="Amacron" unicode="&#x100;" horiz-adv-x="1198" 
d="M856 397h-528l-144 -397h-168l543 1456h78l545 -1456h-178zM383 545h422l-160 436l-51 217h-2l-51 -221zM273 1726h647v-127h-647v127z" />
    <glyph glyph-name="amacron" unicode="&#x101;" horiz-adv-x="1016" 
d="M141 948c52 31.333 112.499 54.4971 181.499 69.4971s141.167 22.5 216.5 22.5c70.667 0 127.5 -9.5 170.5 -28.5s75.833 -43.833 98.5 -74.5s37.667 -64.5 45 -101.5s11 -73.833 11 -110.5c0 -82 -2 -161.833 -6 -239.5s-6 -151.5 -6 -221.5c0 -50.667 2 -98.5 6 -143.5
s11.667 -86.5 23 -124.5h-121l-43 143h-10c-12.667 -18.667 -28.167 -37.334 -46.5 -56.001s-40.5 -35.167 -66.5 -49.5s-56 -26.166 -90 -35.499s-73 -14 -117 -14c-43.333 0 -83.833 6.83301 -121.5 20.5s-70.167 33 -97.5 58s-48.833 55.333 -64.5 91
s-23.5 75.834 -23.5 120.501c0 60.667 12.333 111 37 151s59.167 72 103.5 96s97.5 41.167 159.5 51.5s130.667 15.5 206 15.5h56c18.667 0 37.334 -1.33301 56.001 -4c4.66699 40.667 7 77.334 7 110.001c0 75.333 -15.167 128 -45.5 158s-84.833 45 -163.5 45
c-23.333 0 -48.333 -1.66699 -75 -5s-54 -8.16602 -82 -14.499s-54.667 -13.833 -80 -22.5s-47.333 -18.667 -66 -30zM431.999 126.997c38 0 72.167 5.16699 102.5 15.5s56.333 23.333 78 39s39.667 33 54 52s24.833 37.5 31.5 55.5v170c-18.667 1.33301 -38 2.33301 -58 3
s-39.333 1 -58 1c-42.667 0 -84.167 -2.33301 -124.5 -7s-75.833 -13.5 -106.5 -26.5s-55.167 -30.833 -73.5 -53.5s-27.5 -51 -27.5 -85c0 -48 17 -87.333 51 -118s77.667 -46 131 -46zM206.999 1317h606v-127h-606v127z" />
    <glyph glyph-name="Abreve" unicode="&#x102;" horiz-adv-x="1198" 
d="M856 397h-528l-144 -397h-168l543 1456h78l545 -1456h-178zM383 545h422l-160 436l-51 217h-2l-51 -221zM336 1784c23.333 -46.667 58.835 -82.667 106.502 -108s103.5 -38 167.5 -38c66 0 121.5 14.333 166.5 43s77.167 63 96.5 103l81 -39
c-12 -39.333 -29.333 -74.5 -52 -105.5s-49.334 -57.333 -80.001 -79s-64.334 -38 -101.001 -49s-74.334 -16.5 -113.001 -16.5c-36.667 0 -73.167 4.83301 -109.5 14.5s-70.166 24 -101.499 43s-60 43.833 -86 74.5s-47 66.667 -63 108z" />
    <glyph glyph-name="abreve" unicode="&#x103;" horiz-adv-x="1016" 
d="M141 948c52 31.333 112.499 54.4971 181.499 69.4971s141.167 22.5 216.5 22.5c70.667 0 127.5 -9.5 170.5 -28.5s75.833 -43.833 98.5 -74.5s37.667 -64.5 45 -101.5s11 -73.833 11 -110.5c0 -82 -2 -161.833 -6 -239.5s-6 -151.5 -6 -221.5c0 -50.667 2 -98.5 6 -143.5
s11.667 -86.5 23 -124.5h-121l-43 143h-10c-12.667 -18.667 -28.167 -37.334 -46.5 -56.001s-40.5 -35.167 -66.5 -49.5s-56 -26.166 -90 -35.499s-73 -14 -117 -14c-43.333 0 -83.833 6.83301 -121.5 20.5s-70.167 33 -97.5 58s-48.833 55.333 -64.5 91
s-23.5 75.834 -23.5 120.501c0 60.667 12.333 111 37 151s59.167 72 103.5 96s97.5 41.167 159.5 51.5s130.667 15.5 206 15.5h56c18.667 0 37.334 -1.33301 56.001 -4c4.66699 40.667 7 77.334 7 110.001c0 75.333 -15.167 128 -45.5 158s-84.833 45 -163.5 45
c-23.333 0 -48.333 -1.66699 -75 -5s-54 -8.16602 -82 -14.499s-54.667 -13.833 -80 -22.5s-47.333 -18.667 -66 -30zM431.999 126.997c38 0 72.167 5.16699 102.5 15.5s56.333 23.333 78 39s39.667 33 54 52s24.833 37.5 31.5 55.5v170c-18.667 1.33301 -38 2.33301 -58 3
s-39.333 1 -58 1c-42.667 0 -84.167 -2.33301 -124.5 -7s-75.833 -13.5 -106.5 -26.5s-55.167 -30.833 -73.5 -53.5s-27.5 -51 -27.5 -85c0 -48 17 -87.333 51 -118s77.667 -46 131 -46zM288.999 1475c24.667 -49.333 57.498 -88.002 98.498 -116.002s84.5 -42 130.5 -42
c46.667 0 88.834 13.667 126.501 41s68.167 66.333 91.5 117l86 -37c-4.66699 -32.667 -15.5 -65.167 -32.5 -97.5s-38.833 -60.666 -65.5 -84.999s-57.667 -44 -93 -59s-73.666 -22.5 -114.999 -22.5c-38 0 -74 5.66699 -108 17s-65 28.333 -93 51
s-52.333 49.334 -73 80.001s-35.667 65.667 -45 105z" />
    <glyph glyph-name="Aogonek" unicode="&#x104;" horiz-adv-x="1198" 
d="M856 397h-528l-144 -397h-168l543 1456h78l545 -1456h-45c-36 -22 -64.5 -47.667 -85.5 -77s-31.5 -63.666 -31.5 -102.999c0 -27.333 9.16699 -51.333 27.5 -72s44.5 -31 78.5 -31c26 0 53.333 6.33301 82 19l23 -86c-20.667 -16.667 -48 -29 -82 -37
s-65.333 -12 -94 -12c-60 0 -108.833 16 -146.5 48s-56.5 76 -56.5 132c0 48 14.667 90.667 44 128s70 67.666 122 90.999h-14zM383 545h422l-160 436l-51 217h-2l-51 -221z" />
    <glyph glyph-name="aogonek" unicode="&#x105;" horiz-adv-x="1016" 
d="M141 948c52 31.333 112.499 54.4961 181.499 69.4961s141.167 22.5 216.5 22.5c70.667 0 127.5 -9.5 170.5 -28.5s75.833 -43.833 98.5 -74.5s37.667 -64.5 45 -101.5s11 -73.833 11 -110.5c0 -82 -2 -161.833 -6 -239.5s-6 -151.5 -6 -221.5c0 -50.667 2 -98.5 6 -143.5
s11.667 -86.5 23 -124.5h-47c-34.667 -22 -61.5 -47.667 -80.5 -77s-28.5 -61.666 -28.5 -96.999c0 -27.333 8.83301 -51.666 26.5 -72.999s43.5 -32 77.5 -32c26 0 53.333 7 82 21l23 -88c-20.667 -16.667 -48 -29 -82 -37s-65.333 -12 -94 -12
c-61.333 0 -110.5 16.333 -147.5 49s-55.5 77 -55.5 133c0 53.333 17.833 99.5 53.5 138.5s84.167 69.833 145.5 92.5l-37 125h-10c-12.667 -18.667 -28.167 -37.334 -46.5 -56.001s-40.5 -35.167 -66.5 -49.5s-56 -26.166 -90 -35.499s-73 -14 -117 -14
c-43.333 0 -83.833 6.83301 -121.5 20.5s-70.167 33 -97.5 58s-48.833 55.333 -64.5 91s-23.5 75.834 -23.5 120.501c0 60.667 12.333 111 37 151s59.167 72 103.5 96s97.5 41.167 159.5 51.5s130.667 15.5 206 15.5h56c18.667 0 37.334 -1.33301 56.001 -4
c4.66699 40.667 7 77.334 7 110.001c0 75.333 -15.167 128 -45.5 158s-84.833 45 -163.5 45c-23.333 0 -48.333 -1.33301 -75 -4s-54 -7.16699 -82 -13.5s-54.667 -13.5 -80 -21.5s-47.333 -17.667 -66 -29zM431.999 126.996c38 0 72.167 5.16699 102.5 15.5
s56.333 23.333 78 39s39.667 33 54 52s24.833 37.5 31.5 55.5v170c-18.667 1.33301 -38 2.33301 -58 3s-39.333 1 -58 1c-42.667 0 -84.167 -2.33301 -124.5 -7s-75.833 -13.5 -106.5 -26.5s-55.167 -30.833 -73.5 -53.5s-27.5 -51 -27.5 -85c0 -48 17 -87.333 51 -118
s77.667 -46 131 -46z" />
    <glyph glyph-name="Cacute" unicode="&#x106;" horiz-adv-x="1169" 
d="M1092 59c-41.333 -31.333 -93.334 -53.1611 -156.001 -65.4941s-129.667 -18.5 -201 -18.5c-86 0 -166.5 14.667 -241.5 44s-140.5 74.166 -196.5 134.499s-100.333 137.166 -133 230.499s-49 204.333 -49 333c0 134 18 247.667 54 341s83.667 169.666 143 228.999
s126 102.666 200 129.999s149 41 225 41c82 0 149 -4.33301 201 -13s96.333 -20.667 133 -36l-41 -149c-65.333 31.333 -158.666 47 -279.999 47c-56 0 -111.333 -10.333 -166 -31s-103.5 -54.167 -146.5 -100.5s-77.5 -107 -103.5 -182s-39 -167.167 -39 -276.5
c0 -98.667 12.333 -184.834 37 -258.501s58.5 -135 101.5 -184s93.5 -85.833 151.5 -110.5s121 -37 189 -37c61.333 0 115 6.16699 161 18.5s84.667 28.166 116 47.499zM853.999 1782h233v-43l-334 -199h-141z" />
    <glyph glyph-name="cacute" unicode="&#x107;" horiz-adv-x="924" 
d="M856 68c-40.667 -30 -89 -52.998 -145 -68.998s-114.667 -24 -176 -24c-79.333 0 -146.333 12.667 -201 38s-99.5 61.666 -134.5 108.999s-60.333 104 -76 170s-23.5 139.333 -23.5 220c0 173.333 38.333 306.166 115 398.499s186.667 138.5 330 138.5
c65.333 0 120.833 -5.16699 166.5 -15.5s87.167 -25.166 124.5 -44.499l-48 -141c-31.333 17.333 -66 31.166 -104 41.499s-79 15.5 -123 15.5c-194 0 -291 -131 -291 -393c0 -52 5.16699 -101.5 15.5 -148.5s27.5 -88.667 51.5 -125s55.333 -65.333 94 -87
s86.667 -32.5 144 -32.5c49.333 0 93.5 7.5 132.5 22.5s70.833 32.167 95.5 51.5zM594 1475h182v-43l-207 -263h-96z" />
    <glyph glyph-name="Ccircumflex" unicode="&#x108;" horiz-adv-x="1169" 
d="M1092 59c-41.333 -31.333 -93.334 -53.1611 -156.001 -65.4941s-129.667 -18.5 -201 -18.5c-86 0 -166.5 14.667 -241.5 44s-140.5 74.166 -196.5 134.499s-100.333 137.166 -133 230.499s-49 204.333 -49 333c0 134 18 247.667 54 341s83.667 169.666 143 228.999
s126 102.666 200 129.999s149 41 225 41c82 0 149 -4.33301 201 -13s96.333 -20.667 133 -36l-41 -149c-65.333 31.333 -158.666 47 -279.999 47c-56 0 -111.333 -10.333 -166 -31s-103.5 -54.167 -146.5 -100.5s-77.5 -107 -103.5 -182s-39 -167.167 -39 -276.5
c0 -98.667 12.333 -184.834 37 -258.501s58.5 -135 101.5 -184s93.5 -85.833 151.5 -110.5s121 -37 189 -37c61.333 0 115 6.16699 161 18.5s84.667 28.166 116 47.499zM654.999 1782h123l260 -209v-43h-166l-123 100l-34 72l-39 -70l-131 -102h-162v45z" />
    <glyph glyph-name="ccircumflex" unicode="&#x109;" horiz-adv-x="924" 
d="M856 68c-40.667 -30 -89 -52.998 -145 -68.998s-114.667 -24 -176 -24c-79.333 0 -146.333 12.667 -201 38s-99.5 61.666 -134.5 108.999s-60.333 104 -76 170s-23.5 139.333 -23.5 220c0 173.333 38.333 306.166 115 398.499s186.667 138.5 330 138.5
c65.333 0 120.833 -5.16699 166.5 -15.5s87.167 -25.166 124.5 -44.499l-48 -141c-31.333 17.333 -66 31.166 -104 41.499s-79 15.5 -123 15.5c-194 0 -291 -131 -291 -393c0 -52 5.16699 -101.5 15.5 -148.5s27.5 -88.667 51.5 -125s55.333 -65.333 94 -87
s86.667 -32.5 144 -32.5c49.333 0 93.5 7.5 132.5 22.5s70.833 32.167 95.5 51.5zM486 1499h65l228 -373h-148l-80 136l-43 118l-45 -118l-92 -136h-137z" />
    <glyph glyph-name="Ccaron" unicode="&#x10c;" horiz-adv-x="1169" 
d="M1092 59c-41.333 -31.333 -93.334 -53.1611 -156.001 -65.4941s-129.667 -18.5 -201 -18.5c-86 0 -166.5 14.667 -241.5 44s-140.5 74.166 -196.5 134.499s-100.333 137.166 -133 230.499s-49 204.333 -49 333c0 134 18 247.667 54 341s83.667 169.666 143 228.999
s126 102.666 200 129.999s149 41 225 41c82 0 149 -4.33301 201 -13s96.333 -20.667 133 -36l-41 -149c-65.333 31.333 -158.666 47 -279.999 47c-56 0 -111.333 -10.333 -166 -31s-103.5 -54.167 -146.5 -100.5s-77.5 -107 -103.5 -182s-39 -167.167 -39 -276.5
c0 -98.667 12.333 -184.834 37 -258.501s58.5 -135 101.5 -184s93.5 -85.833 151.5 -110.5s121 -37 189 -37c61.333 0 115 6.16699 161 18.5s84.667 28.166 116 47.499zM782.999 1528h-119l-260 211v43h168l121 -103l34 -69l39 67l129 105h160v-45z" />
    <glyph glyph-name="ccaron" unicode="&#x10d;" horiz-adv-x="924" 
d="M856 68c-40.667 -30 -89 -52.998 -145 -68.998s-114.667 -24 -176 -24c-79.333 0 -146.333 12.667 -201 38s-99.5 61.666 -134.5 108.999s-60.333 104 -76 170s-23.5 139.333 -23.5 220c0 173.333 38.333 306.166 115 398.499s186.667 138.5 330 138.5
c65.333 0 120.833 -5.16699 166.5 -15.5s87.167 -25.166 124.5 -44.499l-48 -141c-31.333 17.333 -66 31.166 -104 41.499s-79 15.5 -123 15.5c-194 0 -291 -131 -291 -393c0 -52 5.16699 -101.5 15.5 -148.5s27.5 -88.667 51.5 -125s55.333 -65.333 94 -87
s86.667 -32.5 144 -32.5c49.333 0 93.5 7.5 132.5 22.5s70.833 32.167 95.5 51.5zM553 1126h-76l-235 373h160l79 -135l44 -119l45 119l92 135h143z" />
    <glyph glyph-name="Dcaron" unicode="&#x10e;" horiz-adv-x="1339" 
d="M174 1434c26 4 54.999 7.00195 86.999 9.00195s65.5 3.33301 100.5 4l102.5 2c33.333 0.666992 64.333 1 93 1c114.667 0 214 -17.833 298 -53.5s153.333 -85.167 208 -148.5s95.334 -139.333 122.001 -228s40 -186.334 40 -293.001
c0 -96.667 -12.667 -189.834 -38 -279.501s-65.333 -169 -120 -238s-125.667 -124.167 -213 -165.5s-193 -62 -317 -62c-22 0 -50.5 0.333008 -85.5 1s-70.833 2 -107.5 4s-70.667 3.66699 -102 5s-54 3.33301 -68 6v1436zM560.999 1298l-58.0029 -0.00585938
c-21.333 0 -42.166 -0.666992 -62.499 -2s-39.166 -2.66602 -56.499 -3.99902s-30.666 -2.66602 -39.999 -3.99902v-1147c6.66699 -1.33301 19.667 -2.33301 39 -3l59.5 -2l59 -2c19 -0.666992 32.167 -1 39.5 -1c95.333 0 175.5 16.333 240.5 49s116.833 76.667 155.5 132
s66.167 118.833 82.5 190.5s24.5 145.834 24.5 222.501c0 66.667 -7.5 133.834 -22.5 201.501s-40.833 128.834 -77.5 183.501s-86.167 99.334 -148.5 134.001s-140.5 52 -234.5 52zM626.996 1528h-119l-260 211v43h168l121 -103l34 -69l39 67l129 105h160v-45z" />
    <glyph glyph-name="dcaron" unicode="&#x10f;" horiz-adv-x="1206" 
d="M944 352c0 -69.333 0.666992 -132.333 2 -189s7.66602 -112.334 18.999 -167.001h-111l-41 145h-8c-27.333 -47.333 -67 -86.833 -119 -118.5s-112.667 -47.5 -182 -47.5c-136.667 0 -238.167 43 -304.5 129s-99.5 220.667 -99.5 404
c0 174.667 41.333 307.334 124 398.001s196.334 136 341.001 136c50.667 0 90.667 -2.66699 120 -8s61 -14 95 -26v426h164v-1082zM530 119c70 0 125.5 18 166.5 54s68.833 91 83.5 165v508c-24.667 18.667 -52.667 32.167 -84 40.5s-73 12.5 -125 12.5
c-94 0 -167.667 -31 -221 -93s-80 -161.333 -80 -298c0 -56 4.5 -107.833 13.5 -155.5s23.667 -88.667 44 -123s47.333 -61.333 81 -81s74.167 -29.5 121.5 -29.5zM1257 1434c-2.66699 -40 -10.832 -80.834 -24.499 -122.501s-29 -80.167 -46 -115.5
s-34.333 -66.666 -52 -93.999s-32.834 -47.333 -45.501 -60l-67 37c23.333 49.333 41 105 53 167s18 124.667 18 188h164z" />
    <glyph glyph-name="Dcroat" unicode="&#x110;" horiz-adv-x="1348" 
d="M-2 803l183.999 0.00195312v631c26 4 55 7 87 9s65.5 3.33301 100.5 4l102.5 2c33.333 0.666992 64.333 1 93 1c114.667 0 214 -17.833 298 -53.5s153.333 -85.167 208 -148.5s95.334 -139.333 122.001 -228s40 -186.334 40 -293.001
c0 -96.667 -12.667 -189.834 -38 -279.501s-65.333 -169 -120 -238s-125.667 -124.167 -213 -165.5s-193 -62 -317 -62c-22 0 -50.333 0.333008 -85 1s-70.5 2 -107.5 4s-71.167 3.66699 -102.5 5s-54 3.33301 -68 6v682h-184v123zM568.999 1298l-58.001 -0.00585938
c-21.333 0 -42.166 -0.666992 -62.499 -2s-39 -2.66602 -56 -3.99902s-30.5 -2.66602 -40.5 -3.99902v-485h301v-123h-301v-539c6.66699 -1.33301 19.667 -2.33301 39 -3l59.5 -2l59.5 -2c19.333 -0.666992 32.333 -1 39 -1c95.333 0 175.5 16.333 240.5 49
s117 76.667 156 132s66.667 118.833 83 190.5s24.5 145.834 24.5 222.501c0 66.667 -7.5 133.834 -22.5 201.501s-41 128.834 -78 183.501s-86.5 99.334 -148.5 134.001s-140.333 52 -235 52z" />
    <glyph glyph-name="dcroat" unicode="&#x111;" horiz-adv-x="1106" 
d="M944 1294h166v-123h-166v-819c0 -69.333 0.666992 -132.333 2 -189s7.66602 -112.334 18.999 -167.001h-111l-41 145h-8c-27.333 -47.333 -67 -86.833 -119 -118.5s-112.667 -47.5 -182 -47.5c-136.667 0 -238.167 43 -304.5 129s-99.5 220.667 -99.5 404
c0 174.667 41.333 307.334 124 398.001s196.334 136 341.001 136c50.667 0 90.667 -2.66699 120 -8s61 -14 95 -26v163h-321v123h321v140h164v-140zM530 119c70 0 125.5 18.001 166.5 54.001s68.833 91 83.5 165v510c-24.667 19.333 -52.667 32.666 -84 39.999
s-73 11 -125 11c-94 0 -167.667 -31 -221 -93s-80 -161.333 -80 -298c0 -56 4.5 -107.833 13.5 -155.5s23.667 -89 44 -124s47.333 -62 81 -81s74.167 -28.5 121.5 -28.5z" />
    <glyph glyph-name="Emacron" unicode="&#x112;" 
d="M174 1434h780v-152h-610v-469h559v-151h-559v-510h621v-152h-791v1434zM223 1726h647v-127h-647v127z" />
    <glyph glyph-name="emacron" unicode="&#x113;" horiz-adv-x="1040" 
d="M905 82c-40.667 -32.667 -92.167 -58.6641 -154.5 -77.9971s-128.166 -29 -197.499 -29c-78 0 -145.667 12.667 -203 38s-104.333 61.666 -141 108.999s-64 103.666 -82 168.999s-27 139 -27 221c0 174.667 39 307.834 117 399.501s189.333 137.5 334 137.5
c46.667 0 93.167 -5.16699 139.5 -15.5s87.833 -29.833 124.5 -58.5s66.667 -69.334 90 -122.001s35 -122 35 -208c0 -44.667 -4 -94.334 -12 -149.001h-658c0 -60 6.16699 -113.333 18.5 -160s31.5 -86 57.5 -118s59.833 -56.5 101.5 -73.5s92.5 -25.5 152.5 -25.5
c46.667 0 93.167 8.16699 139.5 24.5s81.166 35.5 104.499 57.5zM553 905.003c-80.667 0 -145.167 -21.167 -193.5 -63.5s-77.5 -114.5 -87.5 -216.5h508c0 103.333 -19.667 175.833 -59 217.5s-95.333 62.5 -168 62.5zM219 1317h606v-127h-606v127z" />
    <glyph glyph-name="Edotaccent" unicode="&#x116;" 
d="M174 1434h780v-152h-610v-469h559v-151h-559v-510h621v-152h-791v1434zM434 1632c0 28.667 11.167 53.667 33.5 75s53.5 32 93.5 32c39.333 0 71 -10.667 95 -32s36 -46.333 36 -75c0 -31.333 -12 -57.166 -36 -77.499s-55.667 -30.5 -95 -30.5
c-40 0 -71.167 10.167 -93.5 30.5s-33.5 46.166 -33.5 77.499z" />
    <glyph glyph-name="edotaccent" unicode="&#x117;" horiz-adv-x="1040" 
d="M905 82c-40.667 -32.667 -92.167 -58.6641 -154.5 -77.9971s-128.166 -29 -197.499 -29c-78 0 -145.667 12.667 -203 38s-104.333 61.666 -141 108.999s-64 103.666 -82 168.999s-27 139 -27 221c0 174.667 39 307.834 117 399.501s189.333 137.5 334 137.5
c46.667 0 93.167 -5.16699 139.5 -15.5s87.833 -29.833 124.5 -58.5s66.667 -69.334 90 -122.001s35 -122 35 -208c0 -44.667 -4 -94.334 -12 -149.001h-658c0 -60 6.16699 -113.333 18.5 -160s31.5 -86 57.5 -118s59.833 -56.5 101.5 -73.5s92.5 -25.5 152.5 -25.5
c46.667 0 93.167 8.16699 139.5 24.5s81.166 35.5 104.499 57.5zM553 905.003c-80.667 0 -145.167 -21.167 -193.5 -63.5s-77.5 -114.5 -87.5 -216.5h508c0 103.333 -19.667 175.833 -59 217.5s-95.333 62.5 -168 62.5zM442 1335c0 31.333 10.5 58.333 31.5 81
s48.167 34 81.5 34c32.667 0 60.5 -11.333 83.5 -34s34.5 -49.667 34.5 -81s-11.5 -57.166 -34.5 -77.499s-50.833 -30.5 -83.5 -30.5c-33.333 0 -60.5 10.167 -81.5 30.5s-31.5 46.166 -31.5 77.499z" />
    <glyph glyph-name="Eogonek" unicode="&#x118;" 
d="M174 1434l779.998 -0.000976562v-152h-610v-469h559v-151h-559v-510h621v-152h-74c-35.333 -22 -63.666 -47.333 -84.999 -76s-32 -62.667 -32 -102c0 -27.333 8.83301 -51.666 26.5 -72.999s43.834 -32 78.501 -32c26 0 53.333 7 82 21l22 -88
c-20.667 -16.667 -48 -29 -82 -37s-65.333 -12 -94 -12c-61.333 0 -110.5 16.333 -147.5 49s-55.5 77 -55.5 133c0 48 14.333 90.333 43 127s69 66.667 121 90h-594v1434z" />
    <glyph glyph-name="eogonek" unicode="&#x119;" horiz-adv-x="1040" 
d="M905 82c-14.667 -12.667 -31.001 -23.6621 -49.001 -32.9951s-36.333 -18 -55 -26c-46.667 -23.333 -83 -51.833 -109 -85.5s-39.667 -72.167 -41 -115.5c1.33301 -28.667 11.333 -53.334 30 -74.001s45 -31.667 79 -33c26 1.33301 53.333 8.33301 82 21l22 -88
c-20 -16.667 -47.5 -28.667 -82.5 -36s-66.833 -11 -95.5 -11c-61.333 1.33301 -110.166 18 -146.499 50s-55.166 76 -56.499 132c0 40.667 10.333 77.5 31 110.5s48.667 60.833 84 83.5c-6.66699 -1.33301 -14.167 -2 -22.5 -2h-22.5c-78 0 -145.667 12.667 -203 38
s-104.333 61.666 -141 108.999s-64 103.666 -82 168.999s-27 139 -27 221c0 174.667 39 307.834 117 399.501s189.333 137.5 334 137.5c46.667 0 93.167 -5.16699 139.5 -15.5s87.833 -29.833 124.5 -58.5s66.667 -69.334 90 -122.001s35 -122 35 -208
c0 -44.667 -4 -94.334 -12 -149.001h-658c0 -60 6.16699 -113.333 18.5 -160s31.5 -86.334 57.5 -119.001s59.833 -57.167 101.5 -73.5s92.5 -24.5 152.5 -24.5c46.667 0 93.167 8.16699 139.5 24.5s81.166 35.5 104.499 57.5zM552.999 905.005
c-80.667 0 -145.167 -21.167 -193.5 -63.5s-77.5 -114.5 -87.5 -216.5h508c0 103.333 -19.667 175.833 -59 217.5s-95.333 62.5 -168 62.5z" />
    <glyph glyph-name="Ecaron" unicode="&#x11a;" 
d="M174 1434h780v-152h-610v-469h559v-151h-559v-510h621v-152h-791v1434zM602 1528h-119l-260 211v43h168l121 -103l34 -69l39 67l129 105h160v-45z" />
    <glyph glyph-name="ecaron" unicode="&#x11b;" horiz-adv-x="1040" 
d="M905 82c-40.667 -32.667 -92.167 -58.6641 -154.5 -77.9971s-128.166 -29 -197.499 -29c-78 0 -145.667 12.667 -203 38s-104.333 61.666 -141 108.999s-64 103.666 -82 168.999s-27 139 -27 221c0 174.667 39 307.834 117 399.501s189.333 137.5 334 137.5
c46.667 0 93.167 -5.16699 139.5 -15.5s87.833 -29.833 124.5 -58.5s66.667 -69.334 90 -122.001s35 -122 35 -208c0 -44.667 -4 -94.334 -12 -149.001h-658c0 -60 6.16699 -113.333 18.5 -160s31.5 -86 57.5 -118s59.833 -56.5 101.5 -73.5s92.5 -25.5 152.5 -25.5
c46.667 0 93.167 8.16699 139.5 24.5s81.166 35.5 104.499 57.5zM553 905.003c-80.667 0 -145.167 -21.167 -193.5 -63.5s-77.5 -114.5 -87.5 -216.5h508c0 103.333 -19.667 175.833 -59 217.5s-95.333 62.5 -168 62.5zM571 1126h-76l-235 373h160l79 -135l44 -119l45 119
l92 135h143z" />
    <glyph glyph-name="Gcircumflex" unicode="&#x11c;" horiz-adv-x="1253" 
d="M657 715l482.001 0.00390625v-631c-22 -16.667 -48.333 -31.834 -79 -45.501s-63.5 -25.167 -98.5 -34.5s-71.167 -16.5 -108.5 -21.5s-74 -7.5 -110 -7.5c-91.333 0 -175.166 14.667 -251.499 44s-142.5 74.5 -198.5 135.5s-99.667 138.167 -131 231.5
s-47 203.666 -47 330.999c0 132 19 245.167 57 339.5s87.833 171.166 149.5 230.499s130.667 102.666 207 129.999s152.833 41 229.5 41c82 0 149.5 -4.33301 202.5 -13s98.167 -20.667 135.5 -36l-43 -149c-66 31.333 -159.667 47 -281 47c-57.333 0 -114.333 -10 -171 -30
s-107.5 -53.167 -152.5 -99.5s-81.833 -107 -110.5 -182s-43 -167.833 -43 -278.5c0 -101.333 11.667 -188.833 35 -262.5s55.666 -134.667 96.999 -183s91.5 -84.5 150.5 -108.5s123.167 -36 192.5 -36c87.333 0 161.666 17 222.999 51v400l-336 40v97zM678.001 1782h123
l260 -209v-43h-166l-123 100l-34 72l-39 -70l-131 -102h-162v45z" />
    <glyph glyph-name="gcircumflex" unicode="&#x11d;" horiz-adv-x="1100" 
d="M942 -47c0 -132.667 -35.167 -230.334 -105.5 -293.001s-174.5 -94 -312.5 -94c-82 0 -147.833 5.16699 -197.5 15.5s-92.167 23.5 -127.5 39.5l43 139c31.333 -12 66 -23.5 104 -34.5s88 -16.5 150 -16.5c57.333 0 104 5.16699 140 15.5s65 27.5 87 51.5
s37 54.667 45 92s12 82 12 134v98h-8c-27.333 -39.333 -62.166 -69.666 -104.499 -90.999s-97.5 -32 -165.5 -32c-138 0 -239.5 43.167 -304.5 129.5s-97.5 220.166 -97.5 401.499c0 174.667 41.667 307.334 125 398.001s206.333 136 369 136c78 0 144.667 -6 200 -18
s104.666 -26.333 147.999 -43v-1028zM530 121c70 0 124.834 17.333 164.501 52s67.5 89 83.5 163v524c-54.667 26 -124.334 39 -209.001 39c-92.667 0 -165.667 -31.333 -219 -94s-80 -161 -80 -295c0 -57.333 4.83301 -109.833 14.5 -157.5s24.667 -88.667 45 -123
s47 -61 80 -80s73.167 -28.5 120.5 -28.5zM533.001 1499h65l228 -373h-148l-80 136l-43 118l-45 -118l-92 -136h-137z" />
    <glyph glyph-name="Gbreve" unicode="&#x11e;" horiz-adv-x="1253" 
d="M657 715l482.001 0.00390625v-631c-22 -16.667 -48.333 -31.834 -79 -45.501s-63.5 -25.167 -98.5 -34.5s-71.167 -16.5 -108.5 -21.5s-74 -7.5 -110 -7.5c-91.333 0 -175.166 14.667 -251.499 44s-142.5 74.5 -198.5 135.5s-99.667 138.167 -131 231.5
s-47 203.666 -47 330.999c0 132 19 245.167 57 339.5s87.833 171.166 149.5 230.499s130.667 102.666 207 129.999s152.833 41 229.5 41c82 0 149.5 -4.33301 202.5 -13s98.167 -20.667 135.5 -36l-43 -149c-66 31.333 -159.667 47 -281 47c-57.333 0 -114.333 -10 -171 -30
s-107.5 -53.167 -152.5 -99.5s-81.833 -107 -110.5 -182s-43 -167.833 -43 -278.5c0 -101.333 11.667 -188.833 35 -262.5s55.666 -134.667 96.999 -183s91.5 -84.5 150.5 -108.5s123.167 -36 192.5 -36c87.333 0 161.666 17 222.999 51v400l-336 40v97zM457.001 1784
c23.333 -46.667 58.835 -82.667 106.502 -108s103.5 -38 167.5 -38c66 0 121.5 14.333 166.5 43s77.167 63 96.5 103l81 -39c-12 -39.333 -29.333 -74.5 -52 -105.5s-49.334 -57.333 -80.001 -79s-64.334 -38 -101.001 -49s-74.334 -16.5 -113.001 -16.5
c-36.667 0 -73.167 4.83301 -109.5 14.5s-70.166 24 -101.499 43s-60 43.833 -86 74.5s-47 66.667 -63 108z" />
    <glyph glyph-name="gbreve" unicode="&#x11f;" horiz-adv-x="1100" 
d="M942 -47c0 -132.667 -35.167 -230.334 -105.5 -293.001s-174.5 -94 -312.5 -94c-82 0 -147.833 5.16699 -197.5 15.5s-92.167 23.5 -127.5 39.5l43 139c31.333 -12 66 -23.5 104 -34.5s88 -16.5 150 -16.5c57.333 0 104 5.16699 140 15.5s65 27.5 87 51.5
s37 54.667 45 92s12 82 12 134v98h-8c-27.333 -39.333 -62.166 -69.666 -104.499 -90.999s-97.5 -32 -165.5 -32c-138 0 -239.5 43.167 -304.5 129.5s-97.5 220.166 -97.5 401.499c0 174.667 41.667 307.334 125 398.001s206.333 136 369 136c78 0 144.667 -6 200 -18
s104.666 -26.333 147.999 -43v-1028zM530 121c70 0 124.834 17.333 164.501 52s67.5 89 83.5 163v524c-54.667 26 -124.334 39 -209.001 39c-92.667 0 -165.667 -31.333 -219 -94s-80 -161 -80 -295c0 -57.333 4.83301 -109.833 14.5 -157.5s24.667 -88.667 45 -123
s47 -61 80 -80s73.167 -28.5 120.5 -28.5zM330.001 1475c24.667 -49.333 57.498 -88.002 98.498 -116.002s84.5 -42 130.5 -42c46.667 0 88.834 13.667 126.501 41s68.167 66.333 91.5 117l86 -37c-4.66699 -32.667 -15.5 -65.167 -32.5 -97.5
s-38.833 -60.666 -65.5 -84.999s-57.667 -44 -93 -59s-73.666 -22.5 -114.999 -22.5c-38 0 -74 5.66699 -108 17s-65 28.333 -93 51s-52.333 49.334 -73 80.001s-35.667 65.667 -45 105z" />
    <glyph glyph-name="Gcommaaccent" unicode="&#x122;" horiz-adv-x="1253" 
d="M657 715l482.001 0.00390625v-631c-22 -16.667 -48.333 -31.834 -79 -45.501s-63.5 -25.167 -98.5 -34.5s-71.167 -16.5 -108.5 -21.5s-74 -7.5 -110 -7.5c-91.333 0 -175.166 14.667 -251.499 44s-142.5 74.5 -198.5 135.5s-99.667 138.167 -131 231.5
s-47 203.666 -47 330.999c0 132 19 245.167 57 339.5s87.833 171.166 149.5 230.499s130.667 102.666 207 129.999s152.833 41 229.5 41c82 0 149.5 -4.33301 202.5 -13s98.167 -20.667 135.5 -36l-43 -149c-66 31.333 -159.667 47 -281 47c-57.333 0 -114.333 -10 -171 -30
s-107.5 -53.167 -152.5 -99.5s-81.833 -107 -110.5 -182s-43 -167.833 -43 -278.5c0 -101.333 11.667 -188.833 35 -262.5s55.666 -134.667 96.999 -183s91.5 -84.5 150.5 -108.5s123.167 -36 192.5 -36c87.333 0 161.666 17 222.999 51v400l-336 40v97zM602.001 -208.996
c0 28.667 10.5 51.834 31.5 69.501s45.167 26.5 72.5 26.5c34.667 0 65.167 -11.833 91.5 -35.5s39.5 -62.834 39.5 -117.501c0 -35.333 -6 -66.333 -18 -93s-26.667 -50 -44 -70s-35.166 -35.833 -53.499 -47.5s-34.166 -20.167 -47.499 -25.5l-58 66
c27.333 14.667 49.166 33.667 65.499 57s24.5 51.333 24.5 84c-5.33301 -1.33301 -12 -2 -20 -2c-24.667 0 -44.834 8.16699 -60.501 24.5s-23.5 37.5 -23.5 63.5z" />
    <glyph glyph-name="gcommaaccent" unicode="&#x123;" horiz-adv-x="1100" 
d="M942 -47c0 -132.667 -35.167 -230.334 -105.5 -293.001s-174.5 -94 -312.5 -94c-82 0 -147.833 5.16699 -197.5 15.5s-92.167 23.5 -127.5 39.5l43 139c31.333 -12 66 -23.5 104 -34.5s88 -16.5 150 -16.5c57.333 0 104 5.16699 140 15.5s65 27.5 87 51.5
s37 54.667 45 92s12 82 12 134v98h-8c-27.333 -39.333 -62.166 -69.666 -104.499 -90.999s-97.5 -32 -165.5 -32c-138 0 -239.5 43.167 -304.5 129.5s-97.5 220.166 -97.5 401.499c0 174.667 41.667 307.334 125 398.001s206.333 136 369 136c78 0 144.667 -6 200 -18
s104.666 -26.333 147.999 -43v-1028zM530 121c70 0 124.834 17.333 164.501 52s67.5 89 83.5 163v524c-54.667 26 -124.334 39 -209.001 39c-92.667 0 -165.667 -31.333 -219 -94s-80 -161 -80 -295c0 -57.333 4.83301 -109.833 14.5 -157.5s24.667 -88.667 45 -123
s47 -61 80 -80s73.167 -28.5 120.5 -28.5zM706.084 1246.86c0 -28.6475 -10.4932 -51.7979 -31.4795 -69.4531c-20.9854 -17.6553 -45.1357 -26.4824 -72.4512 -26.4824c-34.6436 0 -65.123 11.8252 -91.4385 35.4766s-39.4736 62.792 -39.4736 117.422
c0 35.3096 5.99609 66.2891 17.9883 92.9375c11.9912 26.6494 26.6484 49.9668 43.9707 69.9531c17.3213 19.9863 35.1426 35.8086 53.4639 47.4678s34.1436 20.1533 47.4678 25.4834l57.9609 -65.9561c-27.3154 -14.6572 -49.1338 -33.6445 -65.4561 -56.9619
s-24.4834 -51.2988 -24.4834 -83.9443c5.33008 1.33301 11.9922 1.99902 19.9863 1.99902c24.6504 0 44.8037 -8.16113 60.46 -24.4834s23.4844 -37.4746 23.4844 -63.458z" />
    <glyph glyph-name="Hcircumflex" unicode="&#x124;" horiz-adv-x="1376" 
d="M1032 657h-688v-657h-170v1434h170v-625h688v625h170v-1434h-170v657zM628 1782h123l260 -209v-43h-166l-123 100l-34 72l-39 -70l-131 -102h-162v45z" />
    <glyph glyph-name="hcircumflex" unicode="&#x125;" horiz-adv-x="1120" 
d="M815 0l0.000976562 583.999c0 53.333 -3 100 -9 140s-17.167 73.333 -33.5 100s-38.5 46.834 -66.5 60.501s-64.667 20.5 -110 20.5c-64 0 -122 -20.833 -174 -62.5s-85.333 -95.167 -100 -160.5v-682h-164v1434h164v-525h8c35.333 42.667 77.833 76.667 127.5 102
s111.5 38 185.5 38c57.333 0 107.166 -6.5 149.499 -19.5s77.5 -36 105.5 -69s48.5 -77.167 61.5 -132.5s19.5 -125.333 19.5 -210v-618h-164zM190.001 1782h123l260 -209v-43h-166l-123 100l-34 72l-39 -70l-131 -102h-162v45z" />
    <glyph glyph-name="Hbar" unicode="&#x126;" horiz-adv-x="1386" 
d="M18 1202h162v232h170v-232h688v232h170v-232h162v-131h-162v-1071h-170v657h-688v-657h-170v1071h-162v131zM1038 809v262h-688v-262h688z" />
    <glyph glyph-name="hbar" unicode="&#x127;" horiz-adv-x="1124" 
d="M-2 1294l164.001 -0.000976562v140h164v-140h327v-123h-327v-262h8c35.333 42.667 78 76.667 128 102s111.667 38 185 38c57.333 0 107.166 -6.5 149.499 -19.5s77.5 -36 105.5 -69s48.5 -77.167 61.5 -132.5s19.5 -125.333 19.5 -210v-618h-164v584
c0 53.333 -3 100 -9 140s-17.167 73.333 -33.5 100s-38.5 46.834 -66.5 60.501s-64.667 20.5 -110 20.5c-64 0 -122 -20.833 -174 -62.5s-85.333 -95.167 -100 -160.5v-682h-164v1171h-164v123z" />
    <glyph glyph-name="Imacron" unicode="&#x12a;" horiz-adv-x="596" 
d="M213 1434h170v-1434h-170v1434zM-22 1726h647v-127h-647v127z" />
    <glyph glyph-name="imacron" unicode="&#x12b;" horiz-adv-x="549" 
d="M193 1024h163v-1024h-163v1024zM-27 1317h606v-127h-606v127z" />
    <glyph glyph-name="Iogonek" unicode="&#x12e;" horiz-adv-x="596" 
d="M213 1434l169.999 -0.000976562v-1434h-29c-35.333 -22 -63.166 -47.667 -83.499 -77s-30.5 -63.666 -30.5 -102.999c0 -27.333 8.83301 -51.666 26.5 -72.999s43.5 -32 77.5 -32c26 0 53.333 7 82 21l23 -88c-20.667 -16.667 -48.167 -28.667 -82.5 -36
s-65.833 -11 -94.5 -11c-61.333 0 -110.333 16 -147 48s-55 76 -55 132c0 48 14.333 90.667 43 128s68.667 67.666 120 90.999h-20v1434z" />
    <glyph glyph-name="iogonek" unicode="&#x12f;" horiz-adv-x="551" 
d="M193 1024h163v-1024h-37c-34 -22 -60.833 -48 -80.5 -78s-29.5 -64 -29.5 -102c0 -27.333 8.83301 -51.666 26.5 -72.999s43.5 -32 77.5 -32c26 0 53.333 7 82 21l23 -88c-20.667 -16.667 -48 -28.667 -82 -36s-66 -11 -96 -11c-62 0 -111 16 -147 48s-54 76 -54 132
c0 48 14.333 90.667 43 128s69 67.666 121 90.999h-10v1024zM158 1335c0 31.333 10.5 58.333 31.5 81s47.833 34 80.5 34s60.667 -11.333 84 -34s35 -49.667 35 -81s-11.667 -57.166 -35 -77.499s-51.333 -30.5 -84 -30.5s-59.5 10.167 -80.5 30.5
s-31.5 46.166 -31.5 77.499z" />
    <glyph glyph-name="Idotaccent" unicode="&#x130;" horiz-adv-x="596" 
d="M213 1434h170v-1434h-170v1434zM172 1632c0 28.667 11.167 53.667 33.5 75s53.5 32 93.5 32c39.333 0 71 -10.667 95 -32s36 -46.333 36 -75c0 -31.333 -12 -57.166 -36 -77.499s-55.667 -30.5 -95 -30.5c-40 0 -71.167 10.167 -93.5 30.5s-33.5 46.166 -33.5 77.499z
" />
    <glyph glyph-name="dotlessi" unicode="&#x131;" horiz-adv-x="549" 
d="M193 1024h163v-1024h-163v1024z" />
    <glyph glyph-name="Jcircumflex" unicode="&#x134;" horiz-adv-x="596" 
d="M229 1434l170 0.000976562v-1119c0 -108.667 -24.167 -191.667 -72.5 -249s-121.833 -86 -220.5 -86c-10.667 0 -24.167 0.666992 -40.5 2s-32.666 3.33301 -48.999 6s-32.333 6 -48 10s-28.5 8.66699 -38.5 14l33 146c38 -18 79.667 -27 125 -27
c57.333 0 95.166 20.167 113.499 60.5s27.5 95.166 27.5 164.499v1078zM256 1782h123l260 -209v-43h-166l-123 100l-34 72l-39 -70l-131 -102h-162v45z" />
    <glyph glyph-name="jcircumflex" unicode="&#x135;" horiz-adv-x="547" 
d="M190 1024l164 -0.000976562v-1079c0 -127.333 -21.833 -222.333 -65.5 -285s-113.167 -94 -208.5 -94c-11.333 0 -21.666 0.333008 -30.999 1s-19.666 1.66699 -30.999 3v139c38.667 0 69.167 5.83301 91.5 17.5s39.666 29.834 51.999 54.501s20.166 55.667 23.499 93
s5 81.333 5 132v1018zM254 1499h65l228 -373h-148l-80 136l-43 118l-45 -118l-92 -136h-137z" />
    <glyph glyph-name="Kcommaaccent" unicode="&#x136;" horiz-adv-x="1249" 
d="M440 664h-96v-664h-170v1434h170v-668l92 29l482 639h196l-479 -617l-86 -67l104 -82l525 -668h-215zM475 -209c0 28.667 10.5 51.834 31.5 69.501s45.167 26.5 72.5 26.5c34.667 0 65.167 -11.833 91.5 -35.5s39.5 -62.834 39.5 -117.501c0 -35.333 -6 -66.333 -18 -93
s-26.667 -50 -44 -70s-35.166 -35.833 -53.499 -47.5s-34.166 -20.167 -47.499 -25.5l-58 66c27.333 14.667 49.166 33.667 65.499 57s24.5 51.333 24.5 84c-5.33301 -1.33301 -12 -2 -20 -2c-24.667 0 -44.834 8.16699 -60.501 24.5s-23.5 37.5 -23.5 63.5z" />
    <glyph glyph-name="kcommaaccent" unicode="&#x137;" horiz-adv-x="981" 
d="M416 461h-94v-461h-164v1434h164v-873l84 29l317 434h190l-313 -412l-84 -67l102 -82l343 -463h-203zM375 -209c0 28.667 10.5 51.834 31.5 69.501s45.167 26.5 72.5 26.5c34.667 0 65.167 -11.833 91.5 -35.5s39.5 -62.834 39.5 -117.501c0 -35.333 -6 -66.333 -18 -93
s-26.667 -50 -44 -70s-35.166 -35.833 -53.499 -47.5s-34.166 -20.167 -47.499 -25.5l-58 66c27.333 14.667 49.166 33.667 65.499 57s24.5 51.333 24.5 84c-5.33301 -1.33301 -12 -2 -20 -2c-24.667 0 -44.834 8.16699 -60.501 24.5s-23.5 37.5 -23.5 63.5z" />
    <glyph glyph-name="Lacute" unicode="&#x139;" horiz-adv-x="1059" 
d="M1022 0h-848v1434h170v-1282h678v-152zM474 1782h233v-43l-334 -199h-141z" />
    <glyph glyph-name="lacute" unicode="&#x13a;" horiz-adv-x="598" 
d="M340 252c0 -48 8.16699 -82.167 24.5 -102.5s39.5 -30.5 69.5 -30.5c18 0 37.167 1.33301 57.5 4s43.5 8.66699 69.5 18l19 -129c-22 -10.667 -52.5 -19.5 -91.5 -26.5s-72.833 -10.5 -101.5 -10.5c-61.333 0 -111.833 17.5 -151.5 52.5s-59.5 94.167 -59.5 177.5v1229
h164v-1182zM426 1782h233v-43l-334 -199h-141z" />
    <glyph glyph-name="Lcommaaccent" unicode="&#x13b;" horiz-adv-x="1059" 
d="M1022 0h-848v1434h170v-1282h678v-152zM393 -209c0 28.667 10.5 51.834 31.5 69.501s45.167 26.5 72.5 26.5c34.667 0 65.167 -11.833 91.5 -35.5s39.5 -62.834 39.5 -117.501c0 -35.333 -6 -66.333 -18 -93s-26.667 -50 -44 -70s-35.166 -35.833 -53.499 -47.5
s-34.166 -20.167 -47.499 -25.5l-58 66c27.333 14.667 49.166 33.667 65.499 57s24.5 51.333 24.5 84c-5.33301 -1.33301 -12 -2 -20 -2c-24.667 0 -44.834 8.16699 -60.501 24.5s-23.5 37.5 -23.5 63.5z" />
    <glyph glyph-name="lcommaaccent" unicode="&#x13c;" horiz-adv-x="598" 
d="M340 252c0 -48 8.16699 -82.167 24.5 -102.5s39.5 -30.5 69.5 -30.5c18 0 37.167 1.33301 57.5 4s43.5 8.66699 69.5 18l19 -129c-22 -10.667 -52.5 -19.5 -91.5 -26.5s-72.833 -10.5 -101.5 -10.5c-61.333 0 -111.833 17.5 -151.5 52.5s-59.5 94.167 -59.5 177.5v1229
h164v-1182zM240 -209c0 28.667 10.5 51.834 31.5 69.501s45.167 26.5 72.5 26.5c34.667 0 65.167 -11.833 91.5 -35.5s39.5 -62.834 39.5 -117.501c0 -35.333 -6 -66.333 -18 -93s-26.667 -50 -44 -70s-35.166 -35.833 -53.499 -47.5s-34.166 -20.167 -47.499 -25.5l-58 66
c27.333 14.667 49.166 33.667 65.499 57s24.5 51.333 24.5 84c-5.33301 -1.33301 -12 -2 -20 -2c-24.667 0 -44.834 8.16699 -60.501 24.5s-23.5 37.5 -23.5 63.5z" />
    <glyph glyph-name="Lcaron" unicode="&#x13d;" horiz-adv-x="1059" 
d="M1022 0h-848v1434h170v-1282h678v-152zM878 1434c-2.66699 -40 -10.832 -80.834 -24.499 -122.501s-29 -80.167 -46 -115.5s-34.333 -66.666 -52 -93.999s-32.834 -47.333 -45.501 -60l-67 37c23.333 49.333 41 105 53 167s18 124.667 18 188h164z" />
    <glyph glyph-name="lcaron" unicode="&#x13e;" horiz-adv-x="598" 
d="M340 252c0 -48 8.16699 -82.167 24.5 -102.5s39.5 -30.5 69.5 -30.5c18 0 37.167 1.33301 57.5 4s43.5 8.66699 69.5 18l19 -129c-22 -10.667 -52.5 -19.5 -91.5 -26.5s-72.833 -10.5 -101.5 -10.5c-61.333 0 -111.833 17.5 -151.5 52.5s-59.5 94.167 -59.5 177.5v1229
h164v-1182zM657 1434c-2.66699 -40 -10.832 -80.834 -24.499 -122.501s-29 -80.167 -46 -115.5s-34.333 -66.666 -52 -93.999s-32.834 -47.333 -45.501 -60l-67 37c23.333 49.333 41 105 53 167s18 124.667 18 188h164z" />
    <glyph glyph-name="Lslash" unicode="&#x141;" horiz-adv-x="1059" 
d="M31 588l143 112v734h170v-600l219 172v-164l-219 -168v-522h678v-152h-848v543l-143 -111v156z" />
    <glyph glyph-name="lslash" unicode="&#x142;" horiz-adv-x="598" 
d="M20 584l156 121v729h164v-600l213 167v-163l-213 -164v-422c0 -48 8.16699 -82.167 24.5 -102.5s39.5 -30.5 69.5 -30.5c18 0 37.167 1.33301 57.5 4s43.5 8.66699 69.5 18l19 -129c-22 -10.667 -52.5 -19.5 -91.5 -26.5s-72.833 -10.5 -101.5 -10.5
c-61.333 0 -111.833 17.5 -151.5 52.5s-59.5 94.167 -59.5 177.5v342l-156 -119v156z" />
    <glyph glyph-name="Nacute" unicode="&#x143;" horiz-adv-x="1378" 
d="M432 938l-110 207h-9l21 -207v-938h-160v1456h90l686 -956l107 -197h10l-23 197v934h160v-1457h-90zM834 1782h233v-43l-334 -199h-141z" />
    <glyph glyph-name="nacute" unicode="&#x144;" horiz-adv-x="1120" 
d="M815 0v584c0 106 -15.333 186 -46 240s-87 81 -169 81c-72 0 -131.667 -19.5 -179 -58.5s-80.333 -87.833 -99 -146.5v-700h-164v1024h114l31 -125h8c32.667 44 76.667 80 132 108s121.333 42 198 42c56 0 105.167 -6.5 147.5 -19.5s77.5 -36 105.5 -69
s49.167 -77.167 63.5 -132.5s21.5 -125.333 21.5 -210v-618h-164zM615 1475h182v-43l-207 -263h-96z" />
    <glyph glyph-name="Ncommaaccent" unicode="&#x145;" horiz-adv-x="1378" 
d="M432 938l-110 207h-9l21 -207v-938h-160v1456h90l686 -956l107 -197h10l-23 197v934h160v-1457h-90zM572 -209c0 28.667 10.5 51.834 31.5 69.501s45.167 26.5 72.5 26.5c34.667 0 65.167 -11.833 91.5 -35.5s39.5 -62.834 39.5 -117.501c0 -35.333 -6 -66.333 -18 -93
s-26.667 -50 -44 -70s-35.166 -35.833 -53.499 -47.5s-34.166 -20.167 -47.499 -25.5l-58 66c27.333 14.667 49.166 33.667 65.499 57s24.5 51.333 24.5 84c-5.33301 -1.33301 -12 -2 -20 -2c-24.667 0 -44.834 8.16699 -60.501 24.5s-23.5 37.5 -23.5 63.5z" />
    <glyph glyph-name="ncommaaccent" unicode="&#x146;" horiz-adv-x="1120" 
d="M815 0v584c0 106 -15.333 186 -46 240s-87 81 -169 81c-72 0 -131.667 -19.5 -179 -58.5s-80.333 -87.833 -99 -146.5v-700h-164v1024h114l31 -125h8c32.667 44 76.667 80 132 108s121.333 42 198 42c56 0 105.167 -6.5 147.5 -19.5s77.5 -36 105.5 -69
s49.167 -77.167 63.5 -132.5s21.5 -125.333 21.5 -210v-618h-164zM442 -209c0 28.667 10.5 51.834 31.5 69.501s45.167 26.5 72.5 26.5c34.667 0 65.167 -11.833 91.5 -35.5s39.5 -62.834 39.5 -117.501c0 -35.333 -6 -66.333 -18 -93s-26.667 -50 -44 -70
s-35.166 -35.833 -53.499 -47.5s-34.166 -20.167 -47.499 -25.5l-58 66c27.333 14.667 49.166 33.667 65.499 57s24.5 51.333 24.5 84c-5.33301 -1.33301 -12 -2 -20 -2c-24.667 0 -44.834 8.16699 -60.501 24.5s-23.5 37.5 -23.5 63.5z" />
    <glyph glyph-name="Ncaron" unicode="&#x147;" horiz-adv-x="1378" 
d="M432 938l-110 207h-9l21 -207v-938h-160v1456h90l686 -956l107 -197h10l-23 197v934h160v-1457h-90zM746 1528h-119l-260 211v43h168l121 -103l34 -69l39 67l129 105h160v-45z" />
    <glyph glyph-name="ncaron" unicode="&#x148;" horiz-adv-x="1120" 
d="M815 0v584c0 106 -15.333 186 -46 240s-87 81 -169 81c-72 0 -131.667 -19.5 -179 -58.5s-80.333 -87.833 -99 -146.5v-700h-164v1024h114l31 -125h8c32.667 44 76.667 80 132 108s121.333 42 198 42c56 0 105.167 -6.5 147.5 -19.5s77.5 -36 105.5 -69
s49.167 -77.167 63.5 -132.5s21.5 -125.333 21.5 -210v-618h-164zM592 1126h-76l-235 373h160l79 -135l44 -119l45 119l92 135h143z" />
    <glyph glyph-name="Omacron" unicode="&#x14c;" horiz-adv-x="1401" 
d="M115 717c0 238.667 50.5 421.832 151.5 549.499s244.833 191.5 431.5 191.5c101.333 0 188.833 -17.667 262.5 -53s134.834 -85.5 183.501 -150.5s84.5 -142.833 107.5 -233.5s34.5 -192 34.5 -304c0 -239.333 -50.833 -422.833 -152.5 -550.5
s-246.834 -191.5 -435.501 -191.5c-99.333 0 -185.5 17.833 -258.5 53.5s-133.833 85.834 -182.5 150.501s-84.5 142.5 -107.5 233.5s-34.5 192.5 -34.5 304.5zM295 716.998c0 -79.333 7.83496 -154.501 23.502 -225.501s39.834 -133.5 72.501 -187.5s74.667 -97 126 -129
s111.666 -48 180.999 -48c127.333 0 227.166 48.167 299.499 144.5s108.5 244.833 108.5 445.5c0 78 -7.83301 152.833 -23.5 224.5s-40.334 134.334 -74.001 188.001s-76 96.667 -127 129s-112.167 48.5 -183.5 48.5c-125.333 0 -223.833 -48.167 -295.5 -144.5
s-107.5 -244.833 -107.5 -445.5zM389.002 1726h647v-127h-647v127z" />
    <glyph glyph-name="omacron" unicode="&#x14d;" 
d="M100 512c0 173.333 38.666 306.166 115.999 398.499s188.333 138.5 333 138.5c76.667 0 143.334 -12.667 200.001 -38s103.334 -61.666 140.001 -108.999s63.834 -104 81.501 -170s26.5 -139.333 26.5 -220c0 -173.333 -38.5 -306.166 -115.5 -398.499
s-187.833 -138.5 -332.5 -138.5c-76.667 0 -143.334 12.667 -200.001 38s-103.334 61.666 -140.001 108.999s-64 104 -82 170s-27 139.333 -27 220zM269.999 512c0 -52 5.16699 -101.832 15.5 -149.499s26.5 -89.334 48.5 -125.001s50.667 -64.334 86 -86.001
s78.333 -32.5 129 -32.5c185.333 -1.33301 278 129.667 278 393c0 53.333 -5 103.833 -15 151.5s-26 89.334 -48 125.001s-50.667 64 -86 85s-78.333 31.5 -129 31.5c-186 1.33301 -279 -129.667 -279 -393zM245.999 1317h606v-127h-606v127z" />
    <glyph glyph-name="Ohungarumlaut" unicode="&#x150;" horiz-adv-x="1401" 
d="M115 717c0 238.667 50.5 421.832 151.5 549.499s244.833 191.5 431.5 191.5c101.333 0 188.833 -17.667 262.5 -53s134.834 -85.5 183.501 -150.5s84.5 -142.833 107.5 -233.5s34.5 -192 34.5 -304c0 -239.333 -50.833 -422.833 -152.5 -550.5
s-246.834 -191.5 -435.501 -191.5c-99.333 0 -185.5 17.833 -258.5 53.5s-133.833 85.834 -182.5 150.501s-84.5 142.5 -107.5 233.5s-34.5 192.5 -34.5 304.5zM295 716.998c0 -79.333 7.83496 -154.501 23.502 -225.501s39.834 -133.5 72.501 -187.5s74.667 -97 126 -129
s111.666 -48 180.999 -48c127.333 0 227.166 48.167 299.499 144.5s108.5 244.833 108.5 445.5c0 78 -7.83301 152.833 -23.5 224.5s-40.334 134.334 -74.001 188.001s-76 96.667 -127 129s-112.167 48.5 -183.5 48.5c-125.333 0 -223.833 -48.167 -295.5 -144.5
s-107.5 -244.833 -107.5 -445.5zM627.002 1741h190v-33l-204 -190h-117zM959.002 1741h202v-33l-292 -190h-119z" />
    <glyph glyph-name="ohungarumlaut" unicode="&#x151;" 
d="M100 512c0 173.333 38.666 306.166 115.999 398.499s188.333 138.5 333 138.5c76.667 0 143.334 -12.667 200.001 -38s103.334 -61.666 140.001 -108.999s63.834 -104 81.501 -170s26.5 -139.333 26.5 -220c0 -173.333 -38.5 -306.166 -115.5 -398.499
s-187.833 -138.5 -332.5 -138.5c-76.667 0 -143.334 12.667 -200.001 38s-103.334 61.666 -140.001 108.999s-64 104 -82 170s-27 139.333 -27 220zM269.999 512c0 -52 5.16699 -101.832 15.5 -149.499s26.5 -89.334 48.5 -125.001s50.667 -64.334 86 -86.001
s78.333 -32.5 129 -32.5c185.333 -1.33301 278 129.667 278 393c0 53.333 -5 103.833 -15 151.5s-26 89.334 -48 125.001s-50.667 64 -86 85s-78.333 31.5 -129 31.5c-186 1.33301 -279 -129.667 -279 -393zM432.999 1434h159v-33l-145 -232h-86zM731.999 1434h176v-33
l-234 -232h-92z" />
    <glyph glyph-name="OE" unicode="&#x152;" horiz-adv-x="1909" 
d="M985 1266c-38 14.667 -82.333 25.167 -133 31.5s-102 9.5 -154 9.5c-125.333 0 -223.833 -48.167 -295.5 -144.5s-107.5 -244.833 -107.5 -445.5c0 -79.333 7.83301 -154.5 23.5 -225.5s40.5 -133.5 74.5 -187.5s77.667 -97 131 -129s117 -48 191 -48
c39.333 0 79.833 1.33301 121.5 4s91.167 13 148.5 31v1104zM985 0c-34 -6.66699 -74.834 -12.501 -122.501 -17.501s-102.5 -7.5 -164.5 -7.5c-99.333 0 -185.5 17.833 -258.5 53.5s-133.833 85.834 -182.5 150.501s-84.5 142.5 -107.5 233.5s-34.5 192.5 -34.5 304.5
c0 238.667 50.5 421.834 151.5 549.501s244.833 191.5 431.5 191.5c64.667 0 117.834 -2.33301 159.501 -7s84.167 -10.334 127.5 -17.001h780v-152h-610v-469h559v-151h-559v-510h621v-152h-791z" />
    <glyph glyph-name="oe" unicode="&#x153;" horiz-adv-x="1757" 
d="M270 512c0 -52 5.16699 -101.834 15.5 -149.501s26.5 -89.667 48.5 -126s50.667 -65 86 -86s78.333 -31.5 129 -31.5c184 -1.33301 276 129.667 276 393c0 53.333 -4.66699 103.833 -14 151.5s-25 89.334 -47 125.001s-50.667 64 -86 85s-78.333 31.5 -129 31.5
c-186 1.33301 -279 -129.667 -279 -393zM905 165.999c-36.667 -61.333 -84.665 -108.497 -143.998 -141.497s-130 -49.5 -212 -49.5c-76.667 0 -143.334 12.667 -200.001 38s-103.334 61.666 -140.001 108.999s-64 104 -82 170s-27 139.333 -27 220
c0 173.333 38.667 306.166 116 398.499s188.333 138.5 333 138.5c86 0 158.667 -17.833 218 -53.5s106.666 -80.834 141.999 -135.501c36 57.333 84.333 103.166 145 137.499s132 51.5 214 51.5c46 0 92.333 -5.16699 139 -15.5s88.334 -29.833 125.001 -58.5
s66.667 -69.334 90 -122.001s35 -122 35 -208c0 -23.333 -0.666992 -47.166 -2 -71.499s-4 -50.166 -8 -77.499h-662c0 -60 6.16699 -113.667 18.5 -161s31.5 -87.333 57.5 -120s60.167 -57.167 102.5 -73.5s93.5 -24.5 153.5 -24.5c48 0 94.833 8.5 140.5 25.5
s80.167 36.5 103.5 58.5l61 -119c-40.667 -32.667 -92.167 -58.667 -154.5 -78s-128.166 -29 -197.499 -29c-84.667 0 -157.834 17.167 -219.501 51.5s-110.167 80.833 -145.5 139.5zM1270 907.002c-79.333 0 -143.5 -21.5 -192.5 -64.5s-78.5 -115.5 -88.5 -217.5h508v18
c0 94 -20.5 161.5 -61.5 202.5s-96.167 61.5 -165.5 61.5z" />
    <glyph glyph-name="Racute" unicode="&#x154;" horiz-adv-x="1177" 
d="M163 1399c50.667 12.667 102.168 21.0029 154.501 25.0029s101.833 6 148.5 6c72 0 140.5 -7.16699 205.5 -21.5s121.667 -34.833 170 -61.5s86.5 -69.334 114.5 -128.001s42 -126.334 42 -203.001c0 -60 -8.5 -113.333 -25.5 -160s-40.833 -85.667 -71.5 -117
s-66.834 -58.333 -108.501 -81s-87.167 -39.334 -136.5 -50.001l125 -88l320 -520h-201l-356 590l-211 45v-635h-170v1399zM392.001 1289.5c-20.667 -2.33301 -40.332 -5.50098 -58.999 -9.50098v-547h139c48 0 92.833 5.5 134.5 16.5s78.167 28.333 109.5 52
s56.166 52.334 74.499 86.001s27.5 76.5 27.5 128.5c0 49.333 -9.5 92.333 -28.5 129s-44.5 66 -76.5 88s-68.5 37.5 -109.5 46.5s-84.167 13.5 -129.5 13.5c-34 0 -61.333 -1.16699 -82 -3.5zM656.003 1782h233v-43l-334 -199h-141z" />
    <glyph glyph-name="racute" unicode="&#x155;" horiz-adv-x="696" 
d="M641 866c-40.667 14 -79.666 21 -116.999 21c-58.667 0 -105 -16 -139 -48s-55 -72.667 -63 -122v-717h-164v1024h114l31 -125h8c26 46.667 57.167 82.5 93.5 107.5s82.5 37.5 138.5 37.5c39.333 0 83.666 -6.66699 132.999 -20zM400.001 1475h182v-43l-207 -263h-96z
" />
    <glyph glyph-name="Rcommaaccent" unicode="&#x156;" horiz-adv-x="1177" 
d="M163 1399c50.667 12.667 102.168 21.0029 154.501 25.0029s101.833 6 148.5 6c72 0 140.5 -7.16699 205.5 -21.5s121.667 -34.833 170 -61.5s86.5 -69.334 114.5 -128.001s42 -126.334 42 -203.001c0 -60 -8.5 -113.333 -25.5 -160s-40.833 -85.667 -71.5 -117
s-66.834 -58.333 -108.501 -81s-87.167 -39.334 -136.5 -50.001l125 -88l320 -520h-201l-356 590l-211 45v-635h-170v1399zM392.001 1289.5c-20.667 -2.33301 -40.332 -5.50098 -58.999 -9.50098v-547h139c48 0 92.833 5.5 134.5 16.5s78.167 28.333 109.5 52
s56.166 52.334 74.499 86.001s27.5 76.5 27.5 128.5c0 49.333 -9.5 92.333 -28.5 129s-44.5 66 -76.5 88s-68.5 37.5 -109.5 46.5s-84.167 13.5 -129.5 13.5c-34 0 -61.333 -1.16699 -82 -3.5zM490.003 -208.998c0 28.667 10.5 51.834 31.5 69.501s45.167 26.5 72.5 26.5
c34.667 0 65.167 -11.833 91.5 -35.5s39.5 -62.834 39.5 -117.501c0 -35.333 -6 -66.333 -18 -93s-26.667 -50 -44 -70s-35.166 -35.833 -53.499 -47.5s-34.166 -20.167 -47.499 -25.5l-58 66c27.333 14.667 49.166 33.667 65.499 57s24.5 51.333 24.5 84
c-5.33301 -1.33301 -12 -2 -20 -2c-24.667 0 -44.834 8.16699 -60.501 24.5s-23.5 37.5 -23.5 63.5z" />
    <glyph glyph-name="rcommaaccent" unicode="&#x157;" horiz-adv-x="696" 
d="M641 866c-40.667 14 -79.666 21 -116.999 21c-58.667 0 -105 -16 -139 -48s-55 -72.667 -63 -122v-717h-164v1024h114l31 -125h8c26 46.667 57.167 82.5 93.5 107.5s82.5 37.5 138.5 37.5c39.333 0 83.666 -6.66699 132.999 -20zM174.001 -209
c0 28.667 10.5 51.834 31.5 69.501s45.167 26.5 72.5 26.5c34.667 0 65.167 -11.833 91.5 -35.5s39.5 -62.834 39.5 -117.501c0 -35.333 -6 -66.333 -18 -93s-26.667 -50 -44 -70s-35.166 -35.833 -53.499 -47.5s-34.166 -20.167 -47.499 -25.5l-58 66
c27.333 14.667 49.166 33.667 65.499 57s24.5 51.333 24.5 84c-5.33301 -1.33301 -12 -2 -20 -2c-24.667 0 -44.834 8.16699 -60.501 24.5s-23.5 37.5 -23.5 63.5z" />
    <glyph glyph-name="Rcaron" unicode="&#x158;" horiz-adv-x="1177" 
d="M163 1399c50.667 12.667 102.168 21.0029 154.501 25.0029s101.833 6 148.5 6c72 0 140.5 -7.16699 205.5 -21.5s121.667 -34.833 170 -61.5s86.5 -69.334 114.5 -128.001s42 -126.334 42 -203.001c0 -60 -8.5 -113.333 -25.5 -160s-40.833 -85.667 -71.5 -117
s-66.834 -58.333 -108.501 -81s-87.167 -39.334 -136.5 -50.001l125 -88l320 -520h-201l-356 590l-211 45v-635h-170v1399zM392.001 1289.5c-20.667 -2.33301 -40.332 -5.50098 -58.999 -9.50098v-547h139c48 0 92.833 5.5 134.5 16.5s78.167 28.333 109.5 52
s56.166 52.334 74.499 86.001s27.5 76.5 27.5 128.5c0 49.333 -9.5 92.333 -28.5 129s-44.5 66 -76.5 88s-68.5 37.5 -109.5 46.5s-84.167 13.5 -129.5 13.5c-34 0 -61.333 -1.16699 -82 -3.5zM568.003 1528h-119l-260 211v43h168l121 -103l34 -69l39 67l129 105h160v-45z
" />
    <glyph glyph-name="rcaron" unicode="&#x159;" horiz-adv-x="696" 
d="M641 866c-40.667 14 -79.666 21 -116.999 21c-58.667 0 -105 -16 -139 -48s-55 -72.667 -63 -122v-717h-164v1024h114l31 -125h8c26 46.667 57.167 82.5 93.5 107.5s82.5 37.5 138.5 37.5c39.333 0 83.666 -6.66699 132.999 -20zM422.001 1126h-76l-235 373h160l79 -135
l44 -119l45 119l92 135h143z" />
    <glyph glyph-name="Sacute" unicode="&#x15a;" horiz-adv-x="1087" 
d="M821 365c0 57.333 -17 103.993 -51 139.993s-76.667 68 -128 96s-107 54.333 -167 79s-115.667 54.334 -167 89.001s-94 77.667 -128 129s-51 116.666 -51 195.999c0 112 38.833 200.667 116.5 266s188.5 98 332.5 98c82.667 0 158.167 -6.16699 226.5 -18.5
s121.833 -27.833 160.5 -46.5l-52 -150c-31.333 15.333 -77.333 29.833 -138 43.5s-129.334 20.5 -206.001 20.5c-90 0 -157.5 -20.167 -202.5 -60.5s-67.5 -87.833 -67.5 -142.5c0 -53.333 17 -97.666 51 -132.999s76.667 -67 128 -95s107 -55.667 167 -83
s115.667 -59.166 167 -95.499s94 -79.666 128 -129.999s51 -113.166 51 -188.499c0 -61.333 -10.833 -116.666 -32.5 -165.999s-53.667 -91.666 -96 -126.999s-93.666 -62.666 -153.999 -81.999s-128.5 -29 -204.5 -29c-102.667 0 -187.334 8 -254.001 24
s-118.667 33.333 -156 52l58 154c31.333 -18 77.666 -35.5 138.999 -52.5s130.333 -25.5 207 -25.5c44.667 0 86.834 4.5 126.501 13.5s73.834 23.333 102.501 43s51.5 44.5 68.5 74.5s25.5 65.667 25.5 107zM709 1781.99h233v-43l-334 -199h-141z" />
    <glyph glyph-name="sacute" unicode="&#x15b;" horiz-adv-x="862" 
d="M608 279c0 40.667 -12.166 72.666 -36.499 95.999s-54.666 42.833 -90.999 58.5s-76 30.667 -119 45s-82.667 32.666 -119 54.999s-66.666 51.333 -90.999 87s-36.5 83.5 -36.5 143.5c0 98 28 170 84 216s133.667 69 233 69c74 0 135.833 -6.5 185.5 -19.5
s93.167 -28.5 130.5 -46.5l-39 -135c-31.333 14.667 -69.333 27.834 -114 39.501s-92 17.5 -142 17.5c-60.667 0 -104.834 -10.167 -132.501 -30.5s-41.5 -55.833 -41.5 -106.5c0 -35.333 12.167 -63 36.5 -83s54.666 -37.833 90.999 -53.5s76 -31 119 -46
s82.5 -34.833 118.5 -59.5s66.333 -55.667 91 -93s37 -86.666 37 -147.999c0 -44 -7.16699 -85.167 -21.5 -123.5s-36.5 -71 -66.5 -98s-67.167 -48.5 -111.5 -64.5s-96.5 -24 -156.5 -24c-78 0 -144.333 7.5 -199 22.5s-100.334 32.833 -137.001 53.5l49 139
c31.333 -17.333 72.333 -33.5 123 -48.5s102 -22.5 154 -22.5c58.667 0 107 11.5 145 34.5s57 64.833 57 125.5zM484.001 1475h182v-43l-207 -263h-96z" />
    <glyph glyph-name="Scircumflex" unicode="&#x15c;" horiz-adv-x="1087" 
d="M821 365c0 57.333 -17 103.993 -51 139.993s-76.667 68 -128 96s-107 54.333 -167 79s-115.667 54.334 -167 89.001s-94 77.667 -128 129s-51 116.666 -51 195.999c0 112 38.833 200.667 116.5 266s188.5 98 332.5 98c82.667 0 158.167 -6.16699 226.5 -18.5
s121.833 -27.833 160.5 -46.5l-52 -150c-31.333 15.333 -77.333 29.833 -138 43.5s-129.334 20.5 -206.001 20.5c-90 0 -157.5 -20.167 -202.5 -60.5s-67.5 -87.833 -67.5 -142.5c0 -53.333 17 -97.666 51 -132.999s76.667 -67 128 -95s107 -55.667 167 -83
s115.667 -59.166 167 -95.499s94 -79.666 128 -129.999s51 -113.166 51 -188.499c0 -61.333 -10.833 -116.666 -32.5 -165.999s-53.667 -91.666 -96 -126.999s-93.666 -62.666 -153.999 -81.999s-128.5 -29 -204.5 -29c-102.667 0 -187.334 8 -254.001 24
s-118.667 33.333 -156 52l58 154c31.333 -18 77.666 -35.5 138.999 -52.5s130.333 -25.5 207 -25.5c44.667 0 86.834 4.5 126.501 13.5s73.834 23.333 102.501 43s51.5 44.5 68.5 74.5s25.5 65.667 25.5 107zM516 1781.99h123l260 -209v-43h-166l-123 100l-34 72l-39 -70
l-131 -102h-162v45z" />
    <glyph glyph-name="scircumflex" unicode="&#x15d;" horiz-adv-x="862" 
d="M608 279c0 40.667 -12.166 72.666 -36.499 95.999s-54.666 42.833 -90.999 58.5s-76 30.667 -119 45s-82.667 32.666 -119 54.999s-66.666 51.333 -90.999 87s-36.5 83.5 -36.5 143.5c0 98 28 170 84 216s133.667 69 233 69c74 0 135.833 -6.5 185.5 -19.5
s93.167 -28.5 130.5 -46.5l-39 -135c-31.333 14.667 -69.333 27.834 -114 39.501s-92 17.5 -142 17.5c-60.667 0 -104.834 -10.167 -132.501 -30.5s-41.5 -55.833 -41.5 -106.5c0 -35.333 12.167 -63 36.5 -83s54.666 -37.833 90.999 -53.5s76 -31 119 -46
s82.5 -34.833 118.5 -59.5s66.333 -55.667 91 -93s37 -86.666 37 -147.999c0 -44 -7.16699 -85.167 -21.5 -123.5s-36.5 -71 -66.5 -98s-67.167 -48.5 -111.5 -64.5s-96.5 -24 -156.5 -24c-78 0 -144.333 7.5 -199 22.5s-100.334 32.833 -137.001 53.5l49 139
c31.333 -17.333 72.333 -33.5 123 -48.5s102 -22.5 154 -22.5c58.667 0 107 11.5 145 34.5s57 64.833 57 125.5zM412.001 1499h65l228 -373h-148l-80 136l-43 118l-45 -118l-92 -136h-137z" />
    <glyph glyph-name="Scedilla" unicode="&#x15e;" horiz-adv-x="1087" 
d="M821 365c0 57.333 -16.998 103.998 -50.998 139.998s-76.667 68 -128 96s-107 54.333 -167 79s-115.667 54.334 -167 89.001s-94 77.667 -128 129s-51 116.666 -51 195.999c0 112 38.833 200.667 116.5 266s188.5 98 332.5 98c82.667 0 158.167 -6.16699 226.5 -18.5
s121.833 -27.833 160.5 -46.5l-52 -150c-31.333 15.333 -77.333 29.833 -138 43.5s-129.334 20.5 -206.001 20.5c-90 0 -157.5 -20.167 -202.5 -60.5s-67.5 -87.833 -67.5 -142.5c0 -53.333 17 -97.666 51 -132.999s76.667 -67 128 -95s107 -55.667 167 -83
s115.667 -59.166 167 -95.499s94 -79.666 128 -129.999s51 -113.166 51 -188.499c0 -108 -33.333 -196.833 -100 -266.5s-160.334 -112.5 -281.001 -128.5l-39 -72c57.333 -10.667 98.666 -28.334 123.999 -53.001s38 -58.334 38 -101.001
c0 -53.333 -21.833 -97.333 -65.5 -132s-105.167 -52 -184.5 -52c-14.667 0 -29.5 0.666992 -44.5 2s-30.833 3.33301 -47.5 6l19 80c8 -1.33301 15.333 -2 22 -2h21c30 0 53.5 2.66699 70.5 8s29.833 11.833 38.5 19.5s14.167 16.334 16.5 26.001s3.5 18.5 3.5 26.5
c0 38 -58.667 63.333 -176 76l83 159c-98 1.33301 -179.5 9.66602 -244.5 24.999s-115.167 32.333 -150.5 51l58 154c31.333 -18 77.666 -35.5 138.999 -52.5s130.333 -25.5 207 -25.5c44.667 0 86.834 4.5 126.501 13.5s73.834 23.333 102.501 43s51.5 44.5 68.5 74.5
s25.5 65.667 25.5 107z" />
    <glyph glyph-name="scedilla" unicode="&#x15f;" horiz-adv-x="862" 
d="M608 279c0 40.667 -12.165 72.667 -36.498 96s-54.666 42.833 -90.999 58.5s-76 30.667 -119 45s-82.667 32.666 -119 54.999s-66.666 51.333 -90.999 87s-36.5 83.5 -36.5 143.5c0 98 28 170 84 216s133.667 69 233 69c74 0 135.833 -6.5 185.5 -19.5
s93.167 -28.5 130.5 -46.5l-39 -133c-31.333 14.667 -69.333 27.5 -114 38.5s-92 16.5 -142 16.5c-60.667 0 -104.834 -10.167 -132.501 -30.5s-41.5 -55.833 -41.5 -106.5c0 -35.333 12.167 -63 36.5 -83s54.666 -37.833 90.999 -53.5s76 -31 119 -46
s82.5 -34.833 118.5 -59.5s66.333 -55.667 91 -93s37 -86.666 37 -147.999c0 -80.667 -23.833 -149 -71.5 -205s-120.834 -89.333 -219.501 -100l-37 -68c57.333 -10.667 98.666 -28.334 123.999 -53.001s38 -58.334 38 -101.001c0 -53.333 -21.833 -97.333 -65.5 -132
s-105.167 -52 -184.5 -52c-14.667 0 -29.5 0.666992 -44.5 2s-30.833 3.33301 -47.5 6l19 80c8 -1.33301 15.333 -2 22 -2h21c30 0 53.5 2.66699 70.5 8s30 11.833 39 19.5s14.5 16.334 16.5 26.001s3 18.5 3 26.5c0 38 -58.667 63.333 -176 76l86 161
c-64.667 3.33301 -120.167 11.833 -166.5 25.5s-85.833 29.834 -118.5 48.501l49 137c31.333 -16 72.333 -31.167 123 -45.5s102 -21.5 154 -21.5c58.667 0 107 11.167 145 33.5s57 63.833 57 124.5z" />
    <glyph glyph-name="Scaron" unicode="&#x160;" horiz-adv-x="1087" 
d="M821 365c0 57.333 -17 103.993 -51 139.993s-76.667 68 -128 96s-107 54.333 -167 79s-115.667 54.334 -167 89.001s-94 77.667 -128 129s-51 116.666 -51 195.999c0 112 38.833 200.667 116.5 266s188.5 98 332.5 98c82.667 0 158.167 -6.16699 226.5 -18.5
s121.833 -27.833 160.5 -46.5l-52 -150c-31.333 15.333 -77.333 29.833 -138 43.5s-129.334 20.5 -206.001 20.5c-90 0 -157.5 -20.167 -202.5 -60.5s-67.5 -87.833 -67.5 -142.5c0 -53.333 17 -97.666 51 -132.999s76.667 -67 128 -95s107 -55.667 167 -83
s115.667 -59.166 167 -95.499s94 -79.666 128 -129.999s51 -113.166 51 -188.499c0 -61.333 -10.833 -116.666 -32.5 -165.999s-53.667 -91.666 -96 -126.999s-93.666 -62.666 -153.999 -81.999s-128.5 -29 -204.5 -29c-102.667 0 -187.334 8 -254.001 24
s-118.667 33.333 -156 52l58 154c31.333 -18 77.666 -35.5 138.999 -52.5s130.333 -25.5 207 -25.5c44.667 0 86.834 4.5 126.501 13.5s73.834 23.333 102.501 43s51.5 44.5 68.5 74.5s25.5 65.667 25.5 107zM660 1527.99h-119l-260 211v43h168l121 -103l34 -69l39 67
l129 105h160v-45z" />
    <glyph glyph-name="scaron" unicode="&#x161;" horiz-adv-x="862" 
d="M608 279c0 40.667 -12.166 72.666 -36.499 95.999s-54.666 42.833 -90.999 58.5s-76 30.667 -119 45s-82.667 32.666 -119 54.999s-66.666 51.333 -90.999 87s-36.5 83.5 -36.5 143.5c0 98 28 170 84 216s133.667 69 233 69c74 0 135.833 -6.5 185.5 -19.5
s93.167 -28.5 130.5 -46.5l-39 -135c-31.333 14.667 -69.333 27.834 -114 39.501s-92 17.5 -142 17.5c-60.667 0 -104.834 -10.167 -132.501 -30.5s-41.5 -55.833 -41.5 -106.5c0 -35.333 12.167 -63 36.5 -83s54.666 -37.833 90.999 -53.5s76 -31 119 -46
s82.5 -34.833 118.5 -59.5s66.333 -55.667 91 -93s37 -86.666 37 -147.999c0 -44 -7.16699 -85.167 -21.5 -123.5s-36.5 -71 -66.5 -98s-67.167 -48.5 -111.5 -64.5s-96.5 -24 -156.5 -24c-78 0 -144.333 7.5 -199 22.5s-100.334 32.833 -137.001 53.5l49 139
c31.333 -17.333 72.333 -33.5 123 -48.5s102 -22.5 154 -22.5c58.667 0 107 11.5 145 34.5s57 64.833 57 125.5zM461.001 1126h-76l-235 373h160l79 -135l44 -119l45 119l92 135h143z" />
    <glyph glyph-name="Tcedilla" unicode="&#x162;" horiz-adv-x="1137" 
d="M483 0l0.000976562 1282h-446v152h1063v-152h-447v-1282h-24l-49 -88c57.333 -10.667 98.5 -28.334 123.5 -53.001s37.5 -58.334 37.5 -101.001c0 -53.333 -21.833 -97.333 -65.5 -132s-104.834 -52 -183.501 -52c-15.333 0 -30.5 0.666992 -45.5 2
s-30.833 3.33301 -47.5 6l19 80c8 -1.33301 15.5 -2 22.5 -2h20.5c30 0 53.5 2.66699 70.5 8s30 11.833 39 19.5s14.5 16.334 16.5 26.001s3 18.5 3 26.5c0 38 -58.667 63.333 -176 76l98 184h-29z" />
    <glyph glyph-name="tcedilla" unicode="&#x163;" horiz-adv-x="694" 
d="M23 1024l158.997 -0.000976562v203l164 47v-250h279v-143h-279v-568c0 -70.667 8.83301 -120.667 26.5 -150s47.834 -44 90.501 -44c35.333 0 65.333 3.33301 90 10s52 16.334 82 29.001l37 -123c-31.333 -15.333 -64.166 -28 -98.499 -38s-71.166 -17.333 -110.499 -22
l-35 -63c57.333 -10.667 98.666 -28.334 123.999 -53.001s38 -58.334 38 -101.001c0 -53.333 -21.833 -97.333 -65.5 -132s-105.167 -52 -184.5 -52c-15.333 0 -30.5 0.666992 -45.5 2s-30.5 3.33301 -46.5 6l18 80c8.66699 -1.33301 16.334 -2 23.001 -2h20
c30 0 53.667 2.66699 71 8s30.333 11.833 39 19.5s14 16.334 16 26.001s3 18.5 3 26.5c0 38 -58.667 63.333 -176 76l86 164c-61.333 10.667 -104.333 39.834 -129 87.501s-37 119.5 -37 215.5v598h-159v143z" />
    <glyph glyph-name="Tcaron" unicode="&#x164;" horiz-adv-x="1137" 
d="M1100 1282h-447v-1282h-170v1282h-446v152h1063v-152zM623 1528h-119l-260 211v43h168l121 -103l34 -69l39 67l129 105h160v-45z" />
    <glyph glyph-name="tcaron" unicode="&#x165;" horiz-adv-x="694" 
d="M23 1024h158.998v203l164 47v-250h279v-143h-279v-568c0 -70.667 8.83301 -120.667 26.5 -150s47.834 -44 90.501 -44c35.333 0 65.333 3.66699 90 11s52 17.333 82 30l37 -125c-37.333 -18 -77.833 -32.5 -121.5 -43.5s-90.5 -16.5 -140.5 -16.5
c-83.333 0 -142.166 23.667 -176.499 71s-51.5 126.333 -51.5 237v598h-159v143zM638.998 1463c-2.66699 -40 -10.832 -80.834 -24.499 -122.501s-29 -80.167 -46 -115.5s-34.333 -66.666 -52 -93.999s-32.834 -47.333 -45.501 -60l-67 37c23.333 49.333 41 105 53 167
s18 124.667 18 188h164z" />
    <glyph glyph-name="Umacron" unicode="&#x16a;" horiz-adv-x="1335" 
d="M997 1434l164 0.00195312v-957c0 -86 -11.167 -160.333 -33.5 -223s-54.333 -114.167 -96 -154.5s-91.834 -70 -150.501 -89s-123.667 -28.5 -195 -28.5c-169.333 0 -297 38.167 -383 114.5s-129 192.166 -129 347.499v990h170v-910c0 -72 7.16699 -133 21.5 -183
s35.833 -90.333 64.5 -121s64.5 -52.834 107.5 -66.501s93.167 -20.5 150.5 -20.5c110.667 0 189.834 30.333 237.501 91s71.5 160.667 71.5 300v910zM348 1726h647v-127h-647v127z" />
    <glyph glyph-name="umacron" unicode="&#x16b;" horiz-adv-x="1104" 
d="M305 1024l-0.00195312 -583.999c0 -53.333 3.16699 -100 9.5 -140s17 -73.333 32 -100s35.333 -46.834 61 -60.501s58.5 -20.5 98.5 -20.5c36.667 0 69.334 5.83301 98.001 17.5s54.334 27.667 77.001 48s42.5 43.833 59.5 70.5s30.833 55 41.5 85v684h164v-733
c0 -49.333 1.66699 -100.333 5 -153s9.33301 -98.667 18 -138h-113l-41 162h-10c-31.333 -53.333 -73.666 -97.833 -126.999 -133.5s-121 -53.5 -203 -53.5c-54.667 0 -102.834 6.5 -144.501 19.5s-76.5 36 -104.5 69s-49.167 77.167 -63.5 132.5s-21.5 125.333 -21.5 210
v618h164zM249.998 1317h606v-127h-606v127z" />
    <glyph glyph-name="Ubreve" unicode="&#x16c;" horiz-adv-x="1335" 
d="M997 1434l164 0.00195312v-957c0 -86 -11.167 -160.333 -33.5 -223s-54.333 -114.167 -96 -154.5s-91.834 -70 -150.501 -89s-123.667 -28.5 -195 -28.5c-169.333 0 -297 38.167 -383 114.5s-129 192.166 -129 347.499v990h170v-910c0 -72 7.16699 -133 21.5 -183
s35.833 -90.333 64.5 -121s64.5 -52.834 107.5 -66.501s93.167 -20.5 150.5 -20.5c110.667 0 189.834 30.333 237.501 91s71.5 160.667 71.5 300v910zM404 1784c23.333 -46.667 58.835 -82.667 106.502 -108s103.5 -38 167.5 -38c66 0 121.5 14.333 166.5 43
s77.167 63 96.5 103l81 -39c-12 -39.333 -29.333 -74.5 -52 -105.5s-49.334 -57.333 -80.001 -79s-64.334 -38 -101.001 -49s-74.334 -16.5 -113.001 -16.5c-36.667 0 -73.167 4.83301 -109.5 14.5s-70.166 24 -101.499 43s-60 43.833 -86 74.5s-47 66.667 -63 108z" />
    <glyph glyph-name="ubreve" unicode="&#x16d;" horiz-adv-x="1104" 
d="M305 1024l-0.00195312 -583.999c0 -53.333 3.16699 -100 9.5 -140s17 -73.333 32 -100s35.333 -46.834 61 -60.501s58.5 -20.5 98.5 -20.5c36.667 0 69.334 5.83301 98.001 17.5s54.334 27.667 77.001 48s42.5 43.833 59.5 70.5s30.833 55 41.5 85v684h164v-733
c0 -49.333 1.66699 -100.333 5 -153s9.33301 -98.667 18 -138h-113l-41 162h-10c-31.333 -53.333 -73.666 -97.833 -126.999 -133.5s-121 -53.5 -203 -53.5c-54.667 0 -102.834 6.5 -144.501 19.5s-76.5 36 -104.5 69s-49.167 77.167 -63.5 132.5s-21.5 125.333 -21.5 210
v618h164zM331.998 1475c24.667 -49.333 57.498 -88.002 98.498 -116.002s84.5 -42 130.5 -42c46.667 0 88.834 13.667 126.501 41s68.167 66.333 91.5 117l86 -37c-4.66699 -32.667 -15.5 -65.167 -32.5 -97.5s-38.833 -60.666 -65.5 -84.999s-57.667 -44 -93 -59
s-73.666 -22.5 -114.999 -22.5c-38 0 -74 5.66699 -108 17s-65 28.333 -93 51s-52.333 49.334 -73 80.001s-35.667 65.667 -45 105z" />
    <glyph glyph-name="Uring" unicode="&#x16e;" horiz-adv-x="1335" 
d="M997 1434l164 0.00195312v-957c0 -86 -11.167 -160.333 -33.5 -223s-54.333 -114.167 -96 -154.5s-91.834 -70 -150.501 -89s-123.667 -28.5 -195 -28.5c-169.333 0 -297 38.167 -383 114.5s-129 192.166 -129 347.499v990h170v-910c0 -72 7.16699 -133 21.5 -183
s35.833 -90.333 64.5 -121s64.5 -52.834 107.5 -66.501s93.167 -20.5 150.5 -20.5c110.667 0 189.834 30.333 237.501 91s71.5 160.667 71.5 300v910zM461 1573c0 50.667 17 92.332 51 124.999s88.667 49 164 49c68 0 121.167 -14.667 159.5 -44s57.5 -72.666 57.5 -129.999
c0 -49.333 -18.167 -90 -54.5 -122s-90.5 -48 -162.5 -48c-70 0 -123.333 15.333 -160 46s-55 72 -55 124zM586 1573c0 -23.333 7.16797 -42.833 21.501 -58.5s37.166 -23.5 68.499 -23.5c30 0 52.833 7.5 68.5 22.5s23.5 34.833 23.5 59.5c0 26 -7.5 46.833 -22.5 62.5
s-38.167 23.5 -69.5 23.5c-30 0 -52.5 -7.83301 -67.5 -23.5s-22.5 -36.5 -22.5 -62.5z" />
    <glyph glyph-name="uring" unicode="&#x16f;" horiz-adv-x="1104" 
d="M305 1024l-0.00195312 -583.999c0 -53.333 3.16699 -100 9.5 -140s17 -73.333 32 -100s35.333 -46.834 61 -60.501s58.5 -20.5 98.5 -20.5c36.667 0 69.334 5.83301 98.001 17.5s54.334 27.667 77.001 48s42.5 43.833 59.5 70.5s30.833 55 41.5 85v684h164v-733
c0 -49.333 1.66699 -100.333 5 -153s9.33301 -98.667 18 -138h-113l-41 162h-10c-31.333 -53.333 -73.666 -97.833 -126.999 -133.5s-121 -53.5 -203 -53.5c-54.667 0 -102.834 6.5 -144.501 19.5s-76.5 36 -104.5 69s-49.167 77.167 -63.5 132.5s-21.5 125.333 -21.5 210
v618h164zM351.998 1317c0 57.333 18 102.667 54 136s84.333 50 145 50c57.333 0 105 -15 143 -45s57 -77 57 -141c0 -53.333 -19 -97.333 -57 -132s-85.667 -52 -143 -52s-104.833 16 -142.5 48s-56.5 77.333 -56.5 136zM461.998 1317c0 -27.333 9.00195 -48.5 27.002 -63.5
s38.667 -22.5 62 -22.5c25.333 0 46.666 6.83301 63.999 20.5s26 35.5 26 65.5s-9.33301 52.167 -28 66.5s-39.334 21.5 -62.001 21.5c-23.333 0 -44 -6.83301 -62 -20.5s-27 -36.167 -27 -67.5z" />
    <glyph glyph-name="Uhungarumlaut" unicode="&#x170;" horiz-adv-x="1335" 
d="M997 1434l164 0.00195312v-957c0 -86 -11.167 -160.333 -33.5 -223s-54.333 -114.167 -96 -154.5s-91.834 -70 -150.501 -89s-123.667 -28.5 -195 -28.5c-169.333 0 -297 38.167 -383 114.5s-129 192.166 -129 347.499v990h170v-910c0 -72 7.16699 -133 21.5 -183
s35.833 -90.333 64.5 -121s64.5 -52.834 107.5 -66.501s93.167 -20.5 150.5 -20.5c110.667 0 189.834 30.333 237.501 91s71.5 160.667 71.5 300v910zM567 1741h190v-33l-204 -190h-117zM899 1741h202v-33l-292 -190h-119z" />
    <glyph glyph-name="uhungarumlaut" unicode="&#x171;" horiz-adv-x="1104" 
d="M305 1024l-0.00195312 -583.999c0 -53.333 3.16699 -100 9.5 -140s17 -73.333 32 -100s35.333 -46.834 61 -60.501s58.5 -20.5 98.5 -20.5c36.667 0 69.334 5.83301 98.001 17.5s54.334 27.667 77.001 48s42.5 43.833 59.5 70.5s30.833 55 41.5 85v684h164v-733
c0 -49.333 1.66699 -100.333 5 -153s9.33301 -98.667 18 -138h-113l-41 162h-10c-31.333 -53.333 -73.666 -97.833 -126.999 -133.5s-121 -53.5 -203 -53.5c-54.667 0 -102.834 6.5 -144.501 19.5s-76.5 36 -104.5 69s-49.167 77.167 -63.5 132.5s-21.5 125.333 -21.5 210
v618h164zM430.998 1434h159v-33l-145 -232h-86zM729.998 1434h176v-33l-234 -232h-92z" />
    <glyph glyph-name="Uogonek" unicode="&#x172;" horiz-adv-x="1335" 
d="M997 1434l163.997 0.00195312v-957c-2.66699 -132 -28.5 -236 -77.5 -312s-117.833 -128.333 -206.5 -157c-41.333 -22 -72.833 -48.667 -94.5 -80s-32.5 -66.666 -32.5 -105.999c1.33301 -28.667 10.833 -53 28.5 -73s42.834 -30.667 75.501 -32
c28.667 0 56.667 6.33301 84 19l23 -88c-19.333 -15.333 -45.333 -27 -78 -35s-65 -12 -97 -12c-61.333 0 -110.666 16.333 -147.999 49s-56 77 -56 133c0 40.667 10.833 78.167 32.5 112.5s51.834 63.166 90.501 86.499h-19c-169.333 0 -297 38.167 -383 114.5
s-129 192.166 -129 347.499v990h170v-910c0 -72 7.16699 -133 21.5 -183s35.833 -90.333 64.5 -121s64.5 -52.834 107.5 -66.501s93.167 -20.5 150.5 -20.5c109.333 0 187.833 30.333 235.5 91s72.167 160.667 73.5 300v910z" />
    <glyph glyph-name="uogonek" unicode="&#x173;" horiz-adv-x="1104" 
d="M305 1024l-0.00292969 -583.997c0 -53.333 3.16699 -100 9.5 -140s17 -73.333 32 -100s35.333 -46.834 61 -60.501s58.5 -20.5 98.5 -20.5c36.667 0 69.334 5.83301 98.001 17.5s54.334 27.667 77.001 48s42.5 43.833 59.5 70.5s30.833 55 41.5 85v684h164v-733
c0 -49.333 1.66699 -100.333 5 -153s9.33301 -98.667 18 -138h-37c-41.333 -16.667 -73.166 -41.334 -95.499 -74.001s-32.166 -70 -29.499 -112c4 -28.667 14.5 -52 31.5 -70s42.5 -27 76.5 -27c26 0 52.667 6.33301 80 19l23 -88c-20.667 -16.667 -47.667 -28.667 -81 -36
s-64.333 -11 -93 -11c-60 0 -108.167 14.667 -144.5 44s-56.5 72.666 -60.5 129.999c0 56 17.333 104.5 52 145.5s87 74.167 157 99.5l-35 142h-10c-30 -53.333 -72.667 -97.833 -128 -133.5s-122 -53.5 -200 -53.5c-54.667 0 -102.834 6.5 -144.501 19.5
s-76.5 36 -104.5 69s-49.167 77.167 -63.5 132.5s-21.5 125.333 -21.5 210v618h164z" />
    <glyph glyph-name="Ydieresis" unicode="&#x178;" horiz-adv-x="1143" 
d="M489 569l-473 865h199l336 -627l35 -125h2l37 129l321 623h182l-469 -863v-571h-170v569zM273 1626c0 28.667 10.167 51.834 30.5 69.501s46.833 26.5 79.5 26.5c32 0 57.833 -8.83301 77.5 -26.5s29.5 -40.834 29.5 -69.501c0 -27.333 -9.83301 -49.833 -29.5 -67.5
s-45.5 -26.5 -77.5 -26.5c-32.667 0 -59.167 8.83301 -79.5 26.5s-30.5 40.167 -30.5 67.5zM666 1626c0 28.667 9.83301 51.834 29.5 69.501s45.5 26.5 77.5 26.5c32.667 0 59.167 -8.83301 79.5 -26.5s30.5 -40.834 30.5 -69.501c0 -27.333 -10.167 -49.833 -30.5 -67.5
s-46.833 -26.5 -79.5 -26.5c-32 0 -57.833 8.83301 -77.5 26.5s-29.5 40.167 -29.5 67.5z" />
    <glyph glyph-name="Zacute" unicode="&#x179;" horiz-adv-x="1116" 
d="M78 154l723 1046l86 82h-809v152h962v-154l-727 -1053l-86 -75h813v-152h-962v154zM674 1782h233v-43l-334 -199h-141z" />
    <glyph glyph-name="zacute" unicode="&#x17a;" horiz-adv-x="915" 
d="M86 143l473 652l86 86h-559v143h729v-143l-477 -658l-84 -80h561v-143h-729v143zM484 1475h182v-43l-207 -263h-96z" />
    <glyph glyph-name="Zdotaccent" unicode="&#x17b;" horiz-adv-x="1116" 
d="M78 154l723 1046l86 82h-809v152h962v-154l-727 -1053l-86 -75h813v-152h-962v154zM432 1632c0 28.667 11.167 53.667 33.5 75s53.5 32 93.5 32c39.333 0 71 -10.667 95 -32s36 -46.333 36 -75c0 -31.333 -12 -57.166 -36 -77.499s-55.667 -30.5 -95 -30.5
c-40 0 -71.167 10.167 -93.5 30.5s-33.5 46.166 -33.5 77.499z" />
    <glyph glyph-name="zdotaccent" unicode="&#x17c;" horiz-adv-x="915" 
d="M86 143l473 652l86 86h-559v143h729v-143l-477 -658l-84 -80h561v-143h-729v143zM354 1335c0 31.333 10.5 58.333 31.5 81s48.167 34 81.5 34c32.667 0 60.5 -11.333 83.5 -34s34.5 -49.667 34.5 -81s-11.5 -57.166 -34.5 -77.499s-50.833 -30.5 -83.5 -30.5
c-33.333 0 -60.5 10.167 -81.5 30.5s-31.5 46.166 -31.5 77.499z" />
    <glyph glyph-name="Zcaron" unicode="&#x17d;" horiz-adv-x="1116" 
d="M78 154l723 1046l86 82h-809v152h962v-154l-727 -1053l-86 -75h813v-152h-962v154zM586 1528h-119l-260 211v43h168l121 -103l34 -69l39 67l129 105h160v-45z" />
    <glyph glyph-name="zcaron" unicode="&#x17e;" horiz-adv-x="915" 
d="M86 143l473 652l86 86h-559v143h729v-143l-477 -658l-84 -80h561v-143h-729v143zM481 1126h-76l-235 373h160l79 -135l44 -119l45 119l92 135h143z" />
    <glyph glyph-name="longs" unicode="&#x17f;" horiz-adv-x="510" 
d="M45 1024h160.003v57c0 127.333 21.833 220 65.5 278s120.167 87 229.5 87c43.333 0 81.5 -2.66699 114.5 -8s67.833 -15.666 104.5 -30.999l-37 -137c-31.333 13.333 -61 22.166 -89 26.499s-54.333 6.5 -79 6.5c-32.667 0 -58.834 -4.5 -78.501 -13.5
s-34.334 -22.667 -44.001 -41s-15.834 -41.5 -18.501 -69.5s-4 -60 -4 -96v-1083h-164v883h-160v141z" />
    <glyph glyph-name="florin" unicode="&#x192;" horiz-adv-x="1116" 
d="M647 881l-161.999 -950.999c-8 -50 -19.5 -96.5 -34.5 -139.5s-35.167 -80.667 -60.5 -113s-56.333 -57.666 -93 -75.999s-80.334 -27.5 -131.001 -27.5c-40 0 -81 4.83301 -123 14.5s-79.667 21.167 -113 34.5l43 135c31.333 -13.333 61 -23.5 89 -30.5
s58.667 -10.5 92 -10.5c51.333 0 90.333 23 117 69s49 122.667 67 230l139 865h-174v143h197l22 137c16.667 101.333 46.5 176.166 89.5 224.499s113.5 72.5 211.5 72.5c45.333 0 89.5 -4.66699 132.5 -14s81.5 -21.666 115.5 -36.999l-47 -133
c-65.333 27.333 -128 41 -188 41c-26 0 -47.167 -3.83301 -63.5 -11.5s-30 -19.334 -41 -35.001s-20.333 -36.834 -28 -63.501s-14.167 -59 -19.5 -97l-14 -84h245v-143h-268z" />
    <glyph glyph-name="Gacute" unicode="&#x1f4;" horiz-adv-x="1253" 
d="M657 715l482.001 0.00390625v-631c-22 -16.667 -48.333 -31.834 -79 -45.501s-63.5 -25.167 -98.5 -34.5s-71.167 -16.5 -108.5 -21.5s-74 -7.5 -110 -7.5c-91.333 0 -175.166 14.667 -251.499 44s-142.5 74.5 -198.5 135.5s-99.667 138.167 -131 231.5
s-47 203.666 -47 330.999c0 132 19 245.167 57 339.5s87.833 171.166 149.5 230.499s130.667 102.666 207 129.999s152.833 41 229.5 41c82 0 149.5 -4.33301 202.5 -13s98.167 -20.667 135.5 -36l-43 -149c-66 31.333 -159.667 47 -281 47c-57.333 0 -114.333 -10 -171 -30
s-107.5 -53.167 -152.5 -99.5s-81.833 -107 -110.5 -182s-43 -167.833 -43 -278.5c0 -101.333 11.667 -188.833 35 -262.5s55.666 -134.667 96.999 -183s91.5 -84.5 150.5 -108.5s123.167 -36 192.5 -36c87.333 0 161.666 17 222.999 51v400l-336 40v97zM877.001 1782h233
v-43l-334 -199h-141z" />
    <glyph glyph-name="gacute" unicode="&#x1f5;" horiz-adv-x="1100" 
d="M942 -47c0 -132.667 -35.167 -230.334 -105.5 -293.001s-174.5 -94 -312.5 -94c-82 0 -147.833 5.16699 -197.5 15.5s-92.167 23.5 -127.5 39.5l43 139c31.333 -12 66 -23.5 104 -34.5s88 -16.5 150 -16.5c57.333 0 104 5.16699 140 15.5s65 27.5 87 51.5
s37 54.667 45 92s12 82 12 134v98h-8c-27.333 -39.333 -62.166 -69.666 -104.499 -90.999s-97.5 -32 -165.5 -32c-138 0 -239.5 43.167 -304.5 129.5s-97.5 220.166 -97.5 401.499c0 174.667 41.667 307.334 125 398.001s206.333 136 369 136c78 0 144.667 -6 200 -18
s104.666 -26.333 147.999 -43v-1028zM530 121c70 0 124.834 17.333 164.501 52s67.5 89 83.5 163v524c-54.667 26 -124.334 39 -209.001 39c-92.667 0 -165.667 -31.333 -219 -94s-80 -161 -80 -295c0 -57.333 4.83301 -109.833 14.5 -157.5s24.667 -88.667 45 -123
s47 -61 80 -80s73.167 -28.5 120.5 -28.5zM623.001 1475h182v-43l-207 -263h-96z" />
    <glyph glyph-name="Scommaaccent" unicode="&#x218;" horiz-adv-x="1087" 
d="M821 365c0 57.333 -17 103.993 -51 139.993s-76.667 68 -128 96s-107 54.333 -167 79s-115.667 54.334 -167 89.001s-94 77.667 -128 129s-51 116.666 -51 195.999c0 112 38.833 200.667 116.5 266s188.5 98 332.5 98c82.667 0 158.167 -6.16699 226.5 -18.5
s121.833 -27.833 160.5 -46.5l-52 -150c-31.333 15.333 -77.333 29.833 -138 43.5s-129.334 20.5 -206.001 20.5c-90 0 -157.5 -20.167 -202.5 -60.5s-67.5 -87.833 -67.5 -142.5c0 -53.333 17 -97.666 51 -132.999s76.667 -67 128 -95s107 -55.667 167 -83
s115.667 -59.166 167 -95.499s94 -79.666 128 -129.999s51 -113.166 51 -188.499c0 -61.333 -10.833 -116.666 -32.5 -165.999s-53.667 -91.666 -96 -126.999s-93.666 -62.666 -153.999 -81.999s-128.5 -29 -204.5 -29c-102.667 0 -187.334 8 -254.001 24
s-118.667 33.333 -156 52l58 154c31.333 -18 77.666 -35.5 138.999 -52.5s130.333 -25.5 207 -25.5c44.667 0 86.834 4.5 126.501 13.5s73.834 23.333 102.501 43s51.5 44.5 68.5 74.5s25.5 65.667 25.5 107zM416 -209.007c0 28.667 10.5 51.834 31.5 69.501
s45.167 26.5 72.5 26.5c34.667 0 65.167 -11.833 91.5 -35.5s39.5 -62.834 39.5 -117.501c0 -35.333 -6 -66.333 -18 -93s-26.667 -50 -44 -70s-35.166 -35.833 -53.499 -47.5s-34.166 -20.167 -47.499 -25.5l-58 66c27.333 14.667 49.166 33.667 65.499 57
s24.5 51.333 24.5 84c-5.33301 -1.33301 -12 -2 -20 -2c-24.667 0 -44.834 8.16699 -60.501 24.5s-23.5 37.5 -23.5 63.5z" />
    <glyph glyph-name="scommaaccent" unicode="&#x219;" horiz-adv-x="862" 
d="M608 279c0 40.667 -12.166 72.666 -36.499 95.999s-54.666 42.833 -90.999 58.5s-76 30.667 -119 45s-82.667 32.666 -119 54.999s-66.666 51.333 -90.999 87s-36.5 83.5 -36.5 143.5c0 98 28 170 84 216s133.667 69 233 69c74 0 135.833 -6.5 185.5 -19.5
s93.167 -28.5 130.5 -46.5l-39 -135c-31.333 14.667 -69.333 27.834 -114 39.501s-92 17.5 -142 17.5c-60.667 0 -104.834 -10.167 -132.501 -30.5s-41.5 -55.833 -41.5 -106.5c0 -35.333 12.167 -63 36.5 -83s54.666 -37.833 90.999 -53.5s76 -31 119 -46
s82.5 -34.833 118.5 -59.5s66.333 -55.667 91 -93s37 -86.666 37 -147.999c0 -44 -7.16699 -85.167 -21.5 -123.5s-36.5 -71 -66.5 -98s-67.167 -48.5 -111.5 -64.5s-96.5 -24 -156.5 -24c-78 0 -144.333 7.5 -199 22.5s-100.334 32.833 -137.001 53.5l49 139
c31.333 -17.333 72.333 -33.5 123 -48.5s102 -22.5 154 -22.5c58.667 0 107 11.5 145 34.5s57 64.833 57 125.5zM316.001 -209.001c0 28.667 10.5 51.834 31.5 69.501s45.167 26.5 72.5 26.5c34.667 0 65.167 -11.833 91.5 -35.5s39.5 -62.834 39.5 -117.501
c0 -35.333 -6 -66.333 -18 -93s-26.667 -50 -44 -70s-35.166 -35.833 -53.499 -47.5s-34.166 -20.167 -47.499 -25.5l-58 66c27.333 14.667 49.166 33.667 65.499 57s24.5 51.333 24.5 84c-5.33301 -1.33301 -12 -2 -20 -2c-24.667 0 -44.834 8.16699 -60.501 24.5
s-23.5 37.5 -23.5 63.5z" />
    <glyph glyph-name="Tcommaaccent" unicode="&#x21a;" horiz-adv-x="1137" 
d="M1100 1282h-447v-1282h-170v1282h-446v152h1063v-152zM447 -209c0 28.667 10.5 51.834 31.5 69.501s45.167 26.5 72.5 26.5c34.667 0 65.167 -11.833 91.5 -35.5s39.5 -62.834 39.5 -117.501c0 -35.333 -6 -66.333 -18 -93s-26.667 -50 -44 -70
s-35.166 -35.833 -53.499 -47.5s-34.166 -20.167 -47.499 -25.5l-58 66c27.333 14.667 49.166 33.667 65.499 57s24.5 51.333 24.5 84c-5.33301 -1.33301 -12 -2 -20 -2c-24.667 0 -44.834 8.16699 -60.501 24.5s-23.5 37.5 -23.5 63.5z" />
    <glyph glyph-name="tcommaaccent" unicode="&#x21b;" horiz-adv-x="694" 
d="M23 1024h158.998v203l164 47v-250h279v-143h-279v-568c0 -70.667 8.83301 -120.667 26.5 -150s47.834 -44 90.501 -44c35.333 0 65.333 3.66699 90 11s52 17.333 82 30l37 -125c-37.333 -18 -77.833 -32.5 -121.5 -43.5s-90.5 -16.5 -140.5 -16.5
c-83.333 0 -142.166 23.667 -176.499 71s-51.5 126.333 -51.5 237v598h-159v143zM265.998 -209c0 28.667 10.5 51.834 31.5 69.501s45.167 26.5 72.5 26.5c34.667 0 65.167 -11.833 91.5 -35.5s39.5 -62.834 39.5 -117.501c0 -35.333 -6 -66.333 -18 -93
s-26.667 -50 -44 -70s-35.166 -35.833 -53.499 -47.5s-34.166 -20.167 -47.499 -25.5l-58 66c27.333 14.667 49.166 33.667 65.499 57s24.5 51.333 24.5 84c-5.33301 -1.33301 -12 -2 -20 -2c-24.667 0 -44.834 8.16699 -60.501 24.5s-23.5 37.5 -23.5 63.5z" />
    <glyph glyph-name="uni0237" unicode="&#x237;" horiz-adv-x="547" 
d="M190 1024l164 -0.000976562v-1079c0 -127.333 -21.833 -222.333 -65.5 -285s-113.167 -94 -208.5 -94c-11.333 0 -21.666 0.333008 -30.999 1s-19.666 1.66699 -30.999 3v139c38.667 0 69.167 5.83301 91.5 17.5s39.666 29.834 51.999 54.501s20.166 55.667 23.499 93
s5 81.333 5 132v1018z" />
    <glyph glyph-name="uni02BC" unicode="&#x2bc;" horiz-adv-x="397" 
d="M82 1346c0 31.333 9.83105 55.835 29.498 73.502s45.167 26.5 76.5 26.5c38.667 0 69.834 -12 93.501 -36s35.5 -59.667 35.5 -107c0 -45.333 -6.33301 -84.333 -19 -117s-28.334 -60.334 -47.001 -83.001s-38.167 -40.834 -58.5 -54.501s-38.166 -23.167 -53.499 -28.5
l-51 70c31.333 16 55.833 36.333 73.5 61s26.5 56.667 26.5 96c-5.33301 -1.33301 -12.666 -2 -21.999 -2c-26 0 -46.5 9.16699 -61.5 27.5s-22.5 42.833 -22.5 73.5z" />
    <glyph glyph-name="circumflex" unicode="&#x2c6;" horiz-adv-x="791" 
d="M375 1499h65l228 -373h-148l-80 136l-43 118l-45 -118l-92 -136h-137z" />
    <glyph glyph-name="caron" unicode="&#x2c7;" horiz-adv-x="809" 
d="M434 1126h-76l-235 373h160l79 -135l44 -119l45 119l92 135h143z" />
    <glyph glyph-name="breve" unicode="&#x2d8;" horiz-adv-x="870" 
d="M215 1475c24.667 -49.333 57.498 -88.002 98.498 -116.002s84.5 -42 130.5 -42c46.667 0 88.834 13.667 126.501 41s68.167 66.333 91.5 117l86 -37c-4.66699 -32.667 -15.5 -65.167 -32.5 -97.5s-38.833 -60.666 -65.5 -84.999s-57.667 -44 -93 -59
s-73.666 -22.5 -114.999 -22.5c-38 0 -74 5.66699 -108 17s-65 28.333 -93 51s-52.333 49.334 -73 80.001s-35.667 65.667 -45 105z" />
    <glyph glyph-name="dotaccent" unicode="&#x2d9;" horiz-adv-x="477" 
d="M123 1335c0 31.333 10.5 58.333 31.5 81s48.167 34 81.5 34c32.667 0 60.5 -11.333 83.5 -34s34.5 -49.667 34.5 -81s-11.5 -57.166 -34.5 -77.499s-50.833 -30.5 -83.5 -30.5c-33.333 0 -60.5 10.167 -81.5 30.5s-31.5 46.166 -31.5 77.499z" />
    <glyph glyph-name="ring" unicode="&#x2da;" horiz-adv-x="645" 
d="M123 1317c0 57.333 18 102.667 54 136s84.333 50 145 50c57.333 0 105 -15 143 -45s57 -77 57 -141c0 -53.333 -19 -97.333 -57 -132s-85.667 -52 -143 -52s-104.833 16 -142.5 48s-56.5 77.333 -56.5 136zM233 1317c0 -27.333 9.00195 -48.5 27.002 -63.5
s38.667 -22.5 62 -22.5c25.333 0 46.666 6.83301 63.999 20.5s26 35.5 26 65.5s-9.33301 52.167 -28 66.5s-39.334 21.5 -62.001 21.5c-23.333 0 -44 -6.83301 -62 -20.5s-27 -36.167 -27 -67.5z" />
    <glyph glyph-name="ogonek" unicode="&#x2db;" horiz-adv-x="625" 
d="M446 20c-47.333 -21.333 -84.667 -48.835 -112 -82.502s-41 -72.167 -41 -115.5c0 -27.333 8.83301 -51.666 26.5 -72.999s43.5 -32 77.5 -32c26 0 53.333 7 82 21l23 -88c-20.667 -16.667 -48 -29 -82 -37s-65.333 -12 -94 -12c-62 0 -111.333 16.333 -148 49
s-55 77 -55 133s18.833 103.833 56.5 143.5s89.167 70.834 154.5 93.501h112z" />
    <glyph glyph-name="tilde" unicode="&#x2dc;" horiz-adv-x="817" 
d="M123 1343c39.333 45.333 75.499 76.498 108.499 93.498s63.167 25.5 90.5 25.5c22.667 0 44 -4.33301 64 -13s39.167 -18.167 57.5 -28.5s36 -19.666 53 -27.999s35.167 -12.5 54.5 -12.5c30 0 61.333 16.667 94 50l49 -89
c-35.333 -39.333 -67.666 -66.166 -96.999 -80.499s-56.333 -21.5 -81 -21.5c-22 0 -42.5 4.16699 -61.5 12.5s-37.667 17.5 -56 27.5s-36.833 19.5 -55.5 28.5s-37.334 13.5 -56.001 13.5c-18 0 -36.167 -4.83301 -54.5 -14.5s-39.166 -26.167 -62.499 -49.5z" />
    <glyph glyph-name="hungarumlaut" unicode="&#x2dd;" horiz-adv-x="793" 
d="M195 1434h159v-33l-145 -232h-86zM494 1434h176v-33l-234 -232h-92z" />
    <glyph glyph-name="acutecomb" unicode="&#x301;" horiz-adv-x="0" 
d="M-473 1475h182v-43l-207 -263h-96z" />
    <glyph glyph-name="Delta" unicode="&#x394;" horiz-adv-x="1163" 
d="M29 0v76l520 1380h69l525 -1380v-76h-1114zM217 147h727l-317 826l-49 215h-3l-57 -219z" />
    <glyph glyph-name="Delta" unicode="&#x2206;" horiz-adv-x="1163" 
d="M29 0v76l520 1380h69l525 -1380v-76h-1114zM217 147h727l-317 826l-49 215h-3l-57 -219z" />
    <glyph glyph-name="Omega" unicode="&#x3a9;" horiz-adv-x="1642" 
d="M156 143h237l193 -20v53l-111 21c-43.333 20 -84.5 48.167 -123.5 84.5s-72.833 78.666 -101.5 126.999s-51.5 103 -68.5 164s-25.5 126.833 -25.5 197.5c0 106.667 15.667 202.334 47 287.001s75.666 156.667 132.999 216s127 105 209 137s173.333 48 274 48
c106.667 0 201.334 -17 284.001 -51s152.667 -81.833 210 -143.5s100.666 -135.167 129.999 -220.5s44 -179 44 -281c0 -74 -9.5 -141 -28.5 -201s-44 -113.5 -75 -160.5s-65.167 -87.333 -102.5 -121s-74.666 -60.5 -111.999 -80.5l-116 -23v-53l196 20h238v-143h-588v256
c41.333 8 85.5 23 132.5 45s91 53.167 132 93.5s75.167 91.5 102.5 153.5s41 136.667 41 224c0 65.333 -9.33301 129.833 -28 193.5s-47.667 120.667 -87 171s-90.166 91.333 -152.499 123s-136.5 47.5 -222.5 47.5c-154 0 -272.667 -45.5 -356 -136.5
s-125 -225.833 -125 -404.5c0 -86 12.667 -159.333 38 -220s57.666 -111.5 96.999 -152.5s83 -72.5 131 -94.5s94.333 -36.333 139 -43v-256h-585v143z" />
    <glyph glyph-name="Omega" unicode="&#x2126;" horiz-adv-x="1642" 
d="M156 143h237l193 -20v53l-111 21c-43.333 20 -84.5 48.167 -123.5 84.5s-72.833 78.666 -101.5 126.999s-51.5 103 -68.5 164s-25.5 126.833 -25.5 197.5c0 106.667 15.667 202.334 47 287.001s75.666 156.667 132.999 216s127 105 209 137s173.333 48 274 48
c106.667 0 201.334 -17 284.001 -51s152.667 -81.833 210 -143.5s100.666 -135.167 129.999 -220.5s44 -179 44 -281c0 -74 -9.5 -141 -28.5 -201s-44 -113.5 -75 -160.5s-65.167 -87.333 -102.5 -121s-74.666 -60.5 -111.999 -80.5l-116 -23v-53l196 20h238v-143h-588v256
c41.333 8 85.5 23 132.5 45s91 53.167 132 93.5s75.167 91.5 102.5 153.5s41 136.667 41 224c0 65.333 -9.33301 129.833 -28 193.5s-47.667 120.667 -87 171s-90.166 91.333 -152.499 123s-136.5 47.5 -222.5 47.5c-154 0 -272.667 -45.5 -356 -136.5
s-125 -225.833 -125 -404.5c0 -86 12.667 -159.333 38 -220s57.666 -111.5 96.999 -152.5s83 -72.5 131 -94.5s94.333 -36.333 139 -43v-256h-585v143z" />
    <glyph glyph-name="pi" unicode="&#x3c0;" horiz-adv-x="1360" 
d="M1053 238c0 -38.667 6.16895 -65.502 18.502 -80.502s27.833 -22.5 46.5 -22.5c14 0 29.5 1.33301 46.5 4s31.5 5.33398 43.5 8.00098l39 -110c-22 -9.33301 -49 -19.166 -81 -29.499s-68.333 -15.5 -109 -15.5c-68.667 0 -113.834 19.833 -135.501 59.5
s-32.5 94.834 -32.5 165.501v664h-389v-881h-164v881h-29c-28.667 0 -51.834 -7.83301 -69.501 -23.5s-36.167 -38.834 -55.5 -69.501l-108 66c26 52 58 93.333 96 124s93.333 46 166 46h887v-143h-170v-643z" />
    <glyph glyph-name="uni0401" unicode="&#x401;" 
d="M174 1434h780v-152h-610v-469h559v-151h-559v-510h621v-152h-791v1434zM246 1706c0 28.667 10.167 51.834 30.5 69.501s46.833 26.5 79.5 26.5c32 0 57.833 -8.83301 77.5 -26.5s29.5 -40.834 29.5 -69.501c0 -27.333 -9.83301 -49.833 -29.5 -67.5
s-45.5 -26.5 -77.5 -26.5c-32.667 0 -59.167 8.83301 -79.5 26.5s-30.5 40.167 -30.5 67.5zM639 1706c0 28.667 9.83301 51.834 29.5 69.501s45.5 26.5 77.5 26.5c32.667 0 59.167 -8.83301 79.5 -26.5s30.5 -40.834 30.5 -69.501c0 -27.333 -10.167 -49.833 -30.5 -67.5
s-46.833 -26.5 -79.5 -26.5c-32 0 -57.833 8.83301 -77.5 26.5s-29.5 40.167 -29.5 67.5z" />
    <glyph glyph-name="uni0402" unicode="&#x402;" horiz-adv-x="1491" 
d="M653 0l-169.999 -0.00195312v1282h-446v152h1063v-152h-447v-432c16.667 5.33301 49.167 13.833 97.5 25.5s110.833 17.5 187.5 17.5c54.667 0 108.334 -6.5 161.001 -19.5s99.334 -35.833 140.001 -68.5s73.667 -76.667 99 -132s38 -125.333 38 -210
c0 -164 -41.667 -284.833 -125 -362.5s-200.666 -116.5 -351.999 -116.5c-45.333 0 -77.833 0.333008 -97.5 1s-34.834 2.33398 -45.501 5.00098v147c17.333 -2.66699 36.666 -4.33398 57.999 -5.00098s51.666 -1 90.999 -1c194 0 291 106.667 291 320
c0 57.333 -8.16699 105 -24.5 143s-38.5 68.333 -66.5 91s-60.833 38.334 -98.5 47.001s-78.167 13 -121.5 13c-24.667 0 -49 -1.66699 -73 -5s-46.5 -7.33301 -67.5 -12s-39.333 -9.66699 -55 -15s-27.834 -9.66602 -36.501 -12.999v-700z" />
    <glyph glyph-name="uni0403" unicode="&#x403;" horiz-adv-x="905" 
d="M942 1282h-598v-1282h-170v1434h768v-152zM646 1782h233v-43l-334 -199h-141z" />
    <glyph glyph-name="uni0404" unicode="&#x404;" horiz-adv-x="1194" 
d="M1114 59c-40.667 -31.333 -94.167 -53.1611 -160.5 -65.4941s-134.833 -18.5 -205.5 -18.5c-86.667 0 -168.167 14.667 -244.5 44s-143.5 74.166 -201.5 134.499s-103.667 137.166 -137 230.499s-50 204.333 -50 333c0 134 18.667 247.667 56 341
s86.166 169.666 146.499 228.999s128 102.666 203 129.999s150.833 41 227.5 41c81.333 0 150 -4.33301 206 -13s102.667 -20.667 140 -36l-41 -152c-31.333 15.333 -72.333 27.5 -123 36.5s-106.667 13.5 -168 13.5c-53.333 0 -105.666 -8.66699 -156.999 -26
s-98.5 -45.333 -141.5 -84s-79.167 -89.5 -108.5 -152.5s-48.666 -139.5 -57.999 -229.5h627v-151h-629c4 -90.667 20 -169.334 48 -236.001s64.167 -122.167 108.5 -166.5s95.166 -77.833 152.499 -100.5s118 -34 182 -34c62 0 117.5 6.16699 166.5 18.5
s88.5 28.166 118.5 47.499z" />
    <glyph glyph-name="uni0405" unicode="&#x405;" horiz-adv-x="1087" 
d="M821 365c0 57.333 -17 103.993 -51 139.993s-76.667 68 -128 96s-107 54.333 -167 79s-115.667 54.334 -167 89.001s-94 77.667 -128 129s-51 116.666 -51 195.999c0 112 38.833 200.667 116.5 266s188.5 98 332.5 98c82.667 0 158.167 -6.16699 226.5 -18.5
s121.833 -27.833 160.5 -46.5l-52 -150c-31.333 15.333 -77.333 29.833 -138 43.5s-129.334 20.5 -206.001 20.5c-90 0 -157.5 -20.167 -202.5 -60.5s-67.5 -87.833 -67.5 -142.5c0 -53.333 17 -97.666 51 -132.999s76.667 -67 128 -95s107 -55.667 167 -83
s115.667 -59.166 167 -95.499s94 -79.666 128 -129.999s51 -113.166 51 -188.499c0 -61.333 -10.833 -116.666 -32.5 -165.999s-53.667 -91.666 -96 -126.999s-93.666 -62.666 -153.999 -81.999s-128.5 -29 -204.5 -29c-102.667 0 -187.334 8 -254.001 24
s-118.667 33.333 -156 52l58 154c31.333 -18 77.666 -35.5 138.999 -52.5s130.333 -25.5 207 -25.5c44.667 0 86.834 4.5 126.501 13.5s73.834 23.333 102.501 43s51.5 44.5 68.5 74.5s25.5 65.667 25.5 107z" />
    <glyph glyph-name="uni0406" unicode="&#x406;" horiz-adv-x="596" 
d="M213 1434h170v-1434h-170v1434z" />
    <glyph glyph-name="uni0407" unicode="&#x407;" horiz-adv-x="600" 
d="M66 1624c0 30 9.83301 53.833 29.5 71.5s44.5 26.5 74.5 26.5c28.667 0 52.834 -8.83301 72.501 -26.5s29.5 -41.5 29.5 -71.5s-9.83301 -53.5 -29.5 -70.5s-43.834 -25.5 -72.501 -25.5c-30 0 -54.833 8.5 -74.5 25.5s-29.5 40.5 -29.5 70.5zM330 1624
c0 30 9.83301 53.833 29.5 71.5s43.834 26.5 72.501 26.5c30 0 55 -8.83301 75 -26.5s30 -41.5 30 -71.5s-10 -53.5 -30 -70.5s-45 -25.5 -75 -25.5c-28.667 0 -52.834 8.5 -72.501 25.5s-29.5 40.5 -29.5 70.5zM215 1434h170v-1434h-170v1434z" />
    <glyph glyph-name="uni0408" unicode="&#x408;" horiz-adv-x="596" 
d="M229 1434l170 0.000976562v-1119c0 -108.667 -24.167 -191.667 -72.5 -249s-121.833 -86 -220.5 -86c-10.667 0 -24.167 0.666992 -40.5 2s-32.666 3.33301 -48.999 6s-32.333 6 -48 10s-28.5 8.66699 -38.5 14l33 146c38 -18 79.667 -27 125 -27
c57.333 0 95.166 20.167 113.499 60.5s27.5 95.166 27.5 164.499v1078z" />
    <glyph glyph-name="uni0409" unicode="&#x409;" horiz-adv-x="1896" 
d="M934 1282h-427.997c-14 -273.333 -32.167 -500.333 -54.5 -681s-56.166 -321.667 -101.499 -423c-30 -65.333 -65.5 -113 -106.5 -143s-85.167 -45 -132.5 -45c-24.667 0 -46 1.66699 -64 5s-35 8.33301 -51 15l22 148c14 -4 28.333 -6 43 -6
c23.333 0 46.333 7.5 69 22.5s45 42.833 67 83.5c18.667 36.667 36.5 85.834 53.5 147.501s32 139.5 45 233.5s23.667 206.167 32 336.5s14.5 283.166 18.5 458.499h758v-557c6.66699 1.33301 18.167 3 34.5 5s34.166 3.66699 53.499 5l59.5 4
c20.333 1.33301 38.833 2 55.5 2c65.333 0 129 -6.5 191 -19.5s117.333 -35.833 166 -68.5s88 -76.667 118 -132s45 -125.333 45 -210c0 -82 -14.333 -153 -43 -213s-68.334 -109.833 -119.001 -149.5s-109.834 -69 -177.501 -88s-140.834 -28.5 -219.501 -28.5
c-19.333 0 -42.666 0.333008 -69.999 1s-56.333 2 -87 4s-61.334 5 -92.001 9s-59 9.33301 -85 16v1268zM1290 131c49.333 0 95.501 6.5 138.501 19.5s80.833 32.833 113.5 59.5s58.334 60.167 77.001 100.5s28 87.166 28 140.499c0 57.333 -10.333 105 -31 143
s-47.667 68.333 -81 91s-71.833 38.334 -115.5 47.001s-88.834 13 -135.501 13c-12 0 -27 -0.666992 -45 -2l-53.5 -4c-17.667 -1.33301 -34 -3.33301 -49 -6s-25.833 -4.66699 -32.5 -6v-584c19.333 -4 46.666 -7 81.999 -9s70 -3 104 -3z" />
    <glyph glyph-name="uni040A" unicode="&#x40a;" horiz-adv-x="1995" 
d="M1032 688h-688.001v-688h-170v1434h170v-594h688v594h170v-596c6.66699 1.33301 18.334 3 35.001 5s34.834 3.66699 54.501 5l60 4c20.333 1.33301 38.833 2 55.5 2c64 0 127.167 -5.5 189.5 -16.5s117.666 -31.5 165.999 -61.5s87.5 -71.667 117.5 -125
s45 -122.333 45 -207c0 -81.333 -14.333 -151.5 -43 -210.5s-68.167 -106.833 -118.5 -143.5s-109.333 -63.5 -177 -80.5s-141.167 -25.5 -220.5 -25.5c-19.333 0 -42.666 0.333008 -69.999 1s-56.333 2 -87 4s-61.334 5 -92.001 9s-59 8.66699 -85 14v676zM1389 131
c48.667 0 94.8369 5.50293 138.504 16.5029s81.667 28.833 114 53.5s57.666 55.667 75.999 93s27.5 82.666 27.5 135.999c0 57.333 -9.83301 104.166 -29.5 140.499s-46.334 64.666 -80.001 84.999s-72.334 34 -116.001 41s-89.5 10.5 -137.5 10.5
c-12 0 -26.833 -0.833008 -44.5 -2.5s-35.5 -3.16699 -53.5 -4.5s-34.5 -3.33301 -49.5 -6s-25.833 -4.66699 -32.5 -6v-545c19.333 -4 46.666 -7 81.999 -9s70.333 -3 105 -3z" />
    <glyph glyph-name="uni040B" unicode="&#x40b;" horiz-adv-x="1536" 
d="M653 0h-170v1282h-446v152h1063v-152h-447v-473c37.333 20.667 86.333 41.167 147 61.5s129.334 30.5 206.001 30.5c57.333 0 110.166 -6.5 158.499 -19.5s89.5 -34.833 123.5 -65.5s60.667 -72 80 -124s29 -116 29 -192v-500h-170v469c0 187.333 -84.667 281 -254 281
c-66 0 -126.833 -8.66699 -182.5 -26s-101.5 -40.333 -137.5 -69v-655z" />
    <glyph glyph-name="uni040C" unicode="&#x40c;" horiz-adv-x="1249" 
d="M440 664h-96v-664h-170v1434h170v-668l92 29l482 639h196l-479 -617l-86 -67l104 -82l525 -668h-215zM699 1782h233v-43l-334 -199h-141z" />
    <glyph glyph-name="uni040E" unicode="&#x40e;" horiz-adv-x="1133" 
d="M578 678l53 -181.999h10l41 188l274 750h174l-362 -932c-36.667 -97.333 -69 -178.333 -97 -243s-56.333 -117.167 -85 -157.5s-59.5 -69 -92.5 -86s-73.167 -25.5 -120.5 -25.5c-45.333 0 -81.333 3.66699 -108 11s-51.667 18.666 -75 33.999l52 141
c27.333 -14.667 52.5 -24.167 75.5 -28.5s44.167 -6.5 63.5 -6.5c38 0 70 19.5 96 58.5s48.667 96.833 68 173.5l-531 1061h197zM412 1782c5.33301 -50.667 24.332 -89.666 56.999 -116.999s76.334 -41 131.001 -41s98 13.667 130 41s51.667 65.666 59 114.999l145 -35
c-15.333 -74 -49.833 -132.5 -103.5 -175.5s-131.167 -64.5 -232.5 -64.5c-96.667 0 -176.167 18.833 -238.5 56.5s-98.833 97.5 -109.5 179.5z" />
    <glyph glyph-name="uni040F" unicode="&#x40f;" horiz-adv-x="1350" 
d="M174 0v1434h170v-1282h662v1282h170v-1434h-414l-31 -367h-106l-41 367h-410z" />
    <glyph glyph-name="uni0410" unicode="&#x410;" horiz-adv-x="1198" 
d="M856 397h-528l-144 -397h-168l543 1456h78l545 -1456h-178zM383 545h422l-160 436l-51 217h-2l-51 -221z" />
    </font>
</defs>
</svg>
